<?xml version="1.0" encoding="utf-8"?>
<!-- Generator: Adobe Illustrator 24.0.2, SVG Export Plug-In . SVG Version: 6.00 Build 0)  -->
<svg version="1.1" id="Ebene_1" xmlns="http://www.w3.org/2000/svg" xmlns:xlink="http://www.w3.org/1999/xlink" x="0px" y="0px"
	 viewBox="0 0 100 97.8" style="enable-background:new 0 0 100 97.8;" xml:space="preserve">
<style type="text/css">
	.st0{fill:#FFFFFF;}
</style>
<title>All4</title>
<path class="st0" d="M95.4,25.7c-0.2,0-0.3,0-0.4,0.1V13.7c0-0.6-0.1-1.1-0.2-1.7c0-0.1,0-0.2,0-0.4C94.8,5.2,74.7,0,50,0
	S5.2,5.2,5.2,11.7c0,0.1,0,0.2,0,0.4C5.1,12.6,5,13.2,5,13.7v12.1c-0.1,0-0.3-0.1-0.4-0.1C2.1,25.7,0,31.8,0,39.4S2.1,53,4.6,53
	c0.1,0,0.3,0,0.4,0v27.3c0,4.3,3.5,7.7,7.7,7.7H14c0,0.1,0,0.1,0,0.2v4.6c0,2.8,2.3,5.1,5.1,5.1H24c2.8,0,5-2.3,5-5.1v-4.6
	c0-0.1,0-0.1,0-0.2h42c0,0.1,0,0.1,0,0.2v4.6c0,2.8,2.2,5,5,5.1h4.8c2.8,0,5.1-2.3,5.1-5.1v-4.6c0-0.1,0-0.1,0-0.2h1.3
	c4.3,0,7.8-3.4,7.8-7.7l0,0V53c0.1,0,0.3,0.1,0.4,0.1c2.5,0,4.6-6.1,4.6-13.6S97.9,25.7,95.4,25.7z M32.9,6h34.2
	c1.6,0,2.8,1.3,2.8,2.8s-1.3,2.8-2.8,2.8H32.9c-1.6,0-2.8-1.3-2.8-2.8S31.3,6,32.9,6z M21.5,80.1c-3,0-5.5-2.5-5.5-5.5
	s2.5-5.5,5.5-5.5s5.5,2.5,5.5,5.5l0,0C27,77.7,24.5,80.1,21.5,80.1z M78.5,80.1c-3,0-5.5-2.5-5.5-5.5s2.5-5.5,5.5-5.5
	s5.5,2.5,5.5,5.5l0,0C84,77.7,81.5,80.1,78.5,80.1L78.5,80.1L78.5,80.1z M86.8,56.5c0,3.2-2.6,5.8-5.8,5.8H19.1
	c-3.2,0-5.8-2.6-5.8-5.8V22.3c0-3.2,2.6-5.8,5.8-5.8H81c3.2,0,5.8,2.6,5.8,5.8V56.5L86.8,56.5z"/>
<g>
	<path class="st0" d="M45.3,24.9L45,28.3H29.3l-0.7,10.4c2.4-2.3,5-3.5,7.8-3.5c3,0,5.6,1,7.8,3.1s3.3,4.7,3.3,8s-1.2,6-3.6,8.1
		c-2.4,2.1-5.3,3.1-8.7,3.1c-2.7,0-5.1-0.7-7.2-2.1s-3.5-3.2-4.1-5.5l3.4-1.2c1.4,3.7,4.1,5.6,7.9,5.6c2.6,0,4.6-0.8,6.1-2.3
		s2.3-3.4,2.3-5.8c0-2.5-0.7-4.4-2.2-5.8c-1.5-1.4-3.3-2.1-5.3-2.1c-3,0-5.5,1.5-7.5,4.4L25.4,42l1-17.3h18.9V24.9z"/>
	<path class="st0" d="M59.3,41.8v-3.2H63c2.7,0,4.6-0.5,5.7-1.6s1.7-2.4,1.7-4c0-1.7-0.6-3.1-1.9-4.1s-2.9-1.5-4.8-1.5
		c-3.6,0-6.1,1.7-7.5,5.2l-3.6-1c2.1-4.9,5.9-7.4,11.4-7.4c3.1,0,5.6,0.8,7.6,2.5c1.9,1.7,2.9,3.7,2.9,6c0,1.8-0.6,3.4-1.7,4.7
		c-1.2,1.4-2.6,2.2-4.5,2.5c2,0.3,3.8,1.1,5.2,2.6s2.2,3.2,2.2,5.5c0,2.7-1.1,4.9-3.3,6.7c-2.2,1.8-5.1,2.7-8.9,2.7
		c-3,0-5.6-0.7-7.7-2.1s-3.6-3.3-4.4-5.7l3.7-1.2c1.1,3.9,3.9,5.8,8.3,5.8c2.9,0,4.9-0.6,6.2-1.8s1.9-2.7,1.9-4.4
		c0-1.8-0.8-3.3-2.3-4.5c-1.5-1.1-3.6-1.7-6.3-1.7C62.9,41.8,59.3,41.8,59.3,41.8z"/>
</g>
</svg>
