<?xml version="1.0" encoding="utf-8"?>
<!-- Generator: Adobe Illustrator 24.0.2, SVG Export Plug-In . SVG Version: 6.00 Build 0)  -->
<svg version="1.1" id="Ebene_1" xmlns="http://www.w3.org/2000/svg" xmlns:xlink="http://www.w3.org/1999/xlink" x="0px" y="0px"
	 viewBox="0 0 100 97.8" style="enable-background:new 0 0 100 97.8;" xml:space="preserve">
<style type="text/css">
	.st0{fill:#00FF00;}
</style>
<rect x="11.7" y="5.6" class="st0" width="76.7" height="79.6"/>
<title>All4</title>
<path d="M95.4,25.7c-0.2,0-0.3,0-0.4,0.1V13.7c0-0.6-0.1-1.1-0.2-1.7c0-0.1,0-0.2,0-0.4C94.8,5.2,74.7,0,50,0S5.2,5.2,5.2,11.7
	c0,0.1,0,0.2,0,0.4C5.1,12.6,5,13.2,5,13.7v12.1c-0.1,0-0.3-0.1-0.4-0.1C2.1,25.7,0,31.8,0,39.4S2.1,53,4.6,53c0.1,0,0.3,0,0.4,0
	v27.3c0,4.3,3.5,7.7,7.7,7.7H14c0,0.1,0,0.1,0,0.2v4.6c0,2.8,2.3,5.1,5.1,5.1H24c2.8,0,5-2.3,5-5.1v-4.6c0-0.1,0-0.1,0-0.2h42
	c0,0.1,0,0.1,0,0.2v4.6c0,2.8,2.2,5,5,5.1h4.8c2.8,0,5.1-2.3,5.1-5.1v-4.6c0-0.1,0-0.1,0-0.2h1.3c4.3,0,7.8-3.4,7.8-7.7l0,0V53
	c0.1,0,0.3,0.1,0.4,0.1c2.5,0,4.6-6.1,4.6-13.6S97.9,25.7,95.4,25.7z M32.9,6h34.2c1.6,0,2.8,1.3,2.8,2.8s-1.3,2.8-2.8,2.8H32.9
	c-1.6,0-2.8-1.3-2.8-2.8S31.3,6,32.9,6z M21.5,80.1c-3,0-5.5-2.5-5.5-5.5s2.5-5.5,5.5-5.5s5.5,2.5,5.5,5.5l0,0
	C27,77.7,24.5,80.1,21.5,80.1z M78.5,80.1c-3,0-5.5-2.5-5.5-5.5s2.5-5.5,5.5-5.5s5.5,2.5,5.5,5.5l0,0C84,77.7,81.5,80.1,78.5,80.1
	L78.5,80.1L78.5,80.1z M86.8,56.5c0,3.2-2.6,5.8-5.8,5.8H19.1c-3.2,0-5.8-2.6-5.8-5.8V22.3c0-3.2,2.6-5.8,5.8-5.8H81
	c3.2,0,5.8,2.6,5.8,5.8V56.5L86.8,56.5z"/>
</svg>
