<?xml version="1.0" encoding="utf-8"?>
<!-- Generator: Adobe Illustrator 24.0.2, SVG Export Plug-In . SVG Version: 6.00 Build 0)  -->
<svg version="1.1" id="Ebene_1" xmlns="http://www.w3.org/2000/svg" xmlns:xlink="http://www.w3.org/1999/xlink" x="0px" y="0px"
	 viewBox="0 0 155.5 83.3" style="enable-background:new 0 0 155.5 83.3;" xml:space="preserve">
<style type="text/css">
	.st0{fill:#FFFF00;stroke:#1D1D1B;stroke-width:0.5111;stroke-miterlimit:10;}
	.st1{fill:none;}
	.st2{fill:#FFFF00;stroke:#1D1D1B;stroke-width:2;stroke-miterlimit:10;}
</style>
<circle class="st0" cx="139.4" cy="15.8" r="11.8"/>
<polygon class="st1" points="147.1,16.3 147,17.6 148.1,17.1 "/>
<polygon class="st1" points="143.3,22.6 143.9,21.6 142.7,21.6 "/>
<polygon class="st1" points="146.9,12.9 147,11.7 145.9,12.2 "/>
<polygon class="st1" points="131.9,3.7 131.9,2.6 131,3.2 "/>
<polygon class="st1" points="138.7,7.9 137.5,7.9 138.1,9 "/>
<polygon class="st1" points="139.6,0.6 138.5,0.6 139.1,1.6 "/>
<polygon class="st1" points="143.3,16.1 142.1,16.1 142.7,17.2 "/>
<polygon class="st1" points="146.3,2.3 146.3,3.3 147.3,2.8 "/>
<polygon class="st1" points="152.3,7.5 151.7,8.5 152.9,8.5 "/>
<polygon class="st1" points="131.5,15.7 131.8,17 132.7,16.1 "/>
<polygon class="st1" points="142.3,11.4 142,10.2 141.1,11.1 "/>
<polygon class="st1" points="134.2,22.2 134.8,21.1 133.5,21.1 "/>
<polygon class="st1" points="137.4,16.3 138.5,16.8 138.5,15.6 "/>
<polygon class="st1" points="134.6,12.6 135,11.4 133.8,11.7 "/>
<polygon class="st1" points="138.2,23.2 139.4,23.7 139.2,22.4 "/>
<path class="st1" d="M139.5,4.9c-6.1,0-11,5-11,11s5,11,11,11c6.1,0,11-5,11-11S145.6,4.9,139.5,4.9z M143.2,12.3l-3.4-0.9l2.5-2.5
	L143.2,12.3z M139.9,7.3l-1.7,3l-1.7-3H139.9z M131.5,18.2l-0.9-3.4l0,0l0,0l3.4,0.9L131.5,18.2z M134.2,23.5l-1.8-3h3.5L134.2,23.5
	z M134.9,13.8l-2.4-2.6l3.4-0.7L134.9,13.8z M139,14.5l0.2,3.5l-3.1-1.6L139,14.5z M137,23.4l2.7-2.2l0.6,3.4L137,23.4z M144.5,15.5
	l-1.8,3l-1.7-3.1L144.5,15.5z M143.3,24l-1.7-3h3.5L143.3,24z M146.2,18.6l0.5-3.4l2.8,2.2L146.2,18.6z M147.4,14.1l-2.8-2l3.2-1.4
	L147.4,14.1z"/>
<polygon class="st1" points="147,28.3 147,29.4 147.9,28.8 "/>
<polygon class="st1" points="153.2,22.9 152.1,22.9 152.7,23.8 "/>
<polygon class="st1" points="126.7,24.5 127.2,23.5 126.1,23.5 "/>
<polygon class="st1" points="139.3,31.4 140.4,31.4 139.9,30.4 "/>
<polygon class="st1" points="124.1,16.9 125.1,16.4 124.1,15.8 "/>
<polygon class="st1" points="154.8,16.2 154.8,15.1 153.9,15.6 "/>
<polygon class="st1" points="125.7,9.1 126.8,9.1 126.3,8.2 "/>
<path d="M139.5,3.8c-6.7,0-12.1,5.4-12.1,12.1S132.8,28,139.5,28c6.7,0,12.1-5.4,12.1-12.1S146.1,3.8,139.5,3.8z M139.5,27.4
	c-6.3,0-11.4-5.1-11.4-11.4s5.1-11.4,11.4-11.4c6.3,0,11.4,5.1,11.4,11.4S145.8,27.4,139.5,27.4z"/>
<path d="M138.8,4.1h0.6V2.4l1.4-2.4h-3.3l1.4,2.4V4.1z M138.5,0.6h1.1l-0.5,1L138.5,0.6z"/>
<path d="M132.9,6l0.5-0.3l-0.9-1.5V1.5l-2.9,1.7l2.4,1.4L132.9,6z M131.9,3.7l-1-0.5l1-0.5V3.7z"/>
<path d="M128.8,10.6l0.3-0.6l-1.5-0.9l-1.4-2.3l-1.7,2.9h2.7L128.8,10.6z M125.7,9.1l0.5-1l0.5,1H125.7z"/>
<path d="M127.5,16.7v-0.6h-1.7l-2.4-1.4v3.3l2.4-1.4H127.5z M124.1,16.9v-1.1l1,0.5L124.1,16.9z"/>
<path d="M127.7,22.9h-2.7l1.7,2.9l1.4-2.4l1.5-0.8l-0.3-0.5L127.7,22.9z M126.7,24.5l-0.5-1h1.1L126.7,24.5z"/>
<path d="M132.7,27.8l-2.4,1.4l2.9,1.7v-2.7l0.8-1.5l-0.6-0.3L132.7,27.8z M132.6,29.7l-1-0.5l1-0.5V29.7z"/>
<path d="M140.2,27.9h-0.6v1.7l-1.4,2.4h3.3l-1.4-2.4V27.9z M140.4,31.4h-1.1l0.5-1L140.4,31.4z"/>
<path d="M146,26l-0.5,0.3l0.9,1.5v2.7l2.9-1.7l-2.4-1.4L146,26z M147,28.3l1,0.5l-1,0.5V28.3z"/>
<path d="M150.2,21.4l-0.3,0.6l1.5,0.9l1.4,2.4l1.7-2.9h-2.7L150.2,21.4z M153.2,22.9l-0.5,1l-0.5-1H153.2z"/>
<path d="M153.1,15.3h-1.7v0.6h1.7l2.4,1.4v-3.3L153.1,15.3z M154.8,16.2l-1-0.5l1-0.5V16.2z"/>
<path d="M151.2,9.1h2.7l-1.7-2.9l-1.4,2.4l-1.5,0.8l0.3,0.5L151.2,9.1z M152.3,7.5l0.5,1h-1.1L152.3,7.5z"/>
<path d="M146.3,4.2l2.4-1.4l-2.9-1.7v2.7l-0.8,1.5l0.6,0.3L146.3,4.2z M146.3,2.3l1,0.5l-1,0.5V2.3z"/>
<path d="M139.9,7.3h-3.5l1.7,3L139.9,7.3z M138.7,7.9L138.1,9l-0.6-1.1H138.7z"/>
<path d="M143.2,12.3l-0.9-3.4l-2.5,2.5L143.2,12.3z M142.3,11.4l-1.2-0.3l0.9-0.9L142.3,11.4z"/>
<path d="M134.9,13.8l1.1-3.3l-3.4,0.7L134.9,13.8z M134.6,12.6l-0.8-0.9l1.2-0.3L134.6,12.6z"/>
<path d="M144.5,15.5l-3.5-0.1l1.7,3.1L144.5,15.5z M143.3,16.1l-0.6,1.1l-0.6-1.1L143.3,16.1z"/>
<path d="M134.2,23.5l1.7-3h-3.5L134.2,23.5z M134.2,22.2l-0.6-1.1h1.3L134.2,22.2z"/>
<path d="M130.6,14.8L130.6,14.8L130.6,14.8l0.9,3.4l2.5-2.4L130.6,14.8z M131.5,15.7l1.2,0.3l-0.9,0.9L131.5,15.7z"/>
<path d="M139,14.5l-2.9,1.9l3.1,1.6L139,14.5z M137.4,16.3l1-0.7l0.1,1.2L137.4,16.3z"/>
<path d="M137,23.4l3.3,1.2l-0.6-3.4L137,23.4z M138.2,23.2l1-0.8l0.2,1.2L138.2,23.2z"/>
<path d="M147.4,14.1l0.3-3.5l-3.2,1.4L147.4,14.1z M146.9,12.9l-1-0.7l1.1-0.5L146.9,12.9z"/>
<path d="M143.3,24l1.7-3h-3.5L143.3,24z M143.3,22.6l-0.6-1.1h1.2L143.3,22.6z"/>
<path d="M146.2,18.6l3.2-1.3l-2.8-2.2L146.2,18.6z M147.1,16.3l1,0.8l-1.2,0.5L147.1,16.3z"/>
<g>
	<g>
		<path class="st2" d="M59.3,70.6v7.6v2.1v2.1H26.5v-2.1v-2.1v-7.6c0-6,5.5-10.9,12.3-10.9H47C53.8,59.7,59.3,64.7,59.3,70.6z
			 M42.9,57.7c5.7,0,10.3-4.5,10.3-10.3s-4.5-10.3-10.3-10.3s-10.3,4.5-10.3,10.3S37.2,57.7,42.9,57.7z"/>
	</g>
	<g>
		<path class="st2" d="M107.2,70.6v7.6v2.1v2.1H74.4v-2.1v-2.1v-7.6c0-6,5.5-10.9,12.3-10.9h8.2C101.6,59.7,107.2,64.7,107.2,70.6z
			 M90.8,57.7c5.7,0,10.3-4.5,10.3-10.3s-4.5-10.3-10.3-10.3s-10.3,4.5-10.3,10.3S85,57.7,90.8,57.7z"/>
	</g>
</g>
</svg>
