<?xml version="1.0" encoding="utf-8"?>
<!-- Generator: Adobe Illustrator 24.0.2, SVG Export Plug-In . SVG Version: 6.00 Build 0)  -->
<svg version="1.1" id="Ebene_1" xmlns="http://www.w3.org/2000/svg" xmlns:xlink="http://www.w3.org/1999/xlink" x="0px" y="0px"
	 viewBox="0 0 438.1 237.1" style="enable-background:new 0 0 438.1 237.1;" xml:space="preserve">
<style type="text/css">
	.st0{fill:#67B32E;stroke:#1E1E1C;stroke-width:0.3726;stroke-miterlimit:10;}
	.st1{fill:#67B32E;stroke:#1E1E1C;stroke-width:1.4579;stroke-miterlimit:10;}
	.st2{fill:none;}
	.st3{fill:#020203;}
	.st4{fill:#F4E600;stroke:#1E1E1C;stroke-width:0.3726;stroke-miterlimit:10;}
	.st5{fill:#F4E600;stroke:#1E1E1C;stroke-width:1.4579;stroke-miterlimit:10;}
	.st6{fill:#E52521;stroke:#1E1E1C;stroke-width:0.3726;stroke-miterlimit:10;}
	.st7{fill:#E52521;stroke:#1E1E1C;stroke-width:1.4579;stroke-miterlimit:10;}
	.st8{fill:#66B32E;}
	.st9{fill:#F4E600;}
	.st10{fill:#E52521;}
</style>
<g>
	<g>
		<circle class="st0" cx="101.5" cy="11.5" r="8.6"/>
		<g>
			<path class="st1" d="M59.6,51.5V57v1.5v1.5h-24v-1.5V57v-5.5c0-4.4,4-7.9,9-7.9h6C55.5,43.5,59.6,47.2,59.6,51.5z M47.5,42.1
				c4.2,0,7.5-3.3,7.5-7.5S51.8,27,47.5,27S40,30.3,40,34.6S43.4,42.1,47.5,42.1z"/>
		</g>
		<polygon class="st2" points="107.2,11.9 107.1,12.8 107.9,12.5 		"/>
		<polygon class="st2" points="104.4,16.5 104.8,15.7 103.9,15.7 		"/>
		<polygon class="st2" points="107,9.4 107.1,8.5 106.3,8.9 		"/>
		<polygon class="st2" points="96.1,2.7 96.1,1.9 95.4,2.3 		"/>
		<polygon class="st2" points="101,5.8 100.2,5.8 100.6,6.6 		"/>
		<polygon class="st2" points="101.7,0.4 100.9,0.4 101.3,1.2 		"/>
		<polygon class="st2" points="104.4,11.7 103.5,11.7 103.9,12.5 		"/>
		<polygon class="st2" points="106.6,1.7 106.6,2.4 107.3,2 		"/>
		<polygon class="st2" points="110.9,5.5 110.5,6.2 111.4,6.2 		"/>
		<polygon class="st2" points="95.8,11.4 96,12.4 96.7,11.7 		"/>
		<polygon class="st2" points="103.7,8.3 103.4,7.4 102.8,8.1 		"/>
		<polygon class="st2" points="97.8,16.2 98.2,15.4 97.2,15.4 		"/>
		<polygon class="st2" points="100.1,11.9 100.9,12.2 100.9,11.4 		"/>
		<polygon class="st2" points="98,9.2 98.3,8.3 97.5,8.5 		"/>
		<polygon class="st2" points="100.7,16.9 101.5,17.3 101.4,16.3 		"/>
		<path class="st2" d="M101.6,3.6c-4.4,0-8,3.6-8,8s3.6,8,8,8c4.4,0,8-3.6,8-8S106.1,3.6,101.6,3.6z M104.3,9l-2.5-0.7l1.8-1.8
			L104.3,9z M101.9,5.3l-1.2,2.2l-1.2-2.2H101.9z M95.8,13.3l-0.7-2.5l0,0l0,0l2.5,0.7L95.8,13.3z M97.8,17.1l-1.3-2.2H99L97.8,17.1
			z M98.3,10.1l-1.7-1.9L99,7.7L98.3,10.1z M101.3,10.6l0.1,2.6L99.1,12L101.3,10.6z M99.8,17.1l2-1.6l0.4,2.5L99.8,17.1z
			 M105.3,11.3l-1.3,2.2l-1.2-2.3L105.3,11.3z M104.4,17.5l-1.2-2.2h2.6L104.4,17.5z M106.5,13.6l0.4-2.5l2,1.6L106.5,13.6z
			 M107.4,10.3l-2-1.5l2.3-1L107.4,10.3z"/>
		<polygon class="st2" points="107.1,20.6 107.1,21.4 107.7,21 		"/>
		<polygon class="st2" points="111.6,16.7 110.8,16.7 111.2,17.3 		"/>
		<polygon class="st2" points="92.3,17.9 92.6,17.1 91.8,17.1 		"/>
		<polygon class="st2" points="101.5,22.9 102.3,22.9 101.9,22.2 		"/>
		<polygon class="st2" points="90.4,12.3 91.1,12 90.4,11.5 		"/>
		<polygon class="st2" points="112.8,11.8 112.8,11 112.1,11.4 		"/>
		<polygon class="st2" points="91.6,6.6 92.4,6.6 92,6 		"/>
		<polygon class="st2" points="96.6,21.6 96.6,20.9 95.9,21.3 		"/>
		<path class="st3" d="M101.6,2.8c-4.9,0-8.8,3.9-8.8,8.8s3.9,8.8,8.8,8.8c4.9,0,8.8-3.9,8.8-8.8S106.4,2.8,101.6,2.8z M101.6,20
			c-4.6,0-8.3-3.7-8.3-8.3s3.7-8.3,8.3-8.3c4.6,0,8.3,3.7,8.3,8.3S106.2,20,101.6,20z"/>
		<path class="st3" d="M101.1,3h0.4V1.7l1-1.7h-2.4l1,1.7L101.1,3L101.1,3z M100.9,0.4h0.8l-0.4,0.7L100.9,0.4z"/>
		<path class="st3" d="M96.8,4.4l0.4-0.2l-0.7-1.1v-2l-2.1,1.2l1.7,1L96.8,4.4z M96.1,2.7l-0.7-0.4L96.1,2V2.7z"/>
		<path class="st3" d="M93.8,7.7L94,7.3l-1.1-0.7l-1-1.7l-1.2,2.1h2L93.8,7.7z M91.6,6.6l0.4-0.7l0.4,0.7H91.6z"/>
		<path class="st3" d="M92.9,12.2v-0.4h-1.2l-1.7-1v2.4l1.7-1L92.9,12.2L92.9,12.2z M90.4,12.3v-0.8l0.7,0.4L90.4,12.3z"/>
		<path class="st3" d="M93,16.7h-2l1.2,2.1l1-1.7l1.1-0.6l-0.2-0.4L93,16.7z M92.3,17.9l-0.4-0.7h0.8L92.3,17.9z"/>
		<path class="st3" d="M96.7,20.3l-1.7,1l2.1,1.2v-2l0.6-1.1l-0.4-0.2L96.7,20.3z M96.6,21.6l-0.7-0.4l0.7-0.4V21.6z"/>
		<path class="st3" d="M102.1,20.3h-0.4v1.2l-1,1.7h2.4l-1-1.7L102.1,20.3L102.1,20.3z M102.3,22.9h-0.8l0.4-0.7L102.3,22.9z"/>
		<path class="st3" d="M106.4,19l-0.4,0.2l0.7,1.1v2l2.1-1.2l-1.7-1L106.4,19z M107.1,20.6l0.7,0.4l-0.7,0.4V20.6z"/>
		<path class="st3" d="M109.4,15.6l-0.2,0.4l1.1,0.7l1,1.7l1.2-2.1h-2L109.4,15.6z M111.6,16.7l-0.4,0.7l-0.4-0.7H111.6z"/>
		<path class="st3" d="M111.5,11.2h-1.2v0.4h1.2l1.7,1v-2.4L111.5,11.2z M112.8,11.8l-0.7-0.4l0.7-0.4V11.8z"/>
		<path class="st3" d="M110.1,6.6h2l-1.2-2.1l-1,1.7l-1.1,0.6l0.2,0.4L110.1,6.6z M110.9,5.5l0.4,0.7h-0.8L110.9,5.5z"/>
		<path class="st3" d="M106.6,3.1l1.7-1l-2.1-1.2v2l-0.6,1.1l0.4,0.2L106.6,3.1z M106.6,1.7l0.7,0.4l-0.7,0.4V1.7z"/>
		<path class="st3" d="M101.9,5.3h-2.6l1.2,2.2L101.9,5.3z M101,5.8l-0.4,0.8l-0.4-0.8H101z"/>
		<path class="st3" d="M104.3,9l-0.7-2.5l-1.8,1.8L104.3,9z M103.7,8.3l-0.9-0.2l0.7-0.7L103.7,8.3z"/>
		<path class="st3" d="M98.3,10.1l0.8-2.4l-2.5,0.5L98.3,10.1z M98,9.2l-0.6-0.7l0.9-0.2L98,9.2z"/>
		<path class="st3" d="M105.3,11.3l-2.6-0.1l1.2,2.3L105.3,11.3z M104.4,11.7l-0.4,0.8l-0.4-0.8H104.4z"/>
		<path class="st3" d="M97.8,17.1l1.2-2.2h-2.6L97.8,17.1z M97.8,16.2l-0.4-0.8h0.9L97.8,16.2z"/>
		<path class="st3" d="M95.1,10.8L95.1,10.8L95.1,10.8l0.7,2.5l1.8-1.7L95.1,10.8z M95.8,11.4l0.9,0.2L96,12.3L95.8,11.4z"/>
		<path class="st3" d="M101.3,10.6L99.1,12l2.3,1.2L101.3,10.6z M100.1,11.9l0.7-0.5l0.1,0.9L100.1,11.9z"/>
		<path class="st3" d="M99.8,17.1l2.4,0.9l-0.4-2.5L99.8,17.1z M100.7,16.9l0.7-0.6l0.1,0.9L100.7,16.9z"/>
		<path class="st3" d="M107.4,10.3l0.2-2.6l-2.3,1L107.4,10.3z M107,9.4l-0.7-0.5l0.8-0.4L107,9.4z"/>
		<path class="st3" d="M104.4,17.5l1.2-2.2h-2.6L104.4,17.5z M104.4,16.5l-0.4-0.8h0.9L104.4,16.5z"/>
		<path class="st3" d="M106.5,13.6l2.3-0.9l-2-1.6L106.5,13.6z M107.2,11.9l0.7,0.6l-0.9,0.4L107.2,11.9z"/>
	</g>
	<g>
		<circle class="st4" cx="101.5" cy="99.4" r="8.6"/>
		<polygon class="st2" points="107.2,99.7 107.1,100.7 107.9,100.3 		"/>
		<polygon class="st2" points="104.4,104.3 104.8,103.6 103.9,103.6 		"/>
		<polygon class="st2" points="107,97.2 107.1,96.4 106.3,96.7 		"/>
		<polygon class="st2" points="96.1,90.5 96.1,89.7 95.4,90.2 		"/>
		<polygon class="st2" points="101,93.6 100.2,93.6 100.6,94.4 		"/>
		<polygon class="st2" points="101.7,88.3 100.9,88.3 101.3,89 		"/>
		<polygon class="st2" points="104.4,99.6 103.5,99.6 103.9,100.4 		"/>
		<polygon class="st2" points="106.6,89.5 106.6,90.2 107.3,89.9 		"/>
		<polygon class="st2" points="110.9,93.3 110.5,94 111.4,94 		"/>
		<polygon class="st2" points="95.8,99.3 96,100.2 96.7,99.6 		"/>
		<polygon class="st2" points="103.7,96.1 103.4,95.3 102.8,95.9 		"/>
		<polygon class="st2" points="97.8,104 98.2,103.2 97.2,103.2 		"/>
		<polygon class="st2" points="100.1,99.7 100.9,100.1 100.9,99.2 		"/>
		<polygon class="st2" points="98,97 98.3,96.1 97.5,96.4 		"/>
		<polygon class="st2" points="100.7,104.7 101.5,105.1 101.4,104.2 		"/>
		<path class="st2" d="M101.6,91.4c-4.4,0-8,3.6-8,8s3.6,8,8,8c4.4,0,8-3.6,8-8S106.1,91.4,101.6,91.4z M104.3,96.8l-2.5-0.7
			l1.8-1.8L104.3,96.8z M101.9,93.2l-1.2,2.2l-1.2-2.2H101.9z M95.8,101.1l-0.7-2.5l0,0l0,0l2.5,0.7L95.8,101.1z M97.8,105l-1.3-2.2
			H99L97.8,105z M98.3,97.9L96.5,96l2.5-0.5L98.3,97.9z M101.3,98.4l0.1,2.6l-2.3-1.2L101.3,98.4z M99.8,104.9l2-1.6l0.4,2.5
			L99.8,104.9z M105.3,99.1l-1.3,2.2l-1.2-2.3L105.3,99.1z M104.4,105.3l-1.2-2.2h2.6L104.4,105.3z M106.5,101.4l0.4-2.5l2,1.6
			L106.5,101.4z M107.4,98.1l-2-1.5l2.3-1L107.4,98.1z"/>
		<polygon class="st2" points="107.1,108.5 107.1,109.3 107.7,108.8 		"/>
		<polygon class="st2" points="111.6,104.5 110.8,104.5 111.2,105.2 		"/>
		<polygon class="st2" points="92.3,105.7 92.6,105 91.8,105 		"/>
		<polygon class="st2" points="101.5,110.7 102.3,110.7 101.9,110 		"/>
		<polygon class="st2" points="90.4,100.2 91.1,99.8 90.4,99.4 		"/>
		<polygon class="st2" points="112.8,99.6 112.8,98.8 112.1,99.2 		"/>
		<polygon class="st2" points="91.6,94.5 92.4,94.5 92,93.8 		"/>
		<path class="st3" d="M101.6,90.6c-4.9,0-8.8,3.9-8.8,8.8c0,4.9,3.9,8.8,8.8,8.8c4.9,0,8.8-3.9,8.8-8.8
			C110.4,94.5,106.4,90.6,101.6,90.6z M101.6,107.8c-4.6,0-8.3-3.7-8.3-8.3s3.7-8.3,8.3-8.3c4.6,0,8.3,3.7,8.3,8.3
			S106.2,107.8,101.6,107.8z"/>
		<path class="st3" d="M101.1,90.8h0.4v-1.2l1-1.7h-2.4l1,1.7L101.1,90.8L101.1,90.8z M100.9,88.3h0.8l-0.4,0.7L100.9,88.3z"/>
		<path class="st3" d="M96.8,92.2l0.4-0.2l-0.7-1.1v-2l-2.1,1.2l1.7,1L96.8,92.2z M96.1,90.5l-0.7-0.4l0.7-0.4V90.5z"/>
		<path class="st3" d="M93.8,95.6l0.2-0.4l-1.1-0.7l-1-1.7l-1.2,2.1h2L93.8,95.6z M91.6,94.5l0.4-0.7l0.4,0.7H91.6z"/>
		<path class="st3" d="M92.9,100v-0.4h-1.2l-1.7-1v2.4l1.7-1L92.9,100L92.9,100z M90.4,100.2v-0.8l0.7,0.4L90.4,100.2z"/>
		<path class="st3" d="M93,104.5h-2l1.2,2.1l1-1.7l1.1-0.6l-0.2-0.4L93,104.5z M92.3,105.7l-0.4-0.7h0.8L92.3,105.7z"/>
		<path class="st3" d="M96.7,108.1l-1.7,1l2.1,1.2v-2l0.6-1.1l-0.4-0.2L96.7,108.1z M96.6,109.5l-0.7-0.4l0.7-0.4V109.5z"/>
		<path class="st3" d="M102.1,108.2h-0.4v1.2l-1,1.7h2.4l-1-1.7L102.1,108.2L102.1,108.2z M102.3,110.7h-0.8l0.4-0.7L102.3,110.7z"
			/>
		<path class="st3" d="M106.4,106.8L106,107l0.7,1.1v2l2.1-1.2l-1.7-1L106.4,106.8z M107.1,108.5l0.7,0.4l-0.7,0.4V108.5z"/>
		<path class="st3" d="M109.4,103.4l-0.2,0.4l1.1,0.7l1,1.7l1.2-2.1h-2L109.4,103.4z M111.6,104.5l-0.4,0.7l-0.4-0.7H111.6z"/>
		<path class="st3" d="M111.5,99h-1.2v0.4h1.2l1.7,1V98L111.5,99z M112.8,99.6l-0.7-0.4l0.7-0.4V99.6z"/>
		<path class="st3" d="M110.1,94.5h2l-1.2-2.1l-1,1.7l-1.1,0.6l0.2,0.4L110.1,94.5z M110.9,93.3l0.4,0.7h-0.8L110.9,93.3z"/>
		<path class="st3" d="M106.6,90.9l1.7-1l-2.1-1.2v2l-0.6,1.1l0.4,0.2L106.6,90.9z M106.6,89.5l0.7,0.4l-0.7,0.4V89.5z"/>
		<path class="st3" d="M101.9,93.2h-2.6l1.2,2.2L101.9,93.2z M101,93.6l-0.4,0.8l-0.4-0.8H101z"/>
		<path class="st3" d="M104.3,96.8l-0.7-2.5l-1.8,1.8L104.3,96.8z M103.7,96.1l-0.9-0.2l0.7-0.7L103.7,96.1z"/>
		<path class="st3" d="M98.3,97.9l0.8-2.4L96.6,96L98.3,97.9z M98,97l-0.6-0.7l0.9-0.2L98,97z"/>
		<path class="st3" d="M105.3,99.1l-2.6-0.1l1.2,2.3L105.3,99.1z M104.4,99.6l-0.4,0.8l-0.4-0.8H104.4z"/>
		<path class="st3" d="M97.8,105l1.2-2.2h-2.6L97.8,105z M97.8,104l-0.4-0.8h0.9L97.8,104z"/>
		<path class="st3" d="M95.1,98.6L95.1,98.6L95.1,98.6l0.7,2.5l1.8-1.7L95.1,98.6z M95.8,99.3l0.9,0.2l-0.7,0.7L95.8,99.3z"/>
		<path class="st3" d="M101.3,98.4l-2.1,1.4l2.3,1.2L101.3,98.4z M100.1,99.7l0.7-0.5l0.1,0.9L100.1,99.7z"/>
		<path class="st3" d="M99.8,104.9l2.4,0.9l-0.4-2.5L99.8,104.9z M100.7,104.7l0.7-0.6l0.1,0.9L100.7,104.7z"/>
		<path class="st3" d="M107.4,98.1l0.2-2.6l-2.3,1L107.4,98.1z M107,97.2l-0.7-0.5l0.8-0.4L107,97.2z"/>
		<path class="st3" d="M104.4,105.3l1.2-2.2h-2.6L104.4,105.3z M104.4,104.3l-0.4-0.8h0.9L104.4,104.3z"/>
		<path class="st3" d="M106.5,101.4l2.3-0.9l-2-1.6L106.5,101.4z M107.2,99.7l0.7,0.6l-0.9,0.4L107.2,99.7z"/>
		<g>
			<g>
				<path class="st5" d="M43.2,139.3v5.5v1.5v1.5H19.2v-1.5v-1.5v-5.5c0-4.4,4-7.9,9-7.9h6C39.1,131.4,43.2,135,43.2,139.3z
					 M31.2,129.9c4.2,0,7.5-3.3,7.5-7.5s-3.3-7.5-7.5-7.5s-7.5,3.3-7.5,7.5S27,129.9,31.2,129.9z"/>
			</g>
			<g>
				<path class="st5" d="M78.1,139.3v5.5v1.5v1.5H54.2v-1.5v-1.5v-5.5c0-4.4,4-7.9,9-7.9h6C74,131.4,78.1,135,78.1,139.3z
					 M66.1,129.9c4.2,0,7.5-3.3,7.5-7.5s-3.3-7.5-7.5-7.5c-4.2,0-7.5,3.3-7.5,7.5S61.9,129.9,66.1,129.9z"/>
			</g>
		</g>
	</g>
	<g>
		<circle class="st6" cx="101.5" cy="183.5" r="8.6"/>
		<g>
			<path class="st7" d="M59.6,223.5v5.5v1.5v1.5h-24v-1.5V229v-5.5c0-4.4,4-7.9,9-7.9h6C55.5,215.5,59.6,219.2,59.6,223.5z
				 M47.5,214.1c4.2,0,7.5-3.3,7.5-7.5s-3.3-7.5-7.5-7.5s-7.5,3.3-7.5,7.5S43.4,214.1,47.5,214.1z"/>
		</g>
		<g>
			<path class="st7" d="M24.6,223.5v5.5v1.5v1.5H0.7v-1.5V229v-5.5c0-4.4,4-7.9,9-7.9h6C20.6,215.5,24.6,219.2,24.6,223.5z
				 M12.7,214.1c4.2,0,7.5-3.3,7.5-7.5s-3.3-7.5-7.5-7.5s-7.5,3.4-7.5,7.5S8.5,214.1,12.7,214.1z"/>
		</g>
		<g>
			<path class="st7" d="M94.4,223.5v5.5v1.5v1.5H70.5v-1.5V229v-5.5c0-4.4,4-7.9,9-7.9h6C90.4,215.5,94.4,219.2,94.4,223.5z
				 M82.4,214.1c4.2,0,7.5-3.3,7.5-7.5s-3.3-7.5-7.5-7.5c-4.2,0-7.5,3.3-7.5,7.5S78.3,214.1,82.4,214.1z"/>
		</g>
		<polygon class="st2" points="107.2,183.9 107.1,184.9 107.9,184.5 		"/>
		<polygon class="st2" points="104.4,188.5 104.8,187.8 103.9,187.8 		"/>
		<polygon class="st2" points="107,181.4 107.1,180.6 106.3,180.9 		"/>
		<polygon class="st2" points="96.1,174.7 96.1,173.9 95.4,174.4 		"/>
		<polygon class="st2" points="101,177.8 100.2,177.8 100.6,178.6 		"/>
		<polygon class="st2" points="101.7,172.5 100.9,172.5 101.3,173.2 		"/>
		<polygon class="st2" points="104.4,183.8 103.5,183.8 103.9,184.6 		"/>
		<polygon class="st2" points="106.6,173.7 106.6,174.4 107.3,174.1 		"/>
		<polygon class="st2" points="110.9,177.5 110.5,178.2 111.4,178.2 		"/>
		<polygon class="st2" points="95.8,183.5 96,184.4 96.7,183.8 		"/>
		<polygon class="st2" points="103.7,180.3 103.4,179.5 102.8,180.1 		"/>
		<polygon class="st2" points="97.8,188.2 98.2,187.4 97.2,187.4 		"/>
		<polygon class="st2" points="100.1,183.9 100.9,184.3 100.9,183.4 		"/>
		<polygon class="st2" points="98,181.2 98.3,180.3 97.5,180.6 		"/>
		<polygon class="st2" points="100.7,188.9 101.5,189.3 101.4,188.4 		"/>
		<path class="st2" d="M101.6,175.6c-4.4,0-8,3.6-8,8c0,4.4,3.6,8,8,8c4.4,0,8-3.6,8-8C109.6,179.2,106.1,175.6,101.6,175.6z
			 M104.3,181l-2.5-0.7l1.8-1.8L104.3,181z M101.9,177.4l-1.2,2.2l-1.2-2.2H101.9z M95.8,185.3l-0.7-2.5l0,0l0,0l2.5,0.7L95.8,185.3
			z M97.8,189.2l-1.3-2.2H99L97.8,189.2z M98.3,182.1l-1.7-1.9l2.5-0.5L98.3,182.1z M101.3,182.6l0.1,2.6l-2.3-1.2L101.3,182.6z
			 M99.8,189.1l2-1.6l0.4,2.5L99.8,189.1z M105.3,183.3l-1.3,2.2l-1.2-2.3L105.3,183.3z M104.4,189.5l-1.2-2.2h2.6L104.4,189.5z
			 M106.5,185.6l0.4-2.5l2,1.6L106.5,185.6z M107.4,182.3l-2-1.5l2.3-1L107.4,182.3z"/>
		<polygon class="st2" points="107.1,192.7 107.1,193.5 107.7,193 		"/>
		<polygon class="st2" points="111.6,188.7 110.8,188.7 111.2,189.4 		"/>
		<polygon class="st2" points="92.3,189.9 92.6,189.2 91.8,189.2 		"/>
		<polygon class="st2" points="101.5,194.9 102.3,194.9 101.9,194.2 		"/>
		<polygon class="st2" points="90.4,184.3 91.1,184 90.4,183.5 		"/>
		<polygon class="st2" points="112.8,183.8 112.8,183 112.1,183.4 		"/>
		<polygon class="st2" points="91.6,178.7 92.4,178.7 92,178 		"/>
		<polygon class="st2" points="96.6,193.7 96.6,193 95.9,193.3 		"/>
		<path class="st3" d="M101.6,174.8c-4.9,0-8.8,3.9-8.8,8.8s3.9,8.8,8.8,8.8c4.9,0,8.8-3.9,8.8-8.8
			C110.4,178.7,106.4,174.8,101.6,174.8z M101.6,192c-4.6,0-8.3-3.7-8.3-8.3s3.7-8.3,8.3-8.3c4.6,0,8.3,3.7,8.3,8.3
			S106.2,192,101.6,192z"/>
		<path class="st3" d="M101.1,175h0.4v-1.2l1-1.7h-2.4l1,1.7L101.1,175L101.1,175z M100.9,172.5h0.8l-0.4,0.7L100.9,172.5z"/>
		<path class="st3" d="M96.8,176.4l0.4-0.2l-0.7-1.1v-2l-2.1,1.2l1.7,1L96.8,176.4z M96.1,174.7l-0.7-0.4l0.7-0.4V174.7z"/>
		<path class="st3" d="M93.8,179.8l0.2-0.4l-1.1-0.7l-1-1.7l-1.2,2.1h2L93.8,179.8z M91.6,178.7l0.4-0.7l0.4,0.7H91.6z"/>
		<path class="st3" d="M92.9,184.2v-0.4h-1.2l-1.7-1v2.4l1.7-1L92.9,184.2L92.9,184.2z M90.4,184.3v-0.8l0.7,0.4L90.4,184.3z"/>
		<path class="st3" d="M93,188.7h-2l1.2,2.1l1-1.7l1.1-0.6l-0.2-0.4L93,188.7z M92.3,189.9l-0.4-0.7h0.8L92.3,189.9z"/>
		<path class="st3" d="M96.7,192.3l-1.7,1l2.1,1.2v-2l0.6-1.1l-0.4-0.2L96.7,192.3z M96.6,193.7l-0.7-0.4l0.7-0.4V193.7z"/>
		<path class="st3" d="M102.1,192.4h-0.4v1.2l-1,1.7h2.4l-1-1.7L102.1,192.4L102.1,192.4z M102.3,194.9h-0.8l0.4-0.7L102.3,194.9z"
			/>
		<path class="st3" d="M106.4,191l-0.4,0.2l0.7,1.1v2l2.1-1.2l-1.7-1L106.4,191z M107.1,192.7l0.7,0.4l-0.7,0.4V192.7z"/>
		<path class="st3" d="M109.4,187.6l-0.2,0.4l1.1,0.7l1,1.7l1.2-2.1h-2L109.4,187.6z M111.6,188.7l-0.4,0.7l-0.4-0.7H111.6z"/>
		<path class="st3" d="M111.5,183.2h-1.2v0.4h1.2l1.7,1v-2.4L111.5,183.2z M112.8,183.8l-0.7-0.4l0.7-0.4V183.8z"/>
		<path class="st3" d="M110.1,178.7h2l-1.2-2.1l-1,1.7l-1.1,0.6l0.2,0.4L110.1,178.7z M110.9,177.5l0.4,0.7h-0.8L110.9,177.5z"/>
		<path class="st3" d="M106.6,175.1l1.7-1l-2.1-1.2v2l-0.6,1.1l0.4,0.2L106.6,175.1z M106.6,173.7l0.7,0.4l-0.7,0.4V173.7z"/>
		<path class="st3" d="M101.9,177.4h-2.6l1.2,2.2L101.9,177.4z M101,177.8l-0.4,0.8l-0.4-0.8H101z"/>
		<path class="st3" d="M104.3,181l-0.7-2.5l-1.8,1.8L104.3,181z M103.7,180.3l-0.9-0.2l0.7-0.7L103.7,180.3z"/>
		<path class="st3" d="M98.3,182.1l0.8-2.4l-2.5,0.5L98.3,182.1z M98,181.2l-0.6-0.7l0.9-0.2L98,181.2z"/>
		<path class="st3" d="M105.3,183.3l-2.6-0.1l1.2,2.3L105.3,183.3z M104.4,183.8l-0.4,0.8l-0.4-0.8H104.4z"/>
		<path class="st3" d="M97.8,189.2L99,187h-2.6L97.8,189.2z M97.8,188.2l-0.4-0.8h0.9L97.8,188.2z"/>
		<path class="st3" d="M95.1,182.8L95.1,182.8L95.1,182.8l0.7,2.5l1.8-1.7L95.1,182.8z M95.8,183.5l0.9,0.2l-0.7,0.7L95.8,183.5z"/>
		<path class="st3" d="M101.3,182.6l-2.1,1.4l2.3,1.2L101.3,182.6z M100.1,183.9l0.7-0.5l0.1,0.9L100.1,183.9z"/>
		<path class="st3" d="M99.8,189.1l2.4,0.9l-0.4-2.5L99.8,189.1z M100.7,188.9l0.7-0.6l0.1,0.9L100.7,188.9z"/>
		<path class="st3" d="M107.4,182.3l0.2-2.6l-2.3,1L107.4,182.3z M107,181.4l-0.7-0.5l0.8-0.4L107,181.4z"/>
		<path class="st3" d="M104.4,189.5l1.2-2.2h-2.6L104.4,189.5z M104.4,188.5l-0.4-0.8h0.9L104.4,188.5z"/>
		<path class="st3" d="M106.5,185.6l2.3-0.9l-2-1.6L106.5,185.6z M107.2,183.9l0.7,0.6l-0.9,0.4L107.2,183.9z"/>
	</g>
	<g>
		<path class="st8" d="M158.8,10.2h2.3v15.8h7.6v1.9h-9.8V10.2z"/>
		<path class="st8" d="M182.2,21.4c0,4.7-3.3,6.7-6.3,6.7c-3.4,0-6.1-2.5-6.1-6.5c0-4.3,2.8-6.7,6.3-6.7
			C179.8,14.9,182.2,17.5,182.2,21.4z M172.1,21.5c0,2.8,1.6,4.9,3.9,4.9c2.2,0,3.9-2.1,3.9-4.9c0-2.2-1.1-4.9-3.8-4.9
			S172.1,19.1,172.1,21.5z"/>
		<path class="st8" d="M185.9,15.1l1.7,6.5c0.4,1.4,0.7,2.7,0.9,4h0.1c0.3-1.3,0.7-2.7,1.1-4l2.1-6.5h1.9l2,6.4
			c0.5,1.5,0.8,2.9,1.1,4.1h0.1c0.2-1.3,0.6-2.6,1-4.1l1.8-6.4h2.3l-4.1,12.7h-2.1l-1.9-6.1c-0.4-1.4-0.8-2.7-1.1-4.2h-0.1
			c-0.3,1.5-0.7,2.8-1.2,4.2l-2,6h-2.1l-3.8-12.7H185.9z"/>
		<path class="st8" d="M225,18.8c0,6.1-3.7,9.3-8.2,9.3c-4.7,0-8-3.6-8-9c0-5.6,3.5-9.3,8.2-9.3C221.9,9.9,225,13.6,225,18.8z
			 M211.3,19.1c0,3.8,2,7.2,5.6,7.2c3.6,0,5.7-3.3,5.7-7.3c0-3.5-1.8-7.2-5.6-7.2C213.2,11.7,211.3,15.2,211.3,19.1z"/>
		<path class="st8" d="M237.1,27.4c-0.6,0.3-1.9,0.7-3.6,0.7c-3.8,0-6.3-2.6-6.3-6.5c0-3.9,2.7-6.7,6.8-6.7c1.4,0,2.6,0.3,3.2,0.7
			l-0.5,1.8c-0.6-0.3-1.4-0.6-2.7-0.6c-2.9,0-4.5,2.2-4.5,4.8c0,2.9,1.9,4.8,4.4,4.8c1.3,0,2.2-0.3,2.8-0.6L237.1,27.4z"/>
		<path class="st8" d="M248.7,27.4c-0.6,0.3-1.9,0.7-3.6,0.7c-3.8,0-6.3-2.6-6.3-6.5c0-3.9,2.7-6.7,6.8-6.7c1.4,0,2.6,0.3,3.2,0.7
			l-0.5,1.8c-0.6-0.3-1.4-0.6-2.7-0.6c-2.9,0-4.5,2.2-4.5,4.8c0,2.9,1.9,4.8,4.4,4.8c1.3,0,2.2-0.3,2.8-0.6L248.7,27.4z"/>
		<path class="st8" d="M262,24.4c0,1.3,0,2.5,0.1,3.5h-2l-0.1-2.1h-0.1c-0.6,1-1.9,2.4-4.2,2.4c-2,0-4.4-1.1-4.4-5.6v-7.4h2.3v7
			c0,2.4,0.7,4,2.8,4c1.5,0,2.6-1.1,3-2.1c0.1-0.3,0.2-0.8,0.2-1.2v-7.8h2.3V24.4z"/>
		<path class="st8" d="M265.8,19.3c0-1.6-0.1-2.9-0.1-4.1h2.1l0.1,2.2h0.1c0.9-1.5,2.4-2.5,4.5-2.5c3.1,0,5.4,2.6,5.4,6.5
			c0,4.6-2.8,6.8-5.8,6.8c-1.7,0-3.1-0.7-3.9-2h-0.1V33h-2.3V19.3z M268.1,22.7c0,0.3,0.1,0.7,0.1,0.9c0.4,1.6,1.8,2.7,3.5,2.7
			c2.4,0,3.9-2,3.9-4.9c0-2.5-1.3-4.7-3.8-4.7c-1.6,0-3,1.1-3.5,2.9c-0.1,0.3-0.2,0.6-0.2,0.9V22.7z"/>
		<path class="st8" d="M287.8,27.8l-0.2-1.6h-0.1c-0.7,1-2.1,1.9-3.9,1.9c-2.6,0-3.9-1.8-3.9-3.6c0-3.1,2.7-4.8,7.6-4.7v-0.3
			c0-1-0.3-2.9-2.9-2.9c-1.2,0-2.4,0.4-3.3,0.9l-0.5-1.5c1-0.7,2.6-1.1,4.2-1.1c3.9,0,4.8,2.7,4.8,5.2v4.8c0,1.1,0.1,2.2,0.2,3
			H287.8z M287.4,21.4c-2.5-0.1-5.4,0.4-5.4,2.9c0,1.5,1,2.2,2.2,2.2c1.7,0,2.7-1,3.1-2.1c0.1-0.2,0.1-0.5,0.1-0.7V21.4z"/>
		<path class="st8" d="M293.4,18.6c0-1.3,0-2.4-0.1-3.4h2l0.1,2.1h0.1c0.6-1.2,2.1-2.4,4.2-2.4c1.8,0,4.5,1,4.5,5.4v7.6h-2.3v-7.3
			c0-2-0.8-3.8-2.9-3.8c-1.5,0-2.7,1.1-3.1,2.4c-0.1,0.3-0.2,0.7-0.2,1.1v7.6h-2.3V18.6z"/>
		<path class="st8" d="M317,27.4c-0.6,0.3-1.9,0.7-3.6,0.7c-3.8,0-6.3-2.6-6.3-6.5c0-3.9,2.7-6.7,6.8-6.7c1.4,0,2.6,0.3,3.2,0.7
			l-0.5,1.8c-0.6-0.3-1.4-0.6-2.7-0.6c-2.9,0-4.5,2.2-4.5,4.8c0,2.9,1.9,4.8,4.4,4.8c1.3,0,2.2-0.3,2.8-0.6L317,27.4z"/>
		<path class="st8" d="M321,15.1l2.8,7.5c0.3,0.8,0.6,1.8,0.8,2.6h0.1c0.2-0.8,0.5-1.7,0.8-2.7l2.5-7.5h2.4l-3.5,9.1
			c-1.7,4.4-2.8,6.6-4.4,8c-1.1,1-2.3,1.4-2.8,1.5l-0.6-1.9c0.6-0.2,1.3-0.6,2-1.1c0.6-0.5,1.4-1.4,1.9-2.6c0.1-0.2,0.2-0.4,0.2-0.6
			c0-0.1-0.1-0.3-0.2-0.6l-4.7-11.7H321z"/>
		<path class="st8" d="M158.5,56.6c1,0.6,2.5,1.2,4.1,1.2c2.3,0,3.7-1.2,3.7-3c0-1.7-0.9-2.6-3.3-3.5c-2.9-1-4.7-2.5-4.7-5
			c0-2.8,2.3-4.8,5.7-4.8c1.8,0,3.1,0.4,3.9,0.9l-0.6,1.9c-0.6-0.3-1.8-0.8-3.4-0.8c-2.4,0-3.3,1.4-3.3,2.7c0,1.7,1.1,2.5,3.5,3.4
			c3,1.2,4.5,2.6,4.5,5.2c0,2.7-2,5.1-6.2,5.1c-1.7,0-3.6-0.5-4.5-1.1L158.5,56.6z"/>
		<path class="st8" d="M183.3,52.9c0,4.7-3.3,6.7-6.3,6.7c-3.4,0-6.1-2.5-6.1-6.5c0-4.3,2.8-6.7,6.3-6.7
			C180.8,46.3,183.3,49,183.3,52.9z M173.2,53c0,2.8,1.6,4.9,3.9,4.9c2.2,0,3.9-2.1,3.9-4.9c0-2.2-1.1-4.9-3.8-4.9
			S173.2,50.6,173.2,53z"/>
		<path class="st8" d="M195.3,58.9c-0.6,0.3-1.9,0.7-3.6,0.7c-3.8,0-6.3-2.6-6.3-6.5c0-3.9,2.7-6.7,6.8-6.7c1.4,0,2.6,0.3,3.2,0.7
			l-0.5,1.8c-0.6-0.3-1.4-0.6-2.7-0.6c-2.9,0-4.5,2.2-4.5,4.8c0,2.9,1.9,4.8,4.4,4.8c1.3,0,2.2-0.3,2.8-0.6L195.3,58.9z"/>
		<path class="st8" d="M200.5,43.1c0,0.8-0.6,1.4-1.5,1.4c-0.8,0-1.4-0.6-1.4-1.4c0-0.8,0.6-1.4,1.4-1.4
			C200,41.6,200.5,42.3,200.5,43.1z M198,59.3V46.6h2.3v12.7H198z"/>
		<path class="st8" d="M211.1,59.3l-0.2-1.6h-0.1c-0.7,1-2.1,1.9-3.9,1.9c-2.6,0-3.9-1.8-3.9-3.6c0-3.1,2.7-4.8,7.6-4.7V51
			c0-1-0.3-2.9-2.9-2.9c-1.2,0-2.4,0.4-3.3,0.9l-0.5-1.5c1-0.7,2.6-1.1,4.2-1.1c3.9,0,4.8,2.7,4.8,5.2v4.8c0,1.1,0.1,2.2,0.2,3
			H211.1z M210.8,52.9c-2.5-0.1-5.4,0.4-5.4,2.9c0,1.5,1,2.2,2.2,2.2c1.7,0,2.7-1,3.1-2.1c0.1-0.2,0.1-0.5,0.1-0.7V52.9z"/>
		<path class="st8" d="M216.8,40.7h2.3v18.6h-2.3V40.7z"/>
		<path class="st8" d="M228.6,41.9c1.4-0.2,3-0.4,4.9-0.4c3.3,0,5.6,0.8,7.2,2.2c1.6,1.4,2.5,3.5,2.5,6.4c0,2.9-0.9,5.2-2.5,6.9
			c-1.7,1.7-4.4,2.5-7.8,2.5c-1.6,0-3-0.1-4.1-0.2V41.9z M230.9,57.5c0.6,0.1,1.4,0.1,2.3,0.1c4.9,0,7.5-2.7,7.5-7.5
			c0-4.2-2.3-6.8-7.2-6.8c-1.2,0-2.1,0.1-2.7,0.2V57.5z"/>
		<path class="st8" d="M248.6,43.1c0,0.8-0.6,1.4-1.5,1.4c-0.8,0-1.4-0.6-1.4-1.4c0-0.8,0.6-1.4,1.4-1.4
			C248,41.6,248.6,42.3,248.6,43.1z M246,59.3V46.6h2.3v12.7H246z"/>
		<path class="st8" d="M251.8,57c0.7,0.4,1.9,0.9,3,0.9c1.7,0,2.5-0.8,2.5-1.9c0-1.1-0.7-1.7-2.4-2.3c-2.3-0.8-3.4-2.1-3.4-3.6
			c0-2,1.7-3.7,4.4-3.7c1.3,0,2.4,0.4,3.1,0.8l-0.6,1.7c-0.5-0.3-1.4-0.7-2.6-0.7c-1.4,0-2.1,0.8-2.1,1.7c0,1,0.8,1.5,2.4,2.2
			c2.2,0.8,3.3,1.9,3.3,3.8c0,2.2-1.7,3.8-4.8,3.8c-1.4,0-2.7-0.3-3.6-0.9L251.8,57z"/>
		<path class="st8" d="M265.3,43v3.6h3.3v1.8h-3.3v6.9c0,1.6,0.4,2.5,1.7,2.5c0.6,0,1-0.1,1.3-0.2l0.1,1.7c-0.4,0.2-1.2,0.3-2,0.3
			c-1.1,0-1.9-0.3-2.5-1c-0.7-0.7-0.9-1.8-0.9-3.3v-6.9h-2v-1.8h2v-3L265.3,43z"/>
		<path class="st8" d="M278.2,59.3l-0.2-1.6H278c-0.7,1-2.1,1.9-3.9,1.9c-2.6,0-3.9-1.8-3.9-3.6c0-3.1,2.7-4.8,7.6-4.7V51
			c0-1-0.3-2.9-2.9-2.9c-1.2,0-2.4,0.4-3.3,0.9l-0.5-1.5c1-0.7,2.6-1.1,4.2-1.1c3.9,0,4.8,2.7,4.8,5.2v4.8c0,1.1,0.1,2.2,0.2,3
			H278.2z M277.9,52.9c-2.5-0.1-5.4,0.4-5.4,2.9c0,1.5,1,2.2,2.2,2.2c1.7,0,2.7-1,3.1-2.1c0.1-0.2,0.1-0.5,0.1-0.7V52.9z"/>
		<path class="st8" d="M283.9,50.1c0-1.3,0-2.4-0.1-3.4h2l0.1,2.1h0.1c0.6-1.2,2.1-2.4,4.2-2.4c1.8,0,4.5,1,4.5,5.4v7.6h-2.3V52
			c0-2-0.8-3.8-2.9-3.8c-1.5,0-2.7,1.1-3.1,2.4c-0.1,0.3-0.2,0.7-0.2,1.1v7.6h-2.3V50.1z"/>
		<path class="st8" d="M307.5,58.9c-0.6,0.3-1.9,0.7-3.6,0.7c-3.8,0-6.3-2.6-6.3-6.5c0-3.9,2.7-6.7,6.8-6.7c1.4,0,2.6,0.3,3.2,0.7
			l-0.5,1.8c-0.6-0.3-1.4-0.6-2.7-0.6c-2.9,0-4.5,2.2-4.5,4.8c0,2.9,1.9,4.8,4.4,4.8c1.3,0,2.2-0.3,2.8-0.6L307.5,58.9z"/>
		<path class="st8" d="M312.7,43.1c0,0.8-0.6,1.4-1.5,1.4c-0.8,0-1.4-0.6-1.4-1.4c0-0.8,0.6-1.4,1.4-1.4
			C312.2,41.6,312.7,42.3,312.7,43.1z M310.2,59.3V46.6h2.3v12.7H310.2z"/>
		<path class="st8" d="M316.3,50.1c0-1.3,0-2.4-0.1-3.4h2l0.1,2.1h0.1c0.6-1.2,2.1-2.4,4.2-2.4c1.8,0,4.5,1,4.5,5.4v7.6h-2.3V52
			c0-2-0.8-3.8-2.9-3.8c-1.5,0-2.7,1.1-3.1,2.4c-0.1,0.3-0.2,0.7-0.2,1.1v7.6h-2.3V50.1z"/>
		<path class="st8" d="M341.8,46.6c-0.1,0.9-0.1,1.9-0.1,3.5v7.4c0,2.9-0.6,4.7-1.8,5.8c-1.2,1.2-3,1.5-4.6,1.5
			c-1.5,0-3.2-0.4-4.2-1l0.6-1.8c0.8,0.5,2.2,1,3.7,1c2.4,0,4.1-1.2,4.1-4.4v-1.4h-0.1c-0.7,1.2-2.1,2.1-4,2.1
			c-3.2,0-5.4-2.7-5.4-6.2c0-4.3,2.8-6.7,5.7-6.7c2.2,0,3.4,1.2,4,2.2h0.1l0.1-1.9H341.8z M339.4,51.6c0-0.4,0-0.7-0.1-1
			c-0.4-1.3-1.5-2.4-3.2-2.4c-2.2,0-3.8,1.9-3.8,4.8c0,2.5,1.3,4.6,3.8,4.6c1.4,0,2.7-0.9,3.2-2.4c0.1-0.4,0.2-0.8,0.2-1.2V51.6z"/>
		<path class="st8" d="M351.2,41.9c1.1-0.2,2.5-0.3,4.4-0.3c2.3,0,3.9,0.5,5,1.5c1,0.8,1.5,2.1,1.5,3.7c0,1.6-0.5,2.9-1.4,3.8
			c-1.2,1.3-3.2,1.9-5.4,1.9c-0.7,0-1.3,0-1.8-0.2v7.1h-2.3V41.9z M353.5,50.4c0.5,0.1,1.1,0.2,1.9,0.2c2.8,0,4.4-1.3,4.4-3.8
			c0-2.3-1.7-3.5-4.2-3.5c-1,0-1.8,0.1-2.2,0.2V50.4z"/>
		<path class="st8" d="M375.9,52.9c0,4.7-3.3,6.7-6.3,6.7c-3.4,0-6.1-2.5-6.1-6.5c0-4.3,2.8-6.7,6.3-6.7
			C373.4,46.3,375.9,49,375.9,52.9z M365.8,53c0,2.8,1.6,4.9,3.9,4.9c2.2,0,3.9-2.1,3.9-4.9c0-2.2-1.1-4.9-3.8-4.9
			C367,48.1,365.8,50.6,365.8,53z"/>
		<path class="st8" d="M378.5,57c0.7,0.4,1.9,0.9,3,0.9c1.7,0,2.5-0.8,2.5-1.9c0-1.1-0.7-1.7-2.4-2.3c-2.3-0.8-3.4-2.1-3.4-3.6
			c0-2,1.7-3.7,4.4-3.7c1.3,0,2.4,0.4,3.1,0.8l-0.6,1.7c-0.5-0.3-1.4-0.7-2.6-0.7c-1.4,0-2.1,0.8-2.1,1.7c0,1,0.8,1.5,2.4,2.2
			c2.2,0.8,3.3,1.9,3.3,3.8c0,2.2-1.7,3.8-4.8,3.8c-1.4,0-2.7-0.3-3.6-0.9L378.5,57z"/>
		<path class="st8" d="M388.9,57c0.7,0.4,1.9,0.9,3,0.9c1.7,0,2.5-0.8,2.5-1.9c0-1.1-0.7-1.7-2.4-2.3c-2.3-0.8-3.4-2.1-3.4-3.6
			c0-2,1.7-3.7,4.4-3.7c1.3,0,2.4,0.4,3.1,0.8l-0.6,1.7c-0.5-0.3-1.4-0.7-2.6-0.7c-1.4,0-2.1,0.8-2.1,1.7c0,1,0.8,1.5,2.4,2.2
			c2.2,0.8,3.3,1.9,3.3,3.8c0,2.2-1.7,3.8-4.8,3.8c-1.4,0-2.7-0.3-3.6-0.9L388.9,57z"/>
		<path class="st8" d="M402.2,43.1c0,0.8-0.6,1.4-1.5,1.4c-0.8,0-1.4-0.6-1.4-1.4c0-0.8,0.6-1.4,1.4-1.4
			C401.6,41.6,402.2,42.3,402.2,43.1z M399.6,59.3V46.6h2.3v12.7H399.6z"/>
		<path class="st8" d="M405.6,59.3c0.1-0.9,0.1-2.2,0.1-3.3V40.7h2.3v8h0.1c0.8-1.4,2.3-2.3,4.3-2.3c3.1,0,5.4,2.6,5.4,6.5
			c0,4.5-2.9,6.8-5.7,6.8c-1.8,0-3.3-0.7-4.3-2.4h-0.1l-0.1,2.1H405.6z M408,54.2c0,0.3,0.1,0.6,0.1,0.8c0.4,1.6,1.8,2.7,3.5,2.7
			c2.4,0,3.9-2,3.9-4.9c0-2.5-1.3-4.7-3.8-4.7c-1.6,0-3,1.1-3.5,2.8c-0.1,0.3-0.1,0.6-0.1,0.9V54.2z"/>
		<path class="st8" d="M420.7,40.7h2.3v18.6h-2.3V40.7z"/>
		<path class="st8" d="M428.2,53.4c0.1,3.1,2,4.4,4.4,4.4c1.7,0,2.7-0.3,3.5-0.7l0.4,1.7c-0.8,0.4-2.2,0.8-4.2,0.8
			c-3.9,0-6.2-2.6-6.2-6.4c0-3.8,2.3-6.8,6-6.8c4.1,0,5.2,3.6,5.2,6c0,0.5-0.1,0.8-0.1,1.1H428.2z M434.9,51.8
			c0-1.5-0.6-3.8-3.2-3.8c-2.3,0-3.4,2.2-3.5,3.8H434.9z"/>
	</g>
	<g>
		<path class="st9" d="M173.7,108.9c-0.1-2.5-0.3-5.4-0.3-7.6h-0.1c-0.6,2.1-1.3,4.3-2.2,6.7l-3.1,8.6h-1.7l-2.9-8.4
			c-0.8-2.5-1.5-4.8-2-6.9h-0.1c-0.1,2.2-0.2,5.2-0.3,7.8l-0.5,7.6h-2.2l1.2-17.7h2.9l3,8.6c0.7,2.2,1.3,4.1,1.8,6h0.1
			c0.4-1.8,1.1-3.7,1.9-6l3.1-8.6h2.9l1.1,17.7h-2.2L173.7,108.9z"/>
		<path class="st9" d="M181.2,110.7c0.1,3.1,2,4.4,4.4,4.4c1.7,0,2.7-0.3,3.5-0.7l0.4,1.7c-0.8,0.4-2.2,0.8-4.2,0.8
			c-3.9,0-6.2-2.6-6.2-6.4c0-3.8,2.3-6.8,6-6.8c4.1,0,5.2,3.6,5.2,6c0,0.5-0.1,0.8-0.1,1.1H181.2z M188,109.1c0-1.5-0.6-3.8-3.2-3.8
			c-2.3,0-3.4,2.2-3.5,3.8H188z"/>
		<path class="st9" d="M204.1,98v15.4c0,1.1,0,2.4,0.1,3.3h-2.1l-0.1-2.2H202c-0.7,1.4-2.3,2.5-4.3,2.5c-3.1,0-5.4-2.6-5.4-6.5
			c0-4.2,2.6-6.8,5.7-6.8c1.9,0,3.3,0.9,3.8,1.9h0.1V98H204.1z M201.8,109.1c0-0.3,0-0.7-0.1-1c-0.3-1.5-1.6-2.7-3.3-2.7
			c-2.4,0-3.8,2.1-3.8,4.9c0,2.6,1.3,4.7,3.8,4.7c1.5,0,3-1,3.4-2.8c0.1-0.3,0.1-0.6,0.1-1V109.1z"/>
		<path class="st9" d="M210.5,100.4c0,0.8-0.6,1.4-1.5,1.4c-0.8,0-1.4-0.6-1.4-1.4c0-0.8,0.6-1.4,1.4-1.4
			C209.9,98.9,210.5,99.6,210.5,100.4z M207.9,116.6v-12.7h2.3v12.7H207.9z"/>
		<path class="st9" d="M224.7,113.2c0,1.3,0,2.5,0.1,3.5h-2l-0.1-2.1h-0.1c-0.6,1-1.9,2.4-4.2,2.4c-2,0-4.4-1.1-4.4-5.6v-7.4h2.3v7
			c0,2.4,0.7,4,2.8,4c1.5,0,2.6-1.1,3-2.1c0.1-0.3,0.2-0.8,0.2-1.2v-7.8h2.3V113.2z"/>
		<path class="st9" d="M228.5,107.4c0-1.3,0-2.4-0.1-3.4h2l0.1,2h0.1c0.7-1.2,1.9-2.3,4-2.3c1.7,0,3,1,3.6,2.5h0.1
			c0.4-0.7,0.9-1.3,1.4-1.7c0.8-0.6,1.6-0.9,2.8-0.9c1.7,0,4.2,1.1,4.2,5.5v7.5h-2.3v-7.2c0-2.4-0.9-3.9-2.8-3.9
			c-1.3,0-2.3,1-2.7,2.1c-0.1,0.3-0.2,0.7-0.2,1.2v7.8h-2.3V109c0-2-0.9-3.5-2.7-3.5c-1.4,0-2.5,1.2-2.9,2.3
			c-0.1,0.3-0.2,0.7-0.2,1.1v7.7h-2.3V107.4z"/>
		<path class="st9" d="M271.2,107.6c0,6.1-3.7,9.3-8.2,9.3c-4.7,0-8-3.6-8-9c0-5.6,3.5-9.3,8.2-9.3
			C268,98.7,271.2,102.4,271.2,107.6z M257.4,107.9c0,3.8,2,7.2,5.6,7.2c3.6,0,5.7-3.3,5.7-7.3c0-3.5-1.8-7.2-5.6-7.2
			C259.3,100.5,257.4,104,257.4,107.9z"/>
		<path class="st9" d="M283.2,116.2c-0.6,0.3-1.9,0.7-3.6,0.7c-3.8,0-6.3-2.6-6.3-6.5c0-3.9,2.7-6.7,6.8-6.7c1.4,0,2.6,0.3,3.2,0.7
			l-0.5,1.8c-0.6-0.3-1.4-0.6-2.7-0.6c-2.9,0-4.5,2.2-4.5,4.8c0,2.9,1.9,4.8,4.4,4.8c1.3,0,2.2-0.3,2.8-0.6L283.2,116.2z"/>
		<path class="st9" d="M294.8,116.2c-0.6,0.3-1.9,0.7-3.6,0.7c-3.8,0-6.3-2.6-6.3-6.5c0-3.9,2.7-6.7,6.8-6.7c1.4,0,2.6,0.3,3.2,0.7
			l-0.5,1.8c-0.6-0.3-1.4-0.6-2.7-0.6c-2.9,0-4.5,2.2-4.5,4.8c0,2.9,1.9,4.8,4.4,4.8c1.3,0,2.2-0.3,2.8-0.6L294.8,116.2z"/>
		<path class="st9" d="M308.1,113.2c0,1.3,0,2.5,0.1,3.5h-2l-0.1-2.1H306c-0.6,1-1.9,2.4-4.2,2.4c-2,0-4.4-1.1-4.4-5.6v-7.4h2.3v7
			c0,2.4,0.7,4,2.8,4c1.5,0,2.6-1.1,3-2.1c0.1-0.3,0.2-0.8,0.2-1.2v-7.8h2.3V113.2z"/>
		<path class="st9" d="M312,108.1c0-1.6-0.1-2.9-0.1-4.1h2.1l0.1,2.2h0.1c0.9-1.5,2.4-2.5,4.5-2.5c3.1,0,5.4,2.6,5.4,6.5
			c0,4.6-2.8,6.8-5.8,6.8c-1.7,0-3.1-0.7-3.9-2h-0.1v6.9H312V108.1z M314.2,111.5c0,0.3,0.1,0.7,0.1,0.9c0.4,1.6,1.8,2.7,3.5,2.7
			c2.4,0,3.9-2,3.9-4.9c0-2.5-1.3-4.7-3.8-4.7c-1.6,0-3,1.1-3.5,2.9c-0.1,0.3-0.2,0.6-0.2,0.9V111.5z"/>
		<path class="st9" d="M333.9,116.6l-0.2-1.6h-0.1c-0.7,1-2.1,1.9-3.9,1.9c-2.6,0-3.9-1.8-3.9-3.6c0-3.1,2.7-4.8,7.6-4.7v-0.3
			c0-1-0.3-2.9-2.9-2.9c-1.2,0-2.4,0.4-3.3,0.9l-0.5-1.5c1-0.7,2.6-1.1,4.2-1.1c3.9,0,4.8,2.7,4.8,5.2v4.8c0,1.1,0.1,2.2,0.2,3
			H333.9z M333.6,110.2c-2.5-0.1-5.4,0.4-5.4,2.9c0,1.5,1,2.2,2.2,2.2c1.7,0,2.7-1,3.1-2.1c0.1-0.2,0.1-0.5,0.1-0.7V110.2z"/>
		<path class="st9" d="M339.5,107.4c0-1.3,0-2.4-0.1-3.4h2l0.1,2.1h0.1c0.6-1.2,2.1-2.4,4.2-2.4c1.8,0,4.5,1,4.5,5.4v7.6H348v-7.3
			c0-2-0.8-3.8-2.9-3.8c-1.5,0-2.7,1.1-3.1,2.4c-0.1,0.3-0.2,0.7-0.2,1.1v7.6h-2.3V107.4z"/>
		<path class="st9" d="M363.2,116.2c-0.6,0.3-1.9,0.7-3.6,0.7c-3.8,0-6.3-2.6-6.3-6.5c0-3.9,2.7-6.7,6.8-6.7c1.4,0,2.6,0.3,3.2,0.7
			l-0.5,1.8c-0.6-0.3-1.4-0.6-2.7-0.6c-2.9,0-4.5,2.2-4.5,4.8c0,2.9,1.9,4.8,4.4,4.8c1.3,0,2.2-0.3,2.8-0.6L363.2,116.2z"/>
		<path class="st9" d="M367.2,103.9l2.8,7.5c0.3,0.8,0.6,1.8,0.8,2.6h0.1c0.2-0.8,0.5-1.7,0.8-2.7l2.5-7.5h2.4l-3.5,9.1
			c-1.7,4.4-2.8,6.6-4.4,8c-1.1,1-2.3,1.4-2.8,1.5l-0.6-1.9c0.6-0.2,1.3-0.6,2-1.1c0.6-0.5,1.4-1.4,1.9-2.6c0.1-0.2,0.2-0.4,0.2-0.6
			c0-0.1-0.1-0.3-0.2-0.6l-4.7-11.7H367.2z"/>
		<path class="st9" d="M158.5,145.4c1,0.6,2.5,1.2,4.1,1.2c2.3,0,3.7-1.2,3.7-3c0-1.7-0.9-2.6-3.3-3.5c-2.9-1-4.7-2.5-4.7-5
			c0-2.8,2.3-4.8,5.7-4.8c1.8,0,3.1,0.4,3.9,0.9l-0.6,1.9c-0.6-0.3-1.8-0.8-3.4-0.8c-2.4,0-3.3,1.4-3.3,2.7c0,1.7,1.1,2.5,3.5,3.4
			c3,1.2,4.5,2.6,4.5,5.2c0,2.7-2,5.1-6.2,5.1c-1.7,0-3.6-0.5-4.5-1.1L158.5,145.4z"/>
		<path class="st9" d="M183.3,141.7c0,4.7-3.3,6.7-6.3,6.7c-3.4,0-6.1-2.5-6.1-6.5c0-4.3,2.8-6.7,6.3-6.7
			C180.8,135.1,183.3,137.8,183.3,141.7z M173.2,141.8c0,2.8,1.6,4.9,3.9,4.9c2.2,0,3.9-2.1,3.9-4.9c0-2.2-1.1-4.9-3.8-4.9
			S173.2,139.4,173.2,141.8z"/>
		<path class="st9" d="M195.3,147.7c-0.6,0.3-1.9,0.7-3.6,0.7c-3.8,0-6.3-2.6-6.3-6.5c0-3.9,2.7-6.7,6.8-6.7c1.4,0,2.6,0.3,3.2,0.7
			l-0.5,1.8c-0.6-0.3-1.4-0.6-2.7-0.6c-2.9,0-4.5,2.2-4.5,4.8c0,2.9,1.9,4.8,4.4,4.8c1.3,0,2.2-0.3,2.8-0.6L195.3,147.7z"/>
		<path class="st9" d="M200.5,131.9c0,0.8-0.6,1.4-1.5,1.4c-0.8,0-1.4-0.6-1.4-1.4c0-0.8,0.6-1.4,1.4-1.4
			C200,130.4,200.5,131,200.5,131.9z M198,148.1v-12.7h2.3v12.7H198z"/>
		<path class="st9" d="M211.1,148.1l-0.2-1.6h-0.1c-0.7,1-2.1,1.9-3.9,1.9c-2.6,0-3.9-1.8-3.9-3.6c0-3.1,2.7-4.8,7.6-4.7v-0.3
			c0-1-0.3-2.9-2.9-2.9c-1.2,0-2.4,0.4-3.3,0.9l-0.5-1.5c1-0.7,2.6-1.1,4.2-1.1c3.9,0,4.8,2.7,4.8,5.2v4.8c0,1.1,0.1,2.2,0.2,3
			H211.1z M210.8,141.7c-2.5-0.1-5.4,0.4-5.4,2.9c0,1.5,1,2.2,2.2,2.2c1.7,0,2.7-1,3.1-2.1c0.1-0.2,0.1-0.5,0.1-0.7V141.7z"/>
		<path class="st9" d="M216.8,129.5h2.3v18.6h-2.3V129.5z"/>
		<path class="st9" d="M228.6,130.7c1.4-0.2,3-0.4,4.9-0.4c3.3,0,5.6,0.8,7.2,2.2c1.6,1.4,2.5,3.5,2.5,6.4c0,2.9-0.9,5.2-2.5,6.9
			c-1.7,1.7-4.4,2.5-7.8,2.5c-1.6,0-3-0.1-4.1-0.2V130.7z M230.9,146.3c0.6,0.1,1.4,0.1,2.3,0.1c4.9,0,7.5-2.7,7.5-7.5
			c0-4.2-2.3-6.8-7.2-6.8c-1.2,0-2.1,0.1-2.7,0.2V146.3z"/>
		<path class="st9" d="M248.6,131.9c0,0.8-0.6,1.4-1.5,1.4c-0.8,0-1.4-0.6-1.4-1.4c0-0.8,0.6-1.4,1.4-1.4
			C248,130.4,248.6,131,248.6,131.9z M246,148.1v-12.7h2.3v12.7H246z"/>
		<path class="st9" d="M251.8,145.8c0.7,0.4,1.9,0.9,3,0.9c1.7,0,2.5-0.8,2.5-1.9c0-1.1-0.7-1.7-2.4-2.3c-2.3-0.8-3.4-2.1-3.4-3.6
			c0-2,1.7-3.7,4.4-3.7c1.3,0,2.4,0.4,3.1,0.8l-0.6,1.7c-0.5-0.3-1.4-0.7-2.6-0.7c-1.4,0-2.1,0.8-2.1,1.7c0,1,0.8,1.5,2.4,2.2
			c2.2,0.8,3.3,1.9,3.3,3.8c0,2.2-1.7,3.8-4.8,3.8c-1.4,0-2.7-0.3-3.6-0.9L251.8,145.8z"/>
		<path class="st9" d="M265.3,131.8v3.6h3.3v1.8h-3.3v6.9c0,1.6,0.4,2.5,1.7,2.5c0.6,0,1-0.1,1.3-0.2l0.1,1.7
			c-0.4,0.2-1.2,0.3-2,0.3c-1.1,0-1.9-0.3-2.5-1c-0.7-0.7-0.9-1.8-0.9-3.3v-6.9h-2v-1.8h2v-3L265.3,131.8z"/>
		<path class="st9" d="M278.2,148.1l-0.2-1.6H278c-0.7,1-2.1,1.9-3.9,1.9c-2.6,0-3.9-1.8-3.9-3.6c0-3.1,2.7-4.8,7.6-4.7v-0.3
			c0-1-0.3-2.9-2.9-2.9c-1.2,0-2.4,0.4-3.3,0.9l-0.5-1.5c1-0.7,2.6-1.1,4.2-1.1c3.9,0,4.8,2.7,4.8,5.2v4.8c0,1.1,0.1,2.2,0.2,3
			H278.2z M277.9,141.7c-2.5-0.1-5.4,0.4-5.4,2.9c0,1.5,1,2.2,2.2,2.2c1.7,0,2.7-1,3.1-2.1c0.1-0.2,0.1-0.5,0.1-0.7V141.7z"/>
		<path class="st9" d="M283.9,138.9c0-1.3,0-2.4-0.1-3.4h2l0.1,2.1h0.1c0.6-1.2,2.1-2.4,4.2-2.4c1.8,0,4.5,1,4.5,5.4v7.6h-2.3v-7.3
			c0-2-0.8-3.8-2.9-3.8c-1.5,0-2.7,1.1-3.1,2.4c-0.1,0.3-0.2,0.7-0.2,1.1v7.6h-2.3V138.9z"/>
		<path class="st9" d="M307.5,147.7c-0.6,0.3-1.9,0.7-3.6,0.7c-3.8,0-6.3-2.6-6.3-6.5c0-3.9,2.7-6.7,6.8-6.7c1.4,0,2.6,0.3,3.2,0.7
			l-0.5,1.8c-0.6-0.3-1.4-0.6-2.7-0.6c-2.9,0-4.5,2.2-4.5,4.8c0,2.9,1.9,4.8,4.4,4.8c1.3,0,2.2-0.3,2.8-0.6L307.5,147.7z"/>
		<path class="st9" d="M312.7,131.9c0,0.8-0.6,1.4-1.5,1.4c-0.8,0-1.4-0.6-1.4-1.4c0-0.8,0.6-1.4,1.4-1.4
			C312.2,130.4,312.7,131,312.7,131.9z M310.2,148.1v-12.7h2.3v12.7H310.2z"/>
		<path class="st9" d="M316.3,138.9c0-1.3,0-2.4-0.1-3.4h2l0.1,2.1h0.1c0.6-1.2,2.1-2.4,4.2-2.4c1.8,0,4.5,1,4.5,5.4v7.6h-2.3v-7.3
			c0-2-0.8-3.8-2.9-3.8c-1.5,0-2.7,1.1-3.1,2.4c-0.1,0.3-0.2,0.7-0.2,1.1v7.6h-2.3V138.9z"/>
		<path class="st9" d="M341.8,135.4c-0.1,0.9-0.1,1.9-0.1,3.5v7.4c0,2.9-0.6,4.7-1.8,5.8c-1.2,1.2-3,1.5-4.6,1.5
			c-1.5,0-3.2-0.4-4.2-1l0.6-1.8c0.8,0.5,2.2,1,3.7,1c2.4,0,4.1-1.2,4.1-4.4V146h-0.1c-0.7,1.2-2.1,2.1-4,2.1
			c-3.2,0-5.4-2.7-5.4-6.2c0-4.3,2.8-6.7,5.7-6.7c2.2,0,3.4,1.2,4,2.2h0.1l0.1-1.9H341.8z M339.4,140.4c0-0.4,0-0.7-0.1-1
			c-0.4-1.3-1.5-2.4-3.2-2.4c-2.2,0-3.8,1.9-3.8,4.8c0,2.5,1.3,4.6,3.8,4.6c1.4,0,2.7-0.9,3.2-2.4c0.1-0.4,0.2-0.8,0.2-1.2V140.4z"
			/>
		<path class="st9" d="M351.2,130.4h2.3v15.8h7.6v1.9h-9.8V130.4z"/>
		<path class="st9" d="M366.1,131.9c0,0.8-0.6,1.4-1.5,1.4c-0.8,0-1.4-0.6-1.4-1.4c0-0.8,0.6-1.4,1.4-1.4
			C365.5,130.4,366.1,131,366.1,131.9z M363.5,148.1v-12.7h2.3v12.7H363.5z"/>
		<path class="st9" d="M371.9,141.3L371.9,141.3c0.4-0.4,0.8-1,1.2-1.4l3.7-4.4h2.8l-4.9,5.2l5.6,7.5h-2.8l-4.4-6.1l-1.2,1.3v4.8
			h-2.3v-18.6h2.3V141.3z"/>
		<path class="st9" d="M383.2,142.2c0.1,3.1,2,4.4,4.4,4.4c1.7,0,2.7-0.3,3.5-0.7l0.4,1.7c-0.8,0.4-2.2,0.8-4.2,0.8
			c-3.9,0-6.2-2.6-6.2-6.4c0-3.8,2.3-6.8,6-6.8c4.1,0,5.2,3.6,5.2,6c0,0.5-0.1,0.8-0.1,1.1H383.2z M390,140.5c0-1.5-0.6-3.8-3.2-3.8
			c-2.3,0-3.4,2.2-3.5,3.8H390z"/>
		<path class="st9" d="M395.1,129.5h2.3v18.6h-2.3V129.5z"/>
		<path class="st9" d="M402.1,135.4l2.8,7.5c0.3,0.8,0.6,1.8,0.8,2.6h0.1c0.2-0.8,0.5-1.7,0.8-2.7l2.5-7.5h2.4l-3.5,9.1
			c-1.7,4.4-2.8,6.6-4.4,8c-1.1,1-2.3,1.4-2.8,1.5l-0.6-1.9c0.6-0.2,1.3-0.6,2-1.1c0.6-0.5,1.4-1.4,1.9-2.6c0.1-0.2,0.2-0.4,0.2-0.6
			c0-0.1-0.1-0.3-0.2-0.6l-4.7-11.7H402.1z"/>
	</g>
	<g>
		<path class="st10" d="M161.1,181.4v7.4h8.6v-7.4h2.3v17.7h-2.3v-8.3h-8.6v8.3h-2.3v-17.7H161.1z"/>
		<path class="st10" d="M178.7,182.8c0,0.8-0.6,1.4-1.5,1.4c-0.8,0-1.4-0.6-1.4-1.4c0-0.8,0.6-1.4,1.4-1.4
			C178.1,181.4,178.7,182,178.7,182.8z M176.1,199.1v-12.7h2.3v12.7H176.1z"/>
		<path class="st10" d="M193.2,186.4c-0.1,0.9-0.1,1.9-0.1,3.5v7.4c0,2.9-0.6,4.7-1.8,5.8c-1.2,1.2-3,1.5-4.6,1.5
			c-1.5,0-3.2-0.4-4.2-1l0.6-1.8c0.8,0.5,2.2,1,3.7,1c2.4,0,4.1-1.2,4.1-4.4v-1.4h-0.1c-0.7,1.2-2.1,2.1-4,2.1
			c-3.1,0-5.4-2.7-5.4-6.2c0-4.3,2.8-6.7,5.7-6.7c2.2,0,3.4,1.2,4,2.2h0.1l0.1-1.9H193.2z M190.8,191.4c0-0.4,0-0.7-0.1-1
			c-0.4-1.3-1.5-2.4-3.2-2.4c-2.2,0-3.8,1.9-3.8,4.8c0,2.5,1.3,4.6,3.8,4.6c1.4,0,2.7-0.9,3.2-2.4c0.1-0.4,0.2-0.8,0.2-1.2V191.4z"
			/>
		<path class="st10" d="M196.9,180.4h2.3v7.9h0.1c0.4-0.7,0.9-1.2,1.7-1.6c0.7-0.4,1.5-0.7,2.4-0.7c1.7,0,4.4,1,4.4,5.4v7.6h-2.3
			v-7.3c0-2-0.8-3.8-2.9-3.8c-1.5,0-2.7,1-3.1,2.3c-0.1,0.3-0.2,0.7-0.2,1.1v7.7h-2.3V180.4z"/>
		<path class="st10" d="M232.2,190c0,6.1-3.7,9.3-8.2,9.3c-4.7,0-8-3.6-8-9c0-5.6,3.5-9.3,8.2-9.3
			C229.1,181.1,232.2,184.8,232.2,190z M218.5,190.3c0,3.8,2,7.2,5.6,7.2c3.6,0,5.7-3.3,5.7-7.3c0-3.5-1.8-7.2-5.6-7.2
			C220.4,183,218.5,186.5,218.5,190.3z"/>
		<path class="st10" d="M244.3,198.6c-0.6,0.3-1.9,0.7-3.6,0.7c-3.8,0-6.3-2.6-6.3-6.5c0-3.9,2.7-6.7,6.8-6.7c1.4,0,2.6,0.3,3.2,0.7
			l-0.5,1.8c-0.6-0.3-1.4-0.6-2.7-0.6c-2.9,0-4.5,2.2-4.5,4.8c0,2.9,1.9,4.8,4.4,4.8c1.3,0,2.2-0.3,2.8-0.6L244.3,198.6z"/>
		<path class="st10" d="M255.9,198.6c-0.6,0.3-1.9,0.7-3.6,0.7c-3.8,0-6.3-2.6-6.3-6.5c0-3.9,2.7-6.7,6.8-6.7c1.4,0,2.6,0.3,3.2,0.7
			l-0.5,1.8c-0.6-0.3-1.4-0.6-2.7-0.6c-2.9,0-4.5,2.2-4.5,4.8c0,2.9,1.9,4.8,4.4,4.8c1.3,0,2.2-0.3,2.8-0.6L255.9,198.6z"/>
		<path class="st10" d="M269.2,195.6c0,1.3,0,2.5,0.1,3.5h-2l-0.1-2.1h-0.1c-0.6,1-1.9,2.4-4.2,2.4c-2,0-4.4-1.1-4.4-5.6v-7.4h2.3v7
			c0,2.4,0.7,4,2.8,4c1.5,0,2.6-1.1,3-2.1c0.1-0.3,0.2-0.8,0.2-1.2v-7.8h2.3V195.6z"/>
		<path class="st10" d="M273,190.5c0-1.6-0.1-2.9-0.1-4.1h2.1l0.1,2.2h0.1c0.9-1.5,2.4-2.5,4.5-2.5c3.1,0,5.4,2.6,5.4,6.5
			c0,4.6-2.8,6.8-5.8,6.8c-1.7,0-3.1-0.7-3.9-2h-0.1v6.9H273V190.5z M275.3,193.9c0,0.3,0.1,0.7,0.1,0.9c0.4,1.6,1.8,2.7,3.5,2.7
			c2.4,0,3.9-2,3.9-4.9c0-2.5-1.3-4.7-3.8-4.7c-1.6,0-3,1.1-3.5,2.9c-0.1,0.3-0.2,0.6-0.2,0.9V193.9z"/>
		<path class="st10" d="M295,199.1l-0.2-1.6h-0.1c-0.7,1-2.1,1.9-3.9,1.9c-2.6,0-3.9-1.8-3.9-3.6c0-3.1,2.7-4.8,7.6-4.7v-0.3
			c0-1-0.3-2.9-2.9-2.9c-1.2,0-2.4,0.4-3.3,0.9l-0.5-1.5c1-0.7,2.6-1.1,4.2-1.1c3.9,0,4.8,2.7,4.8,5.2v4.8c0,1.1,0.1,2.2,0.2,3H295z
			 M294.6,192.6c-2.5-0.1-5.4,0.4-5.4,2.9c0,1.5,1,2.2,2.2,2.2c1.7,0,2.7-1,3.1-2.1c0.1-0.2,0.1-0.5,0.1-0.7V192.6z"/>
		<path class="st10" d="M300.6,189.8c0-1.3,0-2.4-0.1-3.4h2l0.1,2.1h0.1c0.6-1.2,2.1-2.4,4.2-2.4c1.8,0,4.5,1,4.5,5.4v7.6h-2.3v-7.3
			c0-2-0.8-3.8-2.9-3.8c-1.5,0-2.7,1.1-3.1,2.4c-0.1,0.3-0.2,0.7-0.2,1.1v7.6h-2.3V189.8z"/>
		<path class="st10" d="M324.2,198.6c-0.6,0.3-1.9,0.7-3.6,0.7c-3.8,0-6.3-2.6-6.3-6.5c0-3.9,2.7-6.7,6.8-6.7c1.4,0,2.6,0.3,3.2,0.7
			l-0.5,1.8c-0.6-0.3-1.4-0.6-2.7-0.6c-2.9,0-4.5,2.2-4.5,4.8c0,2.9,1.9,4.8,4.4,4.8c1.3,0,2.2-0.3,2.8-0.6L324.2,198.6z"/>
		<path class="st10" d="M328.2,186.4l2.8,7.5c0.3,0.8,0.6,1.8,0.8,2.6h0.1c0.2-0.8,0.5-1.7,0.8-2.7l2.5-7.5h2.4l-3.5,9.1
			c-1.7,4.4-2.8,6.6-4.4,8c-1.1,1-2.3,1.4-2.8,1.5l-0.6-1.9c0.6-0.2,1.3-0.6,2-1.1c0.6-0.5,1.4-1.4,1.9-2.6c0.1-0.2,0.2-0.4,0.2-0.6
			c0-0.1-0.1-0.3-0.2-0.6l-4.7-11.7H328.2z"/>
		<path class="st10" d="M158.5,227.8c1,0.6,2.5,1.2,4.1,1.2c2.3,0,3.7-1.2,3.7-3c0-1.7-0.9-2.6-3.3-3.5c-2.9-1-4.7-2.5-4.7-5
			c0-2.8,2.3-4.8,5.7-4.8c1.8,0,3.1,0.4,3.9,0.9l-0.6,1.9c-0.6-0.3-1.8-0.8-3.4-0.8c-2.4,0-3.3,1.4-3.3,2.7c0,1.7,1.1,2.5,3.5,3.4
			c3,1.2,4.5,2.6,4.5,5.2c0,2.7-2,5.1-6.2,5.1c-1.7,0-3.6-0.5-4.5-1.1L158.5,227.8z"/>
		<path class="st10" d="M183.3,224.1c0,4.7-3.3,6.7-6.3,6.7c-3.4,0-6.1-2.5-6.1-6.5c0-4.3,2.8-6.7,6.3-6.7
			C180.8,217.6,183.3,220.2,183.3,224.1z M173.2,224.2c0,2.8,1.6,4.9,3.9,4.9c2.2,0,3.9-2.1,3.9-4.9c0-2.2-1.1-4.9-3.8-4.9
			S173.2,221.8,173.2,224.2z"/>
		<path class="st10" d="M195.3,230.1c-0.6,0.3-1.9,0.7-3.6,0.7c-3.8,0-6.3-2.6-6.3-6.5c0-3.9,2.7-6.7,6.8-6.7c1.4,0,2.6,0.3,3.2,0.7
			l-0.5,1.8c-0.6-0.3-1.4-0.6-2.7-0.6c-2.9,0-4.5,2.2-4.5,4.8c0,2.9,1.9,4.8,4.4,4.8c1.3,0,2.2-0.3,2.8-0.6L195.3,230.1z"/>
		<path class="st10" d="M200.5,214.3c0,0.8-0.6,1.4-1.5,1.4c-0.8,0-1.4-0.6-1.4-1.4c0-0.8,0.6-1.4,1.4-1.4
			C200,212.8,200.5,213.5,200.5,214.3z M198,230.6v-12.7h2.3v12.7H198z"/>
		<path class="st10" d="M211.1,230.6L211,229h-0.1c-0.7,1-2.1,1.9-3.9,1.9c-2.6,0-3.9-1.8-3.9-3.6c0-3.1,2.7-4.8,7.6-4.7v-0.3
			c0-1-0.3-2.9-2.9-2.9c-1.2,0-2.4,0.4-3.3,0.9l-0.5-1.5c1-0.7,2.6-1.1,4.2-1.1c3.9,0,4.8,2.7,4.8,5.2v4.8c0,1.1,0.1,2.2,0.2,3
			H211.1z M210.8,224.1c-2.5-0.1-5.4,0.4-5.4,2.9c0,1.5,1,2.2,2.2,2.2c1.7,0,2.7-1,3.1-2.1c0.1-0.2,0.1-0.5,0.1-0.7V224.1z"/>
		<path class="st10" d="M216.8,211.9h2.3v18.6h-2.3V211.9z"/>
		<path class="st10" d="M228.6,213.1c1.4-0.2,3-0.4,4.9-0.4c3.3,0,5.6,0.8,7.2,2.2c1.6,1.4,2.5,3.5,2.5,6.4c0,2.9-0.9,5.2-2.5,6.9
			c-1.7,1.7-4.4,2.5-7.8,2.5c-1.6,0-3-0.1-4.1-0.2V213.1z M230.9,228.8c0.6,0.1,1.4,0.1,2.3,0.1c4.9,0,7.5-2.7,7.5-7.5
			c0-4.2-2.3-6.8-7.2-6.8c-1.2,0-2.1,0.1-2.7,0.2V228.8z"/>
		<path class="st10" d="M248.6,214.3c0,0.8-0.6,1.4-1.5,1.4c-0.8,0-1.4-0.6-1.4-1.4c0-0.8,0.6-1.4,1.4-1.4
			C248,212.8,248.6,213.5,248.6,214.3z M246,230.6v-12.7h2.3v12.7H246z"/>
		<path class="st10" d="M251.8,228.2c0.7,0.4,1.9,0.9,3,0.9c1.7,0,2.5-0.8,2.5-1.9c0-1.1-0.7-1.7-2.4-2.3c-2.3-0.8-3.4-2.1-3.4-3.6
			c0-2,1.7-3.7,4.4-3.7c1.3,0,2.4,0.4,3.1,0.8l-0.6,1.7c-0.5-0.3-1.4-0.7-2.6-0.7c-1.4,0-2.1,0.8-2.1,1.7c0,1,0.8,1.5,2.4,2.2
			c2.2,0.8,3.3,1.9,3.3,3.8c0,2.2-1.7,3.8-4.8,3.8c-1.4,0-2.7-0.3-3.6-0.9L251.8,228.2z"/>
		<path class="st10" d="M265.3,214.2v3.6h3.3v1.8h-3.3v6.9c0,1.6,0.4,2.5,1.7,2.5c0.6,0,1-0.1,1.3-0.2l0.1,1.7
			c-0.4,0.2-1.2,0.3-2,0.3c-1.1,0-1.9-0.3-2.5-1c-0.7-0.7-0.9-1.8-0.9-3.3v-6.9h-2v-1.8h2v-3L265.3,214.2z"/>
		<path class="st10" d="M278.2,230.6l-0.2-1.6H278c-0.7,1-2.1,1.9-3.9,1.9c-2.6,0-3.9-1.8-3.9-3.6c0-3.1,2.7-4.8,7.6-4.7v-0.3
			c0-1-0.3-2.9-2.9-2.9c-1.2,0-2.4,0.4-3.3,0.9l-0.5-1.5c1-0.7,2.6-1.1,4.2-1.1c3.9,0,4.8,2.7,4.8,5.2v4.8c0,1.1,0.1,2.2,0.2,3
			H278.2z M277.9,224.1c-2.5-0.1-5.4,0.4-5.4,2.9c0,1.5,1,2.2,2.2,2.2c1.7,0,2.7-1,3.1-2.1c0.1-0.2,0.1-0.5,0.1-0.7V224.1z"/>
		<path class="st10" d="M283.9,221.3c0-1.3,0-2.4-0.1-3.4h2l0.1,2.1h0.1c0.6-1.2,2.1-2.4,4.2-2.4c1.8,0,4.5,1,4.5,5.4v7.6h-2.3v-7.3
			c0-2-0.8-3.8-2.9-3.8c-1.5,0-2.7,1.1-3.1,2.4c-0.1,0.3-0.2,0.7-0.2,1.1v7.6h-2.3V221.3z"/>
		<path class="st10" d="M307.5,230.1c-0.6,0.3-1.9,0.7-3.6,0.7c-3.8,0-6.3-2.6-6.3-6.5c0-3.9,2.7-6.7,6.8-6.7c1.4,0,2.6,0.3,3.2,0.7
			L307,220c-0.6-0.3-1.4-0.6-2.7-0.6c-2.9,0-4.5,2.2-4.5,4.8c0,2.9,1.9,4.8,4.4,4.8c1.3,0,2.2-0.3,2.8-0.6L307.5,230.1z"/>
		<path class="st10" d="M312.7,214.3c0,0.8-0.6,1.4-1.5,1.4c-0.8,0-1.4-0.6-1.4-1.4c0-0.8,0.6-1.4,1.4-1.4
			C312.2,212.8,312.7,213.5,312.7,214.3z M310.2,230.6v-12.7h2.3v12.7H310.2z"/>
		<path class="st10" d="M316.3,221.3c0-1.3,0-2.4-0.1-3.4h2l0.1,2.1h0.1c0.6-1.2,2.1-2.4,4.2-2.4c1.8,0,4.5,1,4.5,5.4v7.6h-2.3v-7.3
			c0-2-0.8-3.8-2.9-3.8c-1.5,0-2.7,1.1-3.1,2.4c-0.1,0.3-0.2,0.7-0.2,1.1v7.6h-2.3V221.3z"/>
		<path class="st10" d="M341.8,217.9c-0.1,0.9-0.1,1.9-0.1,3.5v7.4c0,2.9-0.6,4.7-1.8,5.8c-1.2,1.2-3,1.5-4.6,1.5
			c-1.5,0-3.2-0.4-4.2-1l0.6-1.8c0.8,0.5,2.2,1,3.7,1c2.4,0,4.1-1.2,4.1-4.4v-1.4h-0.1c-0.7,1.2-2.1,2.1-4,2.1
			c-3.2,0-5.4-2.7-5.4-6.2c0-4.3,2.8-6.7,5.7-6.7c2.2,0,3.4,1.2,4,2.2h0.1l0.1-1.9H341.8z M339.4,222.9c0-0.4,0-0.7-0.1-1
			c-0.4-1.3-1.5-2.4-3.2-2.4c-2.2,0-3.8,1.9-3.8,4.8c0,2.5,1.3,4.6,3.8,4.6c1.4,0,2.7-0.9,3.2-2.4c0.1-0.4,0.2-0.8,0.2-1.2V222.9z"
			/>
		<path class="st10" d="M353.5,212.9v10.5c0,4,1.8,5.6,4.1,5.6c2.6,0,4.3-1.7,4.3-5.6v-10.5h2.3v10.3c0,5.4-2.9,7.7-6.7,7.7
			c-3.6,0-6.4-2.1-6.4-7.6v-10.4H353.5z"/>
		<path class="st10" d="M368.1,221.3c0-1.3,0-2.4-0.1-3.4h2l0.1,2.1h0.1c0.6-1.2,2.1-2.4,4.2-2.4c1.8,0,4.5,1,4.5,5.4v7.6h-2.3v-7.3
			c0-2-0.8-3.8-2.9-3.8c-1.5,0-2.7,1.1-3.1,2.4c-0.1,0.3-0.2,0.7-0.2,1.1v7.6h-2.3V221.3z"/>
		<path class="st10" d="M382.7,211.9h2.3v18.6h-2.3V211.9z"/>
		<path class="st10" d="M391.4,214.3c0,0.8-0.6,1.4-1.5,1.4c-0.8,0-1.4-0.6-1.4-1.4c0-0.8,0.6-1.4,1.4-1.4
			C390.9,212.8,391.4,213.5,391.4,214.3z M388.8,230.6v-12.7h2.3v12.7H388.8z"/>
		<path class="st10" d="M397.3,223.7L397.3,223.7c0.4-0.4,0.8-1,1.2-1.4l3.7-4.4h2.8l-4.9,5.2l5.6,7.5h-2.8l-4.4-6.1l-1.2,1.3v4.8
			H395v-18.6h2.3V223.7z"/>
		<path class="st10" d="M408.6,224.6c0.1,3.1,2,4.4,4.4,4.4c1.7,0,2.7-0.3,3.5-0.7l0.4,1.7c-0.8,0.4-2.2,0.8-4.2,0.8
			c-3.9,0-6.2-2.6-6.2-6.4c0-3.8,2.3-6.8,6-6.8c4.1,0,5.2,3.6,5.2,6c0,0.5-0.1,0.8-0.1,1.1H408.6z M415.4,223c0-1.5-0.6-3.8-3.2-3.8
			c-2.3,0-3.4,2.2-3.5,3.8H415.4z"/>
		<path class="st10" d="M420.4,211.9h2.3v18.6h-2.3V211.9z"/>
		<path class="st10" d="M427.5,217.9l2.8,7.5c0.3,0.8,0.6,1.8,0.8,2.6h0.1c0.2-0.8,0.5-1.7,0.8-2.7l2.5-7.5h2.4l-3.5,9.1
			c-1.7,4.4-2.8,6.6-4.4,8c-1.1,1-2.3,1.4-2.8,1.5l-0.6-1.9c0.6-0.2,1.3-0.6,2-1.1c0.6-0.5,1.4-1.4,1.9-2.6c0.1-0.2,0.2-0.4,0.2-0.6
			c0-0.1-0.1-0.3-0.2-0.6l-4.7-11.7H427.5z"/>
	</g>
</g>
<g>
</g>
<g>
</g>
<g>
</g>
<g>
</g>
<g>
</g>
<g>
</g>
</svg>
