<?xml version="1.0" encoding="utf-8"?>
<!-- Generator: Adobe Illustrator 24.0.2, SVG Export Plug-In . SVG Version: 6.00 Build 0)  -->
<svg version="1.1" id="Ebene_1" xmlns="http://www.w3.org/2000/svg" xmlns:xlink="http://www.w3.org/1999/xlink" x="0px" y="0px"
	 viewBox="0 0 100 97.8" style="enable-background:new 0 0 100 97.8;" xml:space="preserve">
<style type="text/css">
	.st0{fill:#FF0000;}
</style>
<rect class="st0" width="100" height="97.8"/>
<title>All4</title>
<g>
	<path d="M33.7,6.2h32.7c1.9,0,3.5-1.4,3.5-3.1c0-1.7-1.5-3.1-3.5-3.1H33.7c-1.9,0-3.5,1.4-3.5,3.1C30.2,4.8,31.8,6.2,33.7,6.2z"/>
	<path d="M86,20.9c0-6-6.9-11-15.3-11H29.4c-8.5,0-15.4,4.9-15.4,11c0,0-4.3,28-4.3,35.7c0,7.7,0,20.5,0,20.5c0,5,4.7,9.2,11.2,10.5
		v7c0,1.8,2,3.2,4.5,3.2h2.7c2.5,0,4.5-1.4,4.5-3.2V88h34.9v6.6c0,1.8,2,3.2,4.5,3.2h2.7c2.5,0,4.5-1.4,4.5-3.2v-7
		c6.5-1.3,11.2-5.5,11.2-10.5c0,0,0-13.8,0-20.5C90.3,49.9,86,20.9,86,20.9z M26.7,82.7c-5,0-9.1-2.9-9.1-6.5c0-3.6,4.1-6.5,9.1-6.5
		s9.1,2.9,9.1,6.5C35.8,79.8,31.8,82.7,26.7,82.7z M18.4,55.5L22,25c0-5.2,5.9-9.4,13.1-9.4h29.8c7.2,0,13.1,4.2,13.1,9.4l3.6,30.5
		C81.6,68.8,18.4,68.8,18.4,55.5z M73.3,82.7c-5,0-9.1-2.9-9.1-6.5c0-3.6,4.1-6.5,9.1-6.5c5,0,9.1,2.9,9.1,6.5
		C82.4,79.8,78.3,82.7,73.3,82.7z"/>
</g>
<g>
	<path d="M47.1,53.2v3.3H24.4v-3.3c9-6.7,14.3-11.1,16-13.3s2.6-4.2,2.6-6.3c0-2-0.7-3.5-2.2-4.7s-3.1-1.8-5-1.8c-2,0-3.7,0.7-5.2,2
		s-2.3,3.1-2.5,5.4l-3.7-1.1c1.6-6.3,5.4-9.4,11.5-9.4c3.3,0,6,0.9,8,2.8s3.1,4.2,3.1,6.9c0,1.9-0.5,3.6-1.5,5.4s-2.8,3.8-5.5,6.2
		s-6.2,5.1-10.5,8.1H47.1z"/>
	<path d="M64.1,57.2c-3.7,0-6.6-1.6-8.8-4.8c-2.2-3.2-3.3-7.2-3.3-11.9c0-4.7,1-8.6,3.1-11.8c2.1-3.2,5.1-4.8,8.9-4.8
		c4,0,7,1.7,9.1,5c2.1,3.3,3.1,7.3,3.1,11.8c0,4.4-1.1,8.3-3.2,11.6S67.9,57.2,64.1,57.2z M64.2,54c2.7,0,4.7-1.2,6-3.7
		s1.9-5.5,1.9-9.2c0-4-0.7-7.4-2-10.1s-3.4-4-6.1-4c-2.7,0-4.7,1.2-6,3.7s-2,5.7-2,9.7c0,4.2,0.7,7.5,2.1,9.9S61.5,54,64.2,54z"/>
</g>
</svg>
