<?xml version="1.0" encoding="utf-8"?>
<!-- Generator: Adobe Illustrator 24.0.2, SVG Export Plug-In . SVG Version: 6.00 Build 0)  -->
<svg version="1.1" id="Ebene_1" xmlns="http://www.w3.org/2000/svg" xmlns:xlink="http://www.w3.org/1999/xlink" x="0px" y="0px"
	 viewBox="0 0 322.8 84" enable-background="new 0 0 322.8 84" xml:space="preserve">
<g>
	<g>
		<path fill="#FFFFFF" d="M12.6,10.8H0V6.3c99.5-0.2,199-0.4,298.5-0.6c0,1.4,0,2.7,0,4.1c-93.5,0.4-187,0.7-280.6,1.1v36.8h-5.4
			V10.8z"/>
		<path fill="#FFFFFF" d="M32,30.6c0-2.9-0.1-5.4-0.2-7.7h3.9l0.2,4.9h0.2c1.1-3.3,3.8-5.4,6.8-5.4c0.5,0,0.9,0,1.3,0.2v4.2
			c-0.5-0.1-0.9-0.2-1.5-0.2c-3.2,0-5.4,2.4-6,5.8c-0.1,0.6-0.2,1.3-0.2,2.1v13.2H32V30.6z"/>
		<path fill="#FFFFFF" d="M62.2,47.6l-0.4-3.1h-0.2c-1.4,1.9-4,3.7-7.6,3.7c-5,0-7.6-3.5-7.6-7.1c0-6,5.3-9.3,14.9-9.2v-0.5
			c0-2-0.6-5.7-5.6-5.7c-2.3,0-4.7,0.7-6.4,1.8l-1-3c2-1.3,5-2.2,8.1-2.2c7.6,0,9.4,5.2,9.4,10.1v9.3c0,2.1,0.1,4.2,0.4,5.9H62.2z
			 M61.5,35C56.6,34.9,51,35.8,51,40.6c0,2.9,1.9,4.3,4.2,4.3c3.2,0,5.3-2,6-4.1c0.2-0.5,0.3-1,0.3-1.4V35z"/>
		<path fill="#FFFFFF" d="M73.1,29.6c0-2.6,0-4.7-0.2-6.7h4l0.3,4.1h0.1c1.2-2.4,4.1-4.7,8.2-4.7c3.4,0,8.7,2,8.7,10.5v14.8h-4.5
			V33.4c0-4-1.5-7.3-5.7-7.3c-3,0-5.3,2.1-6,4.6c-0.2,0.6-0.3,1.3-0.3,2.1v14.9h-4.5V29.6z"/>
		<path fill="#FFFFFF" d="M100.9,43c1.3,0.9,3.7,1.8,5.9,1.8c3.3,0,4.8-1.6,4.8-3.7c0-2.1-1.3-3.3-4.6-4.6c-4.4-1.6-6.5-4-6.5-7
			c0-4,3.2-7.3,8.5-7.3c2.5,0,4.7,0.7,6.1,1.5l-1.1,3.3c-1-0.6-2.8-1.4-5.1-1.4c-2.7,0-4.1,1.5-4.1,3.4c0,2,1.5,3,4.7,4.2
			c4.3,1.6,6.5,3.8,6.5,7.5c0,4.3-3.4,7.4-9.3,7.4c-2.7,0-5.2-0.7-6.9-1.7L100.9,43z"/>
		<path fill="#FFFFFF" d="M121.8,31c0-3.2-0.1-5.7-0.2-8.1h4l0.2,4.2h0.1c1.8-3,4.8-4.8,8.8-4.8c6,0,10.5,5.1,10.5,12.6
			c0,8.9-5.4,13.3-11.2,13.3c-3.3,0-6.1-1.4-7.6-3.9h-0.1v13.4h-4.4V31z M126.2,37.6c0,0.7,0.1,1.3,0.2,1.8c0.8,3.1,3.5,5.3,6.7,5.3
			c4.8,0,7.5-3.9,7.5-9.6c0-5-2.6-9.2-7.4-9.2c-3.1,0-5.9,2.2-6.8,5.6c-0.2,0.6-0.3,1.2-0.3,1.8V37.6z"/>
		<path fill="#FFFFFF" d="M173.2,35.1c0,9.1-6.3,13.1-12.3,13.1c-6.7,0-11.9-4.9-11.9-12.7c0-8.3,5.4-13.1,12.3-13.1
			C168.4,22.3,173.2,27.5,173.2,35.1z M153.6,35.3c0,5.4,3.1,9.5,7.5,9.5c4.3,0,7.5-4,7.5-9.6c0-4.2-2.1-9.5-7.4-9.5
			C155.9,25.7,153.6,30.6,153.6,35.3z"/>
		<path fill="#FFFFFF" d="M178.9,30.6c0-2.9-0.1-5.4-0.2-7.7h3.9l0.2,4.9h0.2c1.1-3.3,3.8-5.4,6.8-5.4c0.5,0,0.9,0,1.3,0.2v4.2
			c-0.5-0.1-0.9-0.2-1.5-0.2c-3.2,0-5.4,2.4-6,5.8c-0.1,0.6-0.2,1.3-0.2,2.1v13.2h-4.4V30.6z"/>
		<path fill="#FFFFFF" d="M202.3,15.8v7.1h6.4v3.4h-6.4v13.3c0,3.1,0.9,4.8,3.4,4.8c1.2,0,2-0.2,2.6-0.3l0.2,3.4
			c-0.9,0.4-2.2,0.6-4,0.6c-2.1,0-3.8-0.7-4.9-1.9c-1.3-1.3-1.7-3.5-1.7-6.4V26.3h-3.8v-3.4h3.8V17L202.3,15.8z"/>
		<path fill="#FFFFFF" d="M227.5,47.6l-0.4-3.1H227c-1.4,1.9-4,3.7-7.6,3.7c-5,0-7.6-3.5-7.6-7.1c0-6,5.3-9.3,14.9-9.2v-0.5
			c0-2-0.6-5.7-5.6-5.7c-2.3,0-4.7,0.7-6.4,1.8l-1-3c2-1.3,5-2.2,8.1-2.2c7.6,0,9.4,5.2,9.4,10.1v9.3c0,2.1,0.1,4.2,0.4,5.9H227.5z
			 M226.8,35c-4.9-0.1-10.5,0.8-10.5,5.6c0,2.9,1.9,4.3,4.2,4.3c3.2,0,5.3-2,6-4.1c0.2-0.5,0.3-1,0.3-1.4V35z"/>
		<path fill="#FFFFFF" d="M237.8,43c1.3,0.9,3.7,1.8,5.9,1.8c3.3,0,4.8-1.6,4.8-3.7c0-2.1-1.3-3.3-4.6-4.6c-4.4-1.6-6.5-4-6.5-7
			c0-4,3.2-7.3,8.5-7.3c2.5,0,4.7,0.7,6.1,1.5l-1.1,3.3c-1-0.6-2.8-1.4-5.1-1.4c-2.7,0-4.1,1.5-4.1,3.4c0,2,1.5,3,4.7,4.2
			c4.3,1.6,6.5,3.8,6.5,7.5c0,4.3-3.4,7.4-9.3,7.4c-2.7,0-5.2-0.7-6.9-1.7L237.8,43z"/>
		<path fill="#FFFFFF" d="M264.1,15.8v7.1h6.4v3.4h-6.4v13.3c0,3.1,0.9,4.8,3.4,4.8c1.2,0,2-0.2,2.6-0.3l0.2,3.4
			c-0.9,0.4-2.2,0.6-4,0.6c-2.1,0-3.8-0.7-4.9-1.9c-1.3-1.3-1.7-3.5-1.7-6.4V26.3h-3.8v-3.4h3.8V17L264.1,15.8z"/>
		<path fill="#FFFFFF" d="M280.6,16c0.1,1.5-1.1,2.8-2.9,2.8c-1.6,0-2.7-1.2-2.7-2.8c0-1.6,1.2-2.8,2.8-2.8
			C279.6,13.1,280.6,14.4,280.6,16z M275.6,47.6V22.9h4.5v24.7H275.6z"/>
		<path fill="#FFFFFF" d="M305.2,46.7c-1.2,0.6-3.8,1.4-7.1,1.4c-7.5,0-12.3-5.1-12.3-12.6c0-7.6,5.2-13.1,13.3-13.1
			c2.7,0,5,0.7,6.2,1.3l-1,3.5c-1.1-0.6-2.8-1.2-5.2-1.2c-5.7,0-8.7,4.2-8.7,9.4c0,5.7,3.7,9.3,8.6,9.3c2.6,0,4.2-0.7,5.5-1.2
			L305.2,46.7z"/>
		<path fill="#FFFFFF" d="M322.8,14.1"/>
	</g>
	<polygon fill="#FFFFFF" points="305.3,7.6 292.2,0 292.2,15.2 	"/>
</g>
<path fill="#FFFFFF" d="M71.5,2"/>
<g>
	<path fill="#FFFFFF" d="M135.2,62.7v15h-1.4V67.3l-6.5,10.3h-0.4L123.1,67L120,77.6h-1.5l4.3-15h0.3l4.4,12.2l7.6-12.2H135.2z"/>
	<path fill="#FFFFFF" d="M144.6,66.3c0.9,0,1.8,0.2,2.6,0.7s1.4,1.1,1.8,1.9c0.4,0.8,0.7,1.7,0.7,2.7c0,1.2-0.3,2.2-0.8,3.2
		c-0.6,1-1.3,1.8-2.3,2.3c-0.9,0.5-2,0.8-3.2,0.8c-1.5,0-2.7-0.5-3.7-1.5c-1-1-1.4-2.2-1.4-3.7c0-1.2,0.3-2.3,0.8-3.3
		c0.6-1,1.3-1.8,2.3-2.3C142.3,66.6,143.4,66.3,144.6,66.3z M144.5,67.6c-0.9,0-1.7,0.2-2.5,0.7c-0.8,0.4-1.4,1-1.8,1.8
		c-0.4,0.8-0.6,1.6-0.6,2.5c0,1.2,0.4,2.1,1.1,2.8c0.7,0.7,1.7,1.1,2.8,1.1c0.9,0,1.7-0.2,2.4-0.6s1.3-1,1.7-1.8
		c0.4-0.8,0.6-1.7,0.6-2.6c0-0.8-0.2-1.4-0.5-2s-0.8-1.1-1.4-1.4S145.2,67.6,144.5,67.6z"/>
	<path fill="#FFFFFF" d="M154,62.3h1.4l-0.8,5.9c1.3-1.3,2.8-2,4.4-2c1.5,0,2.7,0.5,3.7,1.5c1,1,1.4,2.2,1.4,3.7
		c0,1.8-0.6,3.3-1.9,4.5c-1.3,1.3-2.7,1.9-4.4,1.9c-0.9,0-1.7-0.2-2.4-0.6c-0.7-0.4-1.3-1-1.8-1.8l-0.3,2.1h-1.5L154,62.3z
		 M158.8,67.6c-0.9,0-1.7,0.2-2.5,0.6c-0.8,0.4-1.4,1-1.8,1.9c-0.4,0.8-0.7,1.7-0.7,2.6c0,1.1,0.4,2.1,1.1,2.8
		c0.7,0.7,1.7,1.1,2.8,1.1c1.4,0,2.5-0.5,3.5-1.5s1.5-2.2,1.5-3.6c0-1.2-0.4-2.1-1.1-2.8C160.9,68,160,67.6,158.8,67.6z"/>
	<path fill="#FFFFFF" d="M167.1,66.6h1.3L167,77.6h-1.4L167.1,66.6z M168.3,62c0.3,0,0.6,0.1,0.8,0.3c0.2,0.2,0.3,0.5,0.3,0.8
		c0,0.3-0.1,0.6-0.3,0.8c-0.2,0.2-0.5,0.3-0.8,0.3c-0.3,0-0.6-0.1-0.8-0.3s-0.3-0.5-0.3-0.8c0-0.3,0.1-0.6,0.3-0.8
		C167.7,62.1,167.9,62,168.3,62z"/>
	<path fill="#FFFFFF" d="M171.9,62.3h1.4l-2.1,15.3h-1.4L171.9,62.3z"/>
	<path fill="#FFFFFF" d="M175.5,66.6h1.3l-1.4,11.1H174L175.5,66.6z M176.6,62c0.3,0,0.6,0.1,0.8,0.3c0.2,0.2,0.3,0.5,0.3,0.8
		c0,0.3-0.1,0.6-0.3,0.8c-0.2,0.2-0.5,0.3-0.8,0.3c-0.3,0-0.6-0.1-0.8-0.3s-0.3-0.5-0.3-0.8c0-0.3,0.1-0.6,0.3-0.8
		C176,62.1,176.3,62,176.6,62z"/>
	<path fill="#FFFFFF" d="M181.7,62.4h1.4l-0.6,4.1h2.2l-0.2,1.2h-2.2l-1.3,9.8h-1.4l1.3-9.8H179l0.2-1.2h1.9L181.7,62.4z"/>
	<path fill="#FFFFFF" d="M185.5,66.6h1.5l2.9,8.2l4.8-8.2h1.6l-8.8,15.1h-1.6l3.1-5.4L185.5,66.6z"/>
	<path fill="#FFFFFF" d="M198.1,75.4c0.3,0,0.6,0.1,0.9,0.4c0.2,0.2,0.4,0.5,0.4,0.9c0,0.3-0.1,0.6-0.4,0.9
		c-0.2,0.2-0.5,0.4-0.9,0.4s-0.6-0.1-0.9-0.4c-0.2-0.2-0.4-0.5-0.4-0.9c0-0.3,0.1-0.6,0.4-0.9C197.5,75.6,197.7,75.4,198.1,75.4z"/>
	<path fill="#FFFFFF" d="M210.6,62.7h3.8c1.3,0,2.3,0.1,2.9,0.4s1,0.7,1.4,1.2c0.4,0.6,0.5,1.2,0.5,1.9c0,0.8-0.2,1.6-0.6,2.2
		s-1,1.2-1.7,1.6c-0.7,0.3-1.7,0.5-2.9,0.5l4.5,7.1h-1.7l-4.5-7.1H211l-1,7.1h-1.5L210.6,62.7z M211.9,64.1l-0.7,5h1.7
		c1.3,0,2.1-0.1,2.5-0.2c0.7-0.2,1.2-0.5,1.6-1c0.4-0.5,0.6-1.1,0.6-1.8c0-0.8-0.3-1.3-0.8-1.7c-0.4-0.3-1.2-0.4-2.3-0.4H211.9z"/>
	<path fill="#FFFFFF" d="M232.3,72.4h-9.9c0,1.3,0.3,2.4,1,3.1c0.7,0.8,1.6,1.1,2.8,1.1c0.8,0,1.5-0.2,2.2-0.5
		c0.7-0.3,1.2-0.8,1.6-1.3l1.1,0.9c-0.5,0.7-1.2,1.2-2.1,1.6c-0.9,0.4-1.8,0.6-2.8,0.6c-1.7,0-3-0.5-3.9-1.6
		c-0.9-1.1-1.3-2.3-1.3-3.6c0-1.1,0.3-2.2,0.9-3.2c0.6-1,1.4-1.8,2.4-2.4s2-0.8,3.2-0.8c1.4,0,2.6,0.5,3.5,1.4
		c0.9,1,1.4,2.2,1.4,3.7C232.4,71.7,232.3,72,232.3,72.4z M231,71.2c0-1-0.4-1.9-1.1-2.5c-0.7-0.6-1.5-1-2.5-1
		c-1.1,0-2.1,0.3-2.9,0.9s-1.4,1.5-1.8,2.6H231z"/>
	<path fill="#FFFFFF" d="M245.4,77.6h-1.4l0.2-1.7c-1.3,1.3-2.8,2-4.4,2c-1.5,0-2.7-0.5-3.7-1.5s-1.4-2.2-1.4-3.7
		c0-1.8,0.6-3.3,1.9-4.5c1.3-1.3,2.7-1.9,4.4-1.9c0.9,0,1.7,0.2,2.4,0.6c0.7,0.4,1.3,1,1.8,1.8l0.8-6.4h1.5L245.4,77.6z M239.9,76.6
		c0.9,0,1.7-0.2,2.5-0.6c0.8-0.4,1.3-1,1.8-1.9c0.4-0.8,0.7-1.7,0.7-2.6c0-1.1-0.4-2.1-1.1-2.8c-0.7-0.7-1.7-1.1-2.8-1.1
		c-1.4,0-2.5,0.5-3.5,1.5c-1,1-1.5,2.2-1.5,3.6c0,1.2,0.4,2.1,1.1,2.8C237.8,76.3,238.8,76.6,239.9,76.6z"/>
	<path fill="#FFFFFF" d="M260.1,72.4h-9.9c0,1.3,0.3,2.4,1,3.1c0.7,0.8,1.6,1.1,2.8,1.1c0.8,0,1.5-0.2,2.2-0.5
		c0.7-0.3,1.2-0.8,1.6-1.3l1.1,0.9c-0.5,0.7-1.2,1.2-2.1,1.6c-0.9,0.4-1.8,0.6-2.8,0.6c-1.7,0-3-0.5-3.9-1.6
		c-0.9-1.1-1.3-2.3-1.3-3.6c0-1.1,0.3-2.2,0.9-3.2c0.6-1,1.4-1.8,2.4-2.4s2-0.8,3.2-0.8c1.4,0,2.6,0.5,3.5,1.4
		c0.9,1,1.4,2.2,1.4,3.7C260.2,71.7,260.2,72,260.1,72.4z M258.8,71.2c0-1-0.4-1.9-1.1-2.5c-0.7-0.6-1.5-1-2.5-1
		c-1.1,0-2.1,0.3-2.9,0.9s-1.4,1.5-1.8,2.6H258.8z"/>
	<path fill="#FFFFFF" d="M268.6,62.7l-0.2,1.4c-0.5-0.5-1-0.7-1.5-0.7c-0.3,0-0.5,0.1-0.7,0.4c-0.2,0.3-0.4,0.8-0.5,1.7l-0.2,1.2
		h2.3l-0.2,1.2h-2.3l-1.3,9.8h-1.4l1.3-9.8h-1.3l0.2-1.2h1.3l0.1-1c0.2-1.1,0.3-1.9,0.5-2.3c0.2-0.4,0.5-0.7,0.8-0.9
		c0.4-0.2,0.8-0.4,1.2-0.4C267.4,62,268,62.2,268.6,62.7z"/>
	<path fill="#FFFFFF" d="M270,66.6h1.3l-1.4,11.1h-1.4L270,66.6z M271.1,62c0.3,0,0.6,0.1,0.8,0.3c0.2,0.2,0.3,0.5,0.3,0.8
		c0,0.3-0.1,0.6-0.3,0.8c-0.2,0.2-0.5,0.3-0.8,0.3c-0.3,0-0.6-0.1-0.8-0.3s-0.3-0.5-0.3-0.8c0-0.3,0.1-0.6,0.3-0.8
		C270.5,62.1,270.8,62,271.1,62z"/>
	<path fill="#FFFFFF" d="M274.4,66.6h1.4l-0.2,1.7c1.1-1.3,2.4-2,3.9-2c1.1,0,2.1,0.4,2.8,1.1c0.7,0.7,1.1,1.6,1.1,2.8
		c0,0.5-0.1,1.3-0.2,2.4l-0.7,5.1H281l0.7-5.1c0.1-1.1,0.2-1.9,0.2-2.4c0-0.8-0.2-1.4-0.7-1.9c-0.5-0.5-1.1-0.7-1.8-0.7
		c-0.7,0-1.4,0.2-2.1,0.6s-1.1,0.9-1.5,1.6c-0.4,0.7-0.6,1.7-0.8,3.1l-0.6,4.8h-1.4L274.4,66.6z"/>
	<path fill="#FFFFFF" d="M297.1,72.4h-9.9c0,1.3,0.3,2.4,1,3.1c0.7,0.8,1.6,1.1,2.8,1.1c0.8,0,1.5-0.2,2.2-0.5
		c0.7-0.3,1.2-0.8,1.6-1.3l1.1,0.9c-0.5,0.7-1.2,1.2-2.1,1.6c-0.9,0.4-1.8,0.6-2.8,0.6c-1.7,0-3-0.5-3.9-1.6
		c-0.9-1.1-1.3-2.3-1.3-3.6c0-1.1,0.3-2.2,0.9-3.2c0.6-1,1.4-1.8,2.4-2.4s2-0.8,3.2-0.8c1.4,0,2.6,0.5,3.5,1.4
		c0.9,1,1.4,2.2,1.4,3.7C297.1,71.7,297.1,72,297.1,72.4z M295.8,71.2c0-1-0.4-1.9-1.1-2.5c-0.7-0.6-1.5-1-2.5-1
		c-1.1,0-2.1,0.3-2.9,0.9s-1.4,1.5-1.8,2.6H295.8z"/>
	<path fill="#FFFFFF" d="M310.1,77.6h-1.4l0.2-1.7c-1.3,1.3-2.8,2-4.4,2c-1.5,0-2.7-0.5-3.7-1.5s-1.4-2.2-1.4-3.7
		c0-1.8,0.6-3.3,1.9-4.5c1.3-1.3,2.7-1.9,4.4-1.9c0.9,0,1.7,0.2,2.4,0.6c0.7,0.4,1.3,1,1.8,1.8l0.8-6.4h1.5L310.1,77.6z M304.7,76.6
		c0.9,0,1.7-0.2,2.5-0.6c0.8-0.4,1.3-1,1.8-1.9c0.4-0.8,0.7-1.7,0.7-2.6c0-1.1-0.4-2.1-1.1-2.8c-0.7-0.7-1.7-1.1-2.8-1.1
		c-1.4,0-2.5,0.5-3.5,1.5c-1,1-1.5,2.2-1.5,3.6c0,1.2,0.4,2.1,1.1,2.8C302.6,76.3,303.5,76.6,304.7,76.6z"/>
	<path fill="#FFFFFF" d="M314.9,75.4c0.3,0,0.6,0.1,0.9,0.4c0.2,0.2,0.4,0.5,0.4,0.9c0,0.3-0.1,0.6-0.4,0.9
		c-0.2,0.2-0.5,0.4-0.9,0.4s-0.6-0.1-0.9-0.4c-0.2-0.2-0.4-0.5-0.4-0.9c0-0.3,0.1-0.6,0.4-0.9C314.2,75.6,314.5,75.4,314.9,75.4z"/>
</g>
<g>
</g>
<g>
</g>
<g>
</g>
<g>
</g>
<g>
</g>
<g>
</g>
</svg>
