<?xml version="1.0" encoding="utf-8"?>
<!-- Generator: Adobe Illustrator 24.0.2, SVG Export Plug-In . SVG Version: 6.00 Build 0)  -->
<svg version="1.1" id="Ebene_1" xmlns="http://www.w3.org/2000/svg" xmlns:xlink="http://www.w3.org/1999/xlink" x="0px" y="0px"
	 viewBox="0 0 920.5 567" style="enable-background:new 0 0 920.5 567;" xml:space="preserve">
<style type="text/css">
	.st0{fill:#FFFFFF;}
	.st1{clip-path:url(#SVGID_2_);}
	.st2{clip-path:url(#SVGID_4_);fill:#FFFFFF;}
	.st3{fill:#020203;}
</style>
<circle class="st0" cx="411.5" cy="486" r="81"/>
<g>
	<g>
		<defs>
			<polygon id="SVGID_1_" points="234.7,322.4 706.2,322.4 706.2,200.6 234.7,200.6 234.7,322.4 			"/>
		</defs>
		<clipPath id="SVGID_2_">
			<use xlink:href="#SVGID_1_"  style="overflow:visible;"/>
		</clipPath>
		<g class="st1">
			<defs>
				<polygon id="SVGID_3_" points="234.7,322.4 706.2,322.4 706.2,200.6 234.7,200.6 234.7,322.4 				"/>
			</defs>
			<clipPath id="SVGID_4_">
				<use xlink:href="#SVGID_3_"  style="overflow:visible;"/>
			</clipPath>
			<path class="st2" d="M253.3,216.3h-18.4v-6.5c145.2-0.3,290.5-0.6,435.7-0.9c0,2,0,3.9,0,5.9c-136.5,0.6-272.9,1-409.6,1.6v53.3
				h-7.9v-53.5H253.3L253.3,216.3z"/>
			<path class="st2" d="M281.6,245c0-4.2-0.1-7.8-0.3-11.2h5.7l0.3,7.1h0.3c1.6-4.8,5.5-7.8,9.9-7.8c0.7,0,1.3,0,1.9,0.3v6.1
				c-0.7-0.1-1.3-0.3-2.2-0.3c-4.7,0-7.9,3.5-8.8,8.4c-0.1,0.9-0.3,1.9-0.3,3v19.1h-6.6V245L281.6,245L281.6,245z"/>
			<path class="st2" d="M325.7,269.6l-0.6-4.5h-0.3c-2,2.8-5.8,5.4-11.1,5.4c-7.3,0-11.1-5.1-11.1-10.3c0-8.7,7.7-13.5,21.7-13.3
				v-0.7c0-2.9-0.9-8.3-8.2-8.3c-3.4,0-6.9,1-9.3,2.6l-1.5-4.3c2.9-1.9,7.3-3.2,11.8-3.2c11.1,0,13.7,7.5,13.7,14.6v13.5
				c0,3,0.1,6.1,0.6,8.5H325.7L325.7,269.6L325.7,269.6z M324.6,251.4c-7.2-0.1-15.3,1.2-15.3,8.1c0,4.2,2.8,6.2,6.1,6.2
				c4.7,0,7.7-2.9,8.8-5.9c0.3-0.7,0.4-1.4,0.4-2V251.4L324.6,251.4L324.6,251.4z"/>
			<path class="st2" d="M341.6,243.5c0-3.8,0-6.8-0.3-9.7h5.8l0.4,5.9h0.1c1.8-3.5,6-6.8,12-6.8c5,0,12.7,2.9,12.7,15.2v21.4h-6.6
				V249c0-5.8-2.2-10.6-8.3-10.6c-4.4,0-7.7,3-8.8,6.7c-0.3,0.9-0.4,1.9-0.4,3v21.6h-6.6v-26.2H341.6L341.6,243.5z"/>
			<path class="st2" d="M382.1,263c1.9,1.3,5.4,2.6,8.6,2.6c4.8,0,7-2.3,7-5.4c0-3-1.9-4.8-6.7-6.7c-6.4-2.3-9.5-5.8-9.5-10.1
				c0-5.8,4.7-10.6,12.4-10.6c3.6,0,6.9,1,8.9,2.2l-1.6,4.8c-1.5-0.9-4.1-2-7.4-2c-3.9,0-6,2.2-6,4.9c0,2.9,2.2,4.3,6.9,6.1
				c6.3,2.3,9.5,5.5,9.5,10.9c0,6.2-5,10.7-13.6,10.7c-3.9,0-7.6-1-10.1-2.5L382.1,263L382.1,263L382.1,263z"/>
			<path class="st2" d="M412.7,245.6c0-4.6-0.1-8.3-0.3-11.7h5.8l0.3,6.1h0.1c2.6-4.3,7-7,12.8-7c8.8,0,15.3,7.4,15.3,18.3
				c0,12.9-7.9,19.3-16.3,19.3c-4.8,0-8.9-2-11.1-5.7h-0.1v19.4h-6.4v-38.7H412.7L412.7,245.6z M419.1,255.1c0,1,0.1,1.9,0.3,2.6
				c1.2,4.5,5.1,7.7,9.8,7.7c7,0,10.9-5.7,10.9-13.9c0-7.2-3.8-13.3-10.8-13.3c-4.5,0-8.6,3.2-9.9,8.1c-0.3,0.9-0.4,1.7-0.4,2.6v6.2
				H419.1L419.1,255.1z"/>
			<path class="st2" d="M487.7,251.5c0,13.2-9.2,19-18,19c-9.8,0-17.4-7.1-17.4-18.4c0-12,7.9-19,18-19
				C480.7,233,487.7,240.5,487.7,251.5L487.7,251.5z M459.1,251.8c0,7.8,4.5,13.8,10.9,13.8c6.3,0,10.9-5.8,10.9-13.9
				c0-6.1-3.1-13.8-10.8-13.8S459.1,245,459.1,251.8L459.1,251.8z"/>
			<path class="st2" d="M496,245c0-4.2-0.1-7.8-0.3-11.2h5.7l0.3,7.1h0.3c1.6-4.8,5.5-7.8,9.9-7.8c0.7,0,1.3,0,1.9,0.3v6.1
				c-0.7-0.1-1.3-0.3-2.2-0.3c-4.7,0-7.9,3.5-8.8,8.4c-0.1,0.9-0.3,1.9-0.3,3v19.1h-6.4V245H496L496,245z"/>
			<path class="st2" d="M530.1,223.5v10.3h9.3v4.9h-9.3V258c0,4.5,1.3,7,5,7c1.8,0,2.9-0.3,3.8-0.4l0.3,4.9
				c-1.3,0.6-3.2,0.9-5.8,0.9c-3.1,0-5.5-1-7.2-2.8c-1.9-1.9-2.5-5.1-2.5-9.3v-19.6h-5.5v-4.9h5.5v-8.5L530.1,223.5L530.1,223.5
				L530.1,223.5z"/>
			<path class="st2" d="M566.9,269.6l-0.6-4.5h-0.1c-2,2.8-5.8,5.4-11.1,5.4c-7.3,0-11.1-5.1-11.1-10.3c0-8.7,7.7-13.5,21.7-13.3
				v-0.7c0-2.9-0.9-8.3-8.2-8.3c-3.4,0-6.9,1-9.3,2.6l-1.5-4.3c2.9-1.9,7.3-3.2,11.8-3.2c11.1,0,13.7,7.5,13.7,14.6v13.5
				c0,3,0.1,6.1,0.6,8.5H566.9L566.9,269.6L566.9,269.6z M565.9,251.4c-7.2-0.1-15.3,1.2-15.3,8.1c0,4.2,2.8,6.2,6.1,6.2
				c4.7,0,7.7-2.9,8.8-5.9c0.3-0.7,0.4-1.4,0.4-2V251.4L565.9,251.4L565.9,251.4z"/>
			<path class="st2" d="M582,263c1.9,1.3,5.4,2.6,8.6,2.6c4.8,0,7-2.3,7-5.4c0-3-1.9-4.8-6.7-6.7c-6.4-2.3-9.5-5.8-9.5-10.1
				c0-5.8,4.7-10.6,12.4-10.6c3.6,0,6.9,1,8.9,2.2l-1.6,4.8c-1.5-0.9-4.1-2-7.4-2c-3.9,0-6,2.2-6,4.9c0,2.9,2.2,4.3,6.9,6.1
				c6.3,2.3,9.5,5.5,9.5,10.9c0,6.2-5,10.7-13.6,10.7c-3.9,0-7.6-1-10.1-2.5L582,263L582,263L582,263z"/>
			<path class="st2" d="M620.4,223.5v10.3h9.3v4.9h-9.3V258c0,4.5,1.3,7,5,7c1.8,0,2.9-0.3,3.8-0.4l0.3,4.9
				c-1.3,0.6-3.2,0.9-5.8,0.9c-3.1,0-5.5-1-7.2-2.8c-1.9-1.9-2.5-5.1-2.5-9.3v-19.6h-5.5v-4.9h5.5v-8.5L620.4,223.5L620.4,223.5
				L620.4,223.5z"/>
			<path class="st2" d="M644.4,223.8c0.1,2.2-1.6,4.1-4.2,4.1c-2.3,0-3.9-1.7-3.9-4.1s1.8-4.1,4.1-4.1
				C643,219.6,644.4,221.5,644.4,223.8L644.4,223.8z M637.1,269.6v-35.8h6.6v35.8H637.1L637.1,269.6L637.1,269.6z"/>
			<path class="st2" d="M680.3,268.3c-1.8,0.9-5.5,2-10.4,2c-10.9,0-18-7.4-18-18.3c0-11,7.6-19,19.4-19c3.9,0,7.3,1,9,1.9l-1.5,5.1
				c-1.6-0.9-4.1-1.7-7.6-1.7c-8.3,0-12.7,6.1-12.7,13.6c0,8.3,5.4,13.5,12.6,13.5c3.8,0,6.1-1,8-1.7L680.3,268.3L680.3,268.3
				L680.3,268.3z"/>
			<polygon class="st2" points="680.5,211.7 661.4,200.6 661.4,222.7 680.5,211.7 			"/>
			<polygon class="st2" points="432.2,291.5 432.2,313.2 430.2,313.2 430.2,298.2 420.7,313.1 420.1,313.1 414.5,297.7 410,313.1 
				407.8,313.1 414.1,291.4 414.5,291.4 421,309 432.1,291.4 432.2,291.4 432.2,291.5 			"/>
			<path class="st2" d="M445.9,296.7c1.3,0,2.6,0.3,3.8,1c1.2,0.7,2,1.6,2.6,2.8s1,2.5,1,3.9c0,1.7-0.4,3.2-1.2,4.6
				c-0.9,1.4-1.9,2.6-3.4,3.3c-1.3,0.7-2.9,1.2-4.7,1.2c-2.2,0-3.9-0.7-5.4-2.2c-1.5-1.4-2-3.2-2-5.4c0-1.7,0.4-3.3,1.2-4.8
				c0.9-1.4,1.9-2.6,3.4-3.3C442.6,297.1,444.2,296.7,445.9,296.7L445.9,296.7z M445.8,298.6c-1.3,0-2.5,0.3-3.6,1
				c-1.2,0.6-2,1.4-2.6,2.6c-0.6,1.2-0.9,2.3-0.9,3.6c0,1.7,0.6,3,1.6,4.1c1,1,2.5,1.6,4.1,1.6c1.3,0,2.5-0.3,3.5-0.9
				c1-0.6,1.9-1.4,2.5-2.6c0.6-1.2,0.9-2.5,0.9-3.8c0-1.2-0.3-2-0.7-2.9c-0.4-0.9-1.2-1.6-2-2C447.5,298.9,446.8,298.6,445.8,298.6
				L445.8,298.6z"/>
			<path class="st2" d="M459.7,290.9h2l-1.2,8.5c1.9-1.9,4.1-2.9,6.4-2.9c2.2,0,3.9,0.7,5.4,2.2c1.5,1.4,2,3.2,2,5.4
				c0,2.6-0.9,4.8-2.8,6.5c-1.9,1.9-3.9,2.8-6.4,2.8c-1.3,0-2.5-0.3-3.5-0.9c-1-0.6-1.9-1.4-2.6-2.6l-0.4,3h-2.2L459.7,290.9
				L459.7,290.9L459.7,290.9z M466.7,298.6c-1.3,0-2.5,0.3-3.6,0.9c-1.2,0.6-2,1.4-2.6,2.8c-0.6,1.2-1,2.5-1,3.8
				c0,1.6,0.6,3,1.6,4.1c1,1,2.5,1.6,4.1,1.6c2,0,3.6-0.7,5.1-2.2s2.2-3.2,2.2-5.2c0-1.7-0.6-3-1.6-4.1S468.4,298.6,466.7,298.6
				L466.7,298.6z"/>
			<path class="st2" d="M478.8,297.1h1.9l-2,15.9h-2L478.8,297.1L478.8,297.1L478.8,297.1z M480.5,290.5c0.4,0,0.9,0.1,1.2,0.4
				c0.3,0.3,0.4,0.7,0.4,1.2s-0.1,0.9-0.4,1.2c-0.3,0.3-0.7,0.4-1.2,0.4c-0.4,0-0.9-0.1-1.2-0.4s-0.4-0.7-0.4-1.2s0.1-0.9,0.4-1.2
				S479.9,290.5,480.5,290.5L480.5,290.5z"/>
			<polygon class="st2" points="485.8,290.9 487.8,290.9 484.8,313.1 482.7,313.1 485.8,290.9 485.8,290.9 			"/>
			<path class="st2" d="M491,297.1h1.9l-2,16.1h-2L491,297.1L491,297.1L491,297.1z M492.6,290.5c0.4,0,0.9,0.1,1.2,0.4
				c0.3,0.3,0.4,0.7,0.4,1.2s-0.1,0.9-0.4,1.2c-0.3,0.3-0.7,0.4-1.2,0.4s-0.9-0.1-1.2-0.4c-0.3-0.3-0.4-0.7-0.4-1.2s0.1-0.9,0.4-1.2
				C491.8,290.6,492.2,290.5,492.6,290.5L492.6,290.5z"/>
			<polygon class="st2" points="500.1,291.1 502.1,291.1 501.2,297 504.5,297 504.2,298.7 501,298.7 499.1,312.9 497,312.9 
				498.9,298.7 496.1,298.7 496.4,297 499.2,297 500.1,291.1 500.1,291.1 			"/>
			<polygon class="st2" points="505.6,297.1 507.8,297.1 512,309 519.1,297.1 521.4,297.1 508.5,319 506.2,319 510.7,311.2 
				505.6,297.1 505.6,297.1 			"/>
			<path class="st2" d="M524,309.9c0.4,0,0.9,0.1,1.3,0.6c0.3,0.3,0.6,0.7,0.6,1.3c0,0.4-0.1,0.9-0.6,1.3c-0.3,0.3-0.7,0.6-1.3,0.6
				s-0.9-0.1-1.3-0.6c-0.3-0.3-0.6-0.7-0.6-1.3c0-0.4,0.1-0.9,0.6-1.3C523.1,310.2,523.4,309.9,524,309.9L524,309.9z"/>
			<path class="st2" d="M542.3,291.5h5.5c1.9,0,3.4,0.1,4.2,0.6c0.9,0.4,1.5,1,2,1.7c0.6,0.9,0.7,1.7,0.7,2.8c0,1.2-0.3,2.3-0.9,3.2
				c-0.6,0.9-1.5,1.7-2.5,2.3c-1,0.4-2.5,0.7-4.2,0.7l6.6,10.3h-2.5l-6.6-10.3h-1.9l-1.5,10.3h-2.2L542.3,291.5L542.3,291.5
				L542.3,291.5z M544.2,293.5l-1,7.2h2.5c1.9,0,3.1-0.1,3.6-0.3c1-0.3,1.8-0.7,2.3-1.4c0.6-0.7,0.9-1.6,0.9-2.6
				c0-1.2-0.4-1.9-1.2-2.5c-0.6-0.4-1.8-0.6-3.4-0.6h-3.8V293.5L544.2,293.5z"/>
			<path class="st2" d="M573.9,305.6h-14.5c0,1.9,0.4,3.5,1.5,4.5c1,1.2,2.3,1.6,4.1,1.6c1.2,0,2.2-0.3,3.2-0.7
				c1-0.4,1.8-1.2,2.3-1.9l1.6,1.3c-0.7,1-1.8,1.7-3.1,2.3c-1.3,0.6-2.6,0.9-4.1,0.9c-2.5,0-4.4-0.7-5.7-2.3
				c-1.3-1.6-1.9-3.3-1.9-5.2c0-1.6,0.4-3.2,1.3-4.6c0.9-1.4,2-2.6,3.5-3.5c1.5-0.9,2.9-1.2,4.7-1.2c2,0,3.8,0.7,5.1,2
				c1.3,1.4,2,3.2,2,5.4C574.1,304.5,573.9,305,573.9,305.6L573.9,305.6z M572,303.8c0-1.4-0.6-2.8-1.6-3.6s-2.2-1.4-3.6-1.4
				c-1.6,0-3.1,0.4-4.2,1.3c-1.2,0.9-2,2.2-2.6,3.8H572L572,303.8L572,303.8z"/>
			<path class="st2" d="M593.1,313.1h-2l0.3-2.5c-1.9,1.9-4.1,2.9-6.4,2.9c-2.2,0-3.9-0.7-5.4-2.2s-2-3.2-2-5.4
				c0-2.6,0.9-4.8,2.8-6.5c1.9-1.9,3.9-2.8,6.4-2.8c1.3,0,2.5,0.3,3.5,0.9c1,0.6,1.9,1.4,2.6,2.6l1.2-9.3h2.2L593.1,313.1
				L593.1,313.1L593.1,313.1z M585,311.6c1.3,0,2.5-0.3,3.6-0.9c1.2-0.6,1.9-1.4,2.6-2.8c0.6-1.2,1-2.5,1-3.8c0-1.6-0.6-3-1.6-4.1
				s-2.5-1.6-4.1-1.6c-2,0-3.6,0.7-5.1,2.2c-1.5,1.4-2.2,3.2-2.2,5.2c0,1.7,0.6,3,1.6,4.1C582,311.2,583.4,311.6,585,311.6
				L585,311.6z"/>
			<path class="st2" d="M614.5,305.6h-14.5c0,1.9,0.4,3.5,1.5,4.5c1,1.2,2.3,1.6,4.1,1.6c1.2,0,2.2-0.3,3.2-0.7
				c1-0.4,1.8-1.2,2.3-1.9l1.6,1.3c-0.7,1-1.8,1.7-3.1,2.3c-1.3,0.6-2.6,0.9-4.1,0.9c-2.5,0-4.4-0.7-5.7-2.3s-1.9-3.3-1.9-5.2
				c0-1.6,0.4-3.2,1.3-4.6c0.9-1.4,2-2.6,3.5-3.5c1.5-0.9,2.9-1.2,4.7-1.2c2,0,3.8,0.7,5.1,2c1.3,1.4,2,3.2,2,5.4
				C614.7,304.5,614.7,305,614.5,305.6L614.5,305.6z M612.6,303.8c0-1.4-0.6-2.8-1.6-3.6c-1-0.9-2.2-1.4-3.6-1.4
				c-1.6,0-3.1,0.4-4.2,1.3s-2,2.2-2.6,3.8H612.6L612.6,303.8L612.6,303.8z"/>
			<path class="st2" d="M626.9,291.5l-0.3,2c-0.7-0.7-1.5-1-2.2-1c-0.4,0-0.7,0.1-1,0.6c-0.3,0.4-0.6,1.2-0.7,2.5l-0.3,1.7h3.4
				l-0.3,1.7h-3.4l-1.9,14.2h-2l1.9-14.2h-1.9l0.3-1.7h1.9l0.1-1.4c0.3-1.6,0.4-2.8,0.7-3.3c0.3-0.6,0.7-1,1.2-1.3
				c0.6-0.3,1.2-0.6,1.8-0.6C625.2,290.5,626,290.8,626.9,291.5L626.9,291.5z"/>
			<path class="st2" d="M629,297.1h1.9l-2,16.1h-2L629,297.1L629,297.1L629,297.1z M630.6,290.5c0.4,0,0.9,0.1,1.2,0.4
				c0.3,0.3,0.4,0.7,0.4,1.2s-0.1,0.9-0.4,1.2c-0.3,0.3-0.7,0.4-1.2,0.4c-0.4,0-0.9-0.1-1.2-0.4s-0.4-0.7-0.4-1.2s0.1-0.9,0.4-1.2
				S630.1,290.5,630.6,290.5L630.6,290.5z"/>
			<path class="st2" d="M635.4,297.1h2l-0.3,2.5c1.6-1.9,3.5-2.9,5.7-2.9c1.6,0,3.1,0.6,4.1,1.6c1,1,1.6,2.3,1.6,4.1
				c0,0.7-0.1,1.9-0.3,3.5l-1,7.4H645l1-7.4c0.1-1.6,0.3-2.8,0.3-3.5c0-1.2-0.3-2-1-2.8c-0.7-0.7-1.6-1-2.6-1c-1,0-2,0.3-3.1,0.9
				c-1,0.6-1.6,1.3-2.2,2.3c-0.6,1-0.9,2.5-1.2,4.5l-0.9,7h-2L635.4,297.1L635.4,297.1L635.4,297.1z"/>
			<path class="st2" d="M668.5,305.6h-14.5c0,1.9,0.4,3.5,1.5,4.5c1,1.2,2.3,1.6,4.1,1.6c1.2,0,2.2-0.3,3.2-0.7
				c1-0.4,1.8-1.2,2.3-1.9l1.6,1.3c-0.7,1-1.8,1.7-3.1,2.3c-1.3,0.6-2.6,0.9-4.1,0.9c-2.5,0-4.4-0.7-5.7-2.3s-1.9-3.3-1.9-5.2
				c0-1.6,0.4-3.2,1.3-4.6s2-2.6,3.5-3.5c1.5-0.9,2.9-1.2,4.7-1.2c2,0,3.8,0.7,5.1,2c1.3,1.4,2,3.2,2,5.4
				C668.5,304.5,668.5,305,668.5,305.6L668.5,305.6z M666.6,303.8c0-1.4-0.6-2.8-1.6-3.6s-2.2-1.4-3.6-1.4c-1.6,0-3.1,0.4-4.2,1.3
				c-1.2,0.9-2,2.2-2.6,3.8H666.6L666.6,303.8L666.6,303.8z"/>
			<path class="st2" d="M687.5,313.1h-2l0.3-2.5c-1.9,1.9-4.1,2.9-6.4,2.9c-2.2,0-3.9-0.7-5.4-2.2s-2-3.2-2-5.4
				c0-2.6,0.9-4.8,2.8-6.5c1.9-1.9,3.9-2.8,6.4-2.8c1.3,0,2.5,0.3,3.5,0.9c1,0.6,1.9,1.4,2.6,2.6l1.2-9.3h2.2L687.5,313.1
				L687.5,313.1L687.5,313.1z M679.6,311.6c1.3,0,2.5-0.3,3.6-0.9c1.2-0.6,1.9-1.4,2.6-2.8c0.6-1.2,1-2.5,1-3.8c0-1.6-0.6-3-1.6-4.1
				c-1-1-2.5-1.6-4.1-1.6c-2,0-3.6,0.7-5.1,2.2c-1.5,1.4-2.2,3.2-2.2,5.2c0,1.7,0.6,3,1.6,4.1C676.5,311.2,677.9,311.6,679.6,311.6
				L679.6,311.6z"/>
			<path class="st2" d="M694.5,309.9c0.4,0,0.9,0.1,1.3,0.6c0.3,0.3,0.6,0.7,0.6,1.3c0,0.4-0.1,0.9-0.6,1.3
				c-0.3,0.3-0.7,0.6-1.3,0.6s-0.9-0.1-1.3-0.6c-0.3-0.3-0.6-0.7-0.6-1.3c0-0.4,0.1-0.9,0.6-1.3
				C693.5,310.2,693.9,309.9,694.5,309.9L694.5,309.9z"/>
		</g>
	</g>
</g>
<g>
	<g>
		<path class="st3" d="M372.8,476.4c-0.7,0.8-1.1,1.9-1.1,3c0,2.3,1.8,4.3,4,4.5c1,6.6,6.7,11.7,13.5,11.7h1.1
			c6.8,0,12.5-5,13.5-11.7c2.3-0.2,4-2.2,4-4.5c0-1.2-0.5-2.3-1.3-3.1c0.6-1,0.9-2.1,1.1-3.3c0.7-4.6-0.9-8.4-4.3-10.7l-0.8-1
			c-0.8-1-1.6-1.9-2.6-2.6c-6.8-5.1-18.4-3.9-24.4,2.5c-1.4,1.6-5.9,7.1-3.8,13.2C372.1,475.1,372.4,475.8,372.8,476.4z M390.3,493
			h-1.1c-4.3,0-8-2.4-9.8-6c0.6-0.1,1.2-0.3,1.8-0.5c0.7-0.3,1.4-0.6,2-1c0.8-0.5,1.7-1,3.2-1.6c0,0,0.1,0,0.1,0
			c2.1-0.8,4.5-0.8,6.6,0c0,0,0,0,0,0c0,0,0.1,0,0.1,0.1c1.4,0.6,2.4,1.1,3.2,1.6c0.7,0.4,1.3,0.7,2,1c0.6,0.2,1.2,0.4,1.8,0.5
			C398.3,490.6,394.6,493,390.3,493z M403.4,481.4c-0.1,0-0.3,0-0.4,0c-0.4-0.1-0.8,0-1.1,0.2c-0.3,0.2-0.5,0.6-0.5,1
			c0,0.7-0.1,1.3-0.3,2c-0.6-0.1-1.2-0.2-1.8-0.4c-0.6-0.2-1.1-0.5-1.7-0.9c-0.8-0.5-1.8-1-3.4-1.7c0,0-0.1,0-0.1,0
			c-2.7-1.1-5.9-1.1-8.6,0c0,0-0.1,0-0.1,0.1c-1.6,0.6-2.6,1.2-3.4,1.7c-0.6,0.4-1.1,0.6-1.7,0.9c-0.6,0.2-1.2,0.4-1.8,0.4
			c-0.2-0.6-0.3-1.3-0.3-2c0-0.4-0.2-0.7-0.5-1c-0.2-0.2-0.5-0.3-0.8-0.3c-0.1,0-0.2,0-0.3,0c-0.1,0-0.3,0-0.4,0
			c-1.1,0-1.9-0.9-1.9-1.9c0-1.1,0.9-1.9,1.9-1.9c0.1,0,0.3,0,0.4,0c0.4,0.1,0.8,0,1.1-0.3c0.3-0.2,0.5-0.6,0.5-1v-2.7
			c8.9-0.3,16.6-2.1,20.4-4.7l2.8,3.6v3.8c0,0.4,0.2,0.8,0.5,1c0.3,0.2,0.7,0.3,1.1,0.3c0.1,0,0.3,0,0.4,0c1.1,0,1.9,0.9,1.9,1.9
			S404.4,481.4,403.4,481.4z M377.6,463c5-5.5,15.2-6.5,20.9-2.2c0.8,0.6,1.5,1.3,2.1,2.1l0.9,1.2c0.1,0.1,0.2,0.2,0.3,0.3
			c3.7,2.3,3.5,6.6,3.3,8.3c-0.1,0.8-0.4,1.6-0.8,2.4c-0.1,0-0.2-0.1-0.4-0.1V472c0-0.3-0.1-0.6-0.3-0.8l-3.9-4.9
			c-0.4-0.6-1.4-0.6-2-0.2c-3.1,2.7-11.5,4.7-21.1,4.8c-0.7,0-1.2,0.5-1.2,1.2c0,0.1,0,0.2,0,0.4v2.4c-0.2,0-0.4,0.1-0.5,0.1
			c-0.3-0.5-0.5-1-0.7-1.5C372.7,468.8,376.8,463.9,377.6,463z"/>
		<circle class="st3" cx="397.2" cy="476.2" r="1.3"/>
		<circle class="st3" cx="383" cy="476.2" r="1.3"/>
		<rect x="386.9" y="485.2" class="st3" width="5.2" height="2.6"/>
		<rect x="386.9" y="489.1" class="st3" width="5.2" height="2.6"/>
		<path class="st3" d="M451.4,473c0.7-4.6-0.9-8.4-4.3-10.7l-0.8-1c-0.8-1-1.6-1.9-2.6-2.6c-6.8-5.1-18.4-3.9-24.4,2.5
			c-1.4,1.6-5.9,7.1-3.8,13.2c0.2,0.7,0.6,1.4,1,2c-0.7,0.8-1.1,1.8-1.1,3c0,2.3,1.8,4.3,4,4.5c1,6.6,6.7,11.7,13.5,11.7h1.1
			c6.8,0,12.5-5,13.5-11.7c2.3-0.2,4-2.2,4-4.5c0-1.2-0.5-2.3-1.3-3.1C450.8,475.3,451.2,474.2,451.4,473z M421.3,463
			c5-5.5,15.2-6.5,20.9-2.2c0.8,0.6,1.5,1.3,2.1,2.1l0.9,1.2c0.1,0.1,0.2,0.2,0.3,0.3c3.7,2.3,3.5,6.6,3.3,8.3
			c-0.1,0.8-0.4,1.6-0.8,2.4c-0.1,0-0.2-0.1-0.4-0.1V472c0-0.3-0.1-0.6-0.3-0.8l-3.9-4.9c-0.4-0.6-1.4-0.6-2-0.2
			c-3.1,2.7-11.5,4.7-21.1,4.8c-0.7,0-1.2,0.5-1.2,1.2c0,0.1,0,0.2,0,0.4v2.4c-0.2,0-0.4,0.1-0.5,0.1c-0.3-0.5-0.5-1-0.7-1.5
			C416.4,468.8,420.5,463.9,421.3,463z M434,493h-1.1c-4.3,0-8-2.4-9.8-6c0.6-0.1,1.2-0.3,1.8-0.5c0.7-0.3,1.4-0.6,2-1
			c0.8-0.5,1.7-1,3.2-1.6c0,0,0.1,0,0.1,0c2.1-0.8,4.5-0.8,6.6,0c0,0,0,0,0,0c0,0,0.1,0,0.1,0.1c1.4,0.6,2.4,1.1,3.2,1.6
			c0.7,0.4,1.3,0.7,2,1c0.6,0.2,1.2,0.4,1.8,0.5C442,490.6,438.3,493,434,493z M447,481.4c-0.1,0-0.3,0-0.4,0
			c-0.4-0.1-0.8,0-1.1,0.2c-0.3,0.2-0.5,0.6-0.5,1c0,0.7-0.1,1.3-0.3,2c-0.6-0.1-1.2-0.2-1.8-0.4c-0.6-0.2-1.1-0.5-1.7-0.9
			c-0.8-0.5-1.8-1-3.4-1.7c0,0-0.1,0-0.1,0c-2.7-1.1-5.9-1.1-8.6,0c0,0-0.1,0-0.1,0.1c-1.6,0.6-2.6,1.2-3.4,1.7
			c-0.6,0.4-1.1,0.6-1.7,0.9c-0.6,0.2-1.2,0.4-1.8,0.4c-0.2-0.6-0.3-1.3-0.3-2c0-0.4-0.2-0.7-0.5-1c-0.2-0.2-0.5-0.3-0.8-0.3
			c-0.1,0-0.2,0-0.3,0c-0.1,0-0.3,0-0.4,0c-1.1,0-1.9-0.9-1.9-1.9c0-1.1,0.9-1.9,1.9-1.9c0.1,0,0.3,0,0.4,0c0.4,0.1,0.8,0,1.1-0.3
			c0.3-0.2,0.5-0.6,0.5-1v-2.7c8.9-0.3,16.6-2.1,20.4-4.7l2.8,3.6v3.8c0,0.4,0.2,0.8,0.5,1c0.3,0.2,0.7,0.3,1.1,0.3
			c0.1,0,0.3,0,0.4,0c1.1,0,1.9,0.9,1.9,1.9C449,480.5,448.1,481.4,447,481.4z"/>
		<circle class="st3" cx="439.9" cy="476.2" r="1.3"/>
		<circle class="st3" cx="427" cy="476.2" r="1.3"/>
		<rect x="430.9" y="485.2" class="st3" width="5.2" height="2.6"/>
		<rect x="430.9" y="489.1" class="st3" width="5.2" height="2.6"/>
		<path class="st3" d="M386.1,435.8l9.1,6.5c0.4,0.3,0.9,0.3,1.3,0.1c0.4-0.2,0.7-0.7,0.7-1.1v-2.6h28.5v2.6c0,0.5,0.3,0.9,0.7,1.1
			c0.2,0.1,0.4,0.1,0.6,0.1c0.3,0,0.5-0.1,0.8-0.2l9.1-6.5c0.3-0.2,0.5-0.6,0.5-1.1c0-0.4-0.2-0.8-0.5-1.1l-9.1-6.5
			c-0.4-0.3-0.9-0.3-1.3-0.1c-0.4,0.2-0.7,0.7-0.7,1.1v2.6h-28.5v-2.6c0-0.5-0.3-0.9-0.7-1.1c-0.4-0.2-0.9-0.2-1.3,0.1l-9.1,6.5
			c-0.3,0.2-0.5,0.6-0.5,1.1C385.6,435.2,385.8,435.6,386.1,435.8z M394.6,430.8v1.4c0,0.7,0.6,1.3,1.3,1.3h31
			c0.7,0,1.3-0.6,1.3-1.3v-1.4l5.5,4l-5.5,4v-1.4c0-0.7-0.6-1.3-1.3-1.3h-31c-0.7,0-1.3,0.6-1.3,1.3v1.4l-5.5-4L394.6,430.8z"/>
	</g>
	<g>
		<path d="M381.8,508.8h5v1.9h-3.1v1.8h3.1v1.8h-3.1v4.5h-1.9V508.8z"/>
		<path d="M393.8,511.5h1.9v7.4h-1.9v-0.8c-0.4,0.3-0.7,0.6-1.1,0.7c-0.4,0.2-0.8,0.2-1.2,0.2c-1,0-1.8-0.4-2.5-1.1
			c-0.7-0.7-1.1-1.7-1.1-2.8c0-1.1,0.3-2.1,1-2.8s1.5-1.1,2.5-1.1c0.4,0,0.9,0.1,1.3,0.3c0.4,0.2,0.8,0.4,1.1,0.8V511.5z M391.8,513
			c-0.6,0-1.1,0.2-1.4,0.6c-0.4,0.4-0.6,0.9-0.6,1.6c0,0.6,0.2,1.2,0.6,1.6c0.4,0.4,0.9,0.6,1.4,0.6c0.6,0,1.1-0.2,1.5-0.6
			c0.4-0.4,0.6-0.9,0.6-1.6c0-0.6-0.2-1.2-0.6-1.6C392.9,513.2,392.4,513,391.8,513z"/>
		<path d="M404.8,513l-1.6,0.9c-0.3-0.3-0.6-0.5-0.9-0.6s-0.6-0.2-1-0.2c-0.7,0-1.3,0.2-1.7,0.6c-0.4,0.4-0.6,0.9-0.6,1.6
			c0,0.6,0.2,1.1,0.6,1.5c0.4,0.4,1,0.6,1.6,0.6c0.8,0,1.5-0.3,2-0.9l1.5,1c-0.8,1-1.9,1.6-3.4,1.6c-1.3,0-2.3-0.4-3.1-1.2
			s-1.1-1.7-1.1-2.7c0-0.7,0.2-1.4,0.5-2s0.9-1.1,1.5-1.4s1.4-0.5,2.2-0.5c0.7,0,1.4,0.1,2,0.4C404,512,404.5,512.4,404.8,513z"/>
		<path d="M407.3,508.4c0.3,0,0.6,0.1,0.8,0.4s0.4,0.5,0.4,0.9c0,0.3-0.1,0.6-0.3,0.9c-0.2,0.2-0.5,0.4-0.8,0.4
			c-0.3,0-0.6-0.1-0.8-0.4c-0.2-0.2-0.4-0.5-0.4-0.9c0-0.3,0.1-0.6,0.3-0.8C406.6,508.5,406.9,508.4,407.3,508.4z M406.3,511.5h1.9
			v7.4h-1.9V511.5z"/>
		<path d="M409.7,508.6h1.9v10.3h-1.9V508.6z"/>
		<path d="M414,508.4c0.3,0,0.6,0.1,0.8,0.4s0.4,0.5,0.4,0.9c0,0.3-0.1,0.6-0.3,0.9c-0.2,0.2-0.5,0.4-0.8,0.4
			c-0.3,0-0.6-0.1-0.8-0.4c-0.2-0.2-0.4-0.5-0.4-0.9c0-0.3,0.1-0.6,0.3-0.8C413.4,508.5,413.6,508.4,414,508.4z M413,511.5h1.9v7.4
			H413V511.5z"/>
		<path d="M416.8,508.7h1.9v2.7h1.1v1.6h-1.1v5.8h-1.9v-5.8h-1v-1.6h1V508.7z"/>
		<path d="M426.3,511.5h1.9v7.4h-1.9v-0.8c-0.4,0.3-0.7,0.6-1.1,0.7c-0.4,0.2-0.8,0.2-1.2,0.2c-1,0-1.8-0.4-2.5-1.1
			c-0.7-0.7-1.1-1.7-1.1-2.8c0-1.1,0.3-2.1,1-2.8s1.5-1.1,2.5-1.1c0.4,0,0.9,0.1,1.3,0.3c0.4,0.2,0.8,0.4,1.1,0.8V511.5z M424.3,513
			c-0.6,0-1.1,0.2-1.4,0.6c-0.4,0.4-0.6,0.9-0.6,1.6c0,0.6,0.2,1.2,0.6,1.6c0.4,0.4,0.9,0.6,1.4,0.6c0.6,0,1.1-0.2,1.5-0.6
			c0.4-0.4,0.6-0.9,0.6-1.6c0-0.6-0.2-1.2-0.6-1.6C425.4,513.2,424.9,513,424.3,513z"/>
		<path d="M430.3,508.7h1.9v2.7h1.1v1.6h-1.1v5.8h-1.9v-5.8h-1v-1.6h1V508.7z"/>
		<path d="M441.7,515.7h-6c0.1,0.5,0.3,0.9,0.7,1.3c0.4,0.3,0.9,0.5,1.4,0.5c0.7,0,1.3-0.2,1.8-0.7l1.6,0.7c-0.4,0.6-0.9,1-1.4,1.2
			c-0.5,0.3-1.2,0.4-1.9,0.4c-1.2,0-2.1-0.4-2.9-1.1c-0.7-0.7-1.1-1.7-1.1-2.8c0-1.1,0.4-2.1,1.1-2.8c0.7-0.8,1.6-1.1,2.8-1.1
			c1.2,0,2.1,0.4,2.9,1.1c0.7,0.7,1.1,1.7,1.1,3L441.7,515.7z M439.8,514.2c-0.1-0.4-0.4-0.8-0.7-1c-0.4-0.3-0.8-0.4-1.3-0.4
			c-0.5,0-1,0.1-1.4,0.4c-0.2,0.2-0.5,0.5-0.7,1H439.8z"/>
		<path d="M359.8,527l-1.4,1.3c-0.5-0.7-1-1-1.5-1c-0.3,0-0.5,0.1-0.6,0.2c-0.2,0.1-0.2,0.3-0.2,0.5s0.1,0.3,0.2,0.5
			c0.2,0.2,0.6,0.6,1.4,1.3c0.7,0.6,1.2,1,1.3,1.2c0.4,0.4,0.7,0.8,0.8,1.1c0.2,0.4,0.2,0.7,0.2,1.2c0,0.8-0.3,1.5-0.9,2
			s-1.3,0.8-2.2,0.8c-0.7,0-1.3-0.2-1.9-0.5c-0.5-0.4-1-0.9-1.4-1.7l1.6-1c0.5,0.9,1,1.3,1.7,1.3c0.3,0,0.6-0.1,0.8-0.3
			s0.3-0.4,0.3-0.7c0-0.2-0.1-0.5-0.3-0.7s-0.5-0.6-1.1-1c-1.1-0.9-1.8-1.6-2.1-2.1c-0.3-0.5-0.5-1-0.5-1.5c0-0.7,0.3-1.3,0.8-1.8
			c0.5-0.5,1.2-0.7,2-0.7c0.5,0,1,0.1,1.4,0.3C358.8,526,359.3,526.4,359.8,527z"/>
		<path d="M365.1,528.1c0.7,0,1.4,0.2,2,0.5s1.1,0.8,1.4,1.4s0.5,1.3,0.5,1.9c0,0.7-0.2,1.4-0.5,2s-0.8,1.1-1.4,1.4
			c-0.6,0.3-1.3,0.5-2,0.5c-1.1,0-2-0.4-2.7-1.1c-0.8-0.8-1.1-1.7-1.1-2.8c0-1.2,0.4-2.1,1.3-2.9
			C363.2,528.4,364.1,528.1,365.1,528.1z M365.1,529.8c-0.6,0-1.1,0.2-1.4,0.6c-0.4,0.4-0.6,0.9-0.6,1.5c0,0.6,0.2,1.2,0.6,1.6
			c0.4,0.4,0.9,0.6,1.4,0.6s1.1-0.2,1.5-0.6s0.6-0.9,0.6-1.6s-0.2-1.2-0.6-1.6C366.2,530,365.7,529.8,365.1,529.8z"/>
		<path d="M377.8,529.8l-1.6,0.9c-0.3-0.3-0.6-0.5-0.9-0.6s-0.6-0.2-1-0.2c-0.7,0-1.3,0.2-1.7,0.6c-0.4,0.4-0.6,0.9-0.6,1.6
			c0,0.6,0.2,1.1,0.6,1.5c0.4,0.4,1,0.6,1.6,0.6c0.8,0,1.5-0.3,2-0.9l1.5,1c-0.8,1-1.9,1.6-3.4,1.6c-1.3,0-2.3-0.4-3.1-1.2
			s-1.1-1.7-1.1-2.7c0-0.7,0.2-1.4,0.5-2s0.9-1.1,1.5-1.4s1.4-0.5,2.2-0.5c0.7,0,1.4,0.1,2,0.4C377,528.8,377.4,529.2,377.8,529.8z"
			/>
		<path d="M380.2,525.2c0.3,0,0.6,0.1,0.8,0.4s0.4,0.5,0.4,0.9c0,0.3-0.1,0.6-0.3,0.9c-0.2,0.2-0.5,0.4-0.8,0.4
			c-0.3,0-0.6-0.1-0.8-0.4c-0.2-0.2-0.4-0.5-0.4-0.9c0-0.3,0.1-0.6,0.3-0.8C379.6,525.3,379.9,525.2,380.2,525.2z M379.3,528.3h1.9
			v7.4h-1.9V528.3z"/>
		<path d="M388.3,528.3h1.9v7.4h-1.9v-0.8c-0.4,0.3-0.7,0.6-1.1,0.7c-0.4,0.2-0.8,0.2-1.2,0.2c-1,0-1.8-0.4-2.5-1.1
			c-0.7-0.7-1.1-1.7-1.1-2.8c0-1.1,0.3-2.1,1-2.8s1.5-1.1,2.5-1.1c0.4,0,0.9,0.1,1.3,0.3c0.4,0.2,0.8,0.4,1.1,0.8V528.3z
			 M386.4,529.8c-0.6,0-1.1,0.2-1.4,0.6c-0.4,0.4-0.6,0.9-0.6,1.6c0,0.6,0.2,1.2,0.6,1.6c0.4,0.4,0.9,0.6,1.4,0.6
			c0.6,0,1.1-0.2,1.5-0.6c0.4-0.4,0.6-0.9,0.6-1.6c0-0.6-0.2-1.2-0.6-1.6C387.5,530,387,529.8,386.4,529.8z"/>
		<path d="M391.9,525.4h1.9v10.3h-1.9V525.4z"/>
		<path d="M399.6,525.6h2.3c1.5,0,2.5,0.2,3.3,0.5c0.7,0.4,1.3,1,1.8,1.8s0.7,1.8,0.7,2.9c0,0.8-0.1,1.5-0.4,2.1
			c-0.3,0.7-0.6,1.2-1.1,1.6s-0.9,0.7-1.5,0.9s-1.4,0.2-2.7,0.2h-2.3V525.6z M401.5,527.5v6.3h0.9c0.9,0,1.5-0.1,1.9-0.3
			c0.4-0.2,0.7-0.5,1-1c0.3-0.5,0.4-1.1,0.4-1.8c0-1.1-0.3-1.9-0.9-2.5c-0.5-0.5-1.4-0.8-2.6-0.8H401.5z"/>
		<path d="M409.9,525.2c0.3,0,0.6,0.1,0.8,0.4s0.4,0.5,0.4,0.9c0,0.3-0.1,0.6-0.3,0.9c-0.2,0.2-0.5,0.4-0.8,0.4
			c-0.3,0-0.6-0.1-0.8-0.4c-0.2-0.2-0.4-0.5-0.4-0.9c0-0.3,0.1-0.6,0.3-0.8C409.3,525.3,409.6,525.2,409.9,525.2z M409,528.3h1.9
			v7.4H409V528.3z"/>
		<path d="M417.1,529.3l-1.2,1.2c-0.5-0.5-0.9-0.7-1.3-0.7c-0.2,0-0.4,0-0.5,0.1c-0.1,0.1-0.2,0.2-0.2,0.3c0,0.1,0,0.2,0.1,0.3
			c0.1,0.1,0.3,0.2,0.6,0.3l0.7,0.3c0.7,0.4,1.2,0.7,1.5,1.1s0.4,0.8,0.4,1.3c0,0.7-0.2,1.2-0.7,1.7s-1.1,0.7-2,0.7
			c-1.1,0-2-0.4-2.6-1.3l1.1-1.3c0.2,0.3,0.5,0.5,0.8,0.6c0.3,0.2,0.6,0.2,0.8,0.2c0.2,0,0.4-0.1,0.6-0.2s0.2-0.3,0.2-0.4
			c0-0.3-0.3-0.6-0.8-0.8l-0.6-0.3c-1.2-0.6-1.8-1.4-1.8-2.3c0-0.6,0.2-1.1,0.7-1.5c0.5-0.4,1-0.6,1.7-0.6c0.5,0,0.9,0.1,1.4,0.3
			C416.4,528.6,416.8,528.9,417.1,529.3z"/>
		<path d="M418.9,525.5h1.9v2.7h1.1v1.6h-1.1v5.8h-1.9v-5.8h-1v-1.6h1V525.5z"/>
		<path d="M428.4,528.3h1.9v7.4h-1.9v-0.8c-0.4,0.3-0.7,0.6-1.1,0.7c-0.4,0.2-0.8,0.2-1.2,0.2c-1,0-1.8-0.4-2.5-1.1
			c-0.7-0.7-1.1-1.7-1.1-2.8c0-1.1,0.3-2.1,1-2.8s1.5-1.1,2.5-1.1c0.4,0,0.9,0.1,1.3,0.3c0.4,0.2,0.8,0.4,1.1,0.8V528.3z
			 M426.4,529.8c-0.6,0-1.1,0.2-1.4,0.6c-0.4,0.4-0.6,0.9-0.6,1.6c0,0.6,0.2,1.2,0.6,1.6c0.4,0.4,0.9,0.6,1.4,0.6
			c0.6,0,1.1-0.2,1.5-0.6c0.4-0.4,0.6-0.9,0.6-1.6c0-0.6-0.2-1.2-0.6-1.6C427.5,530,427,529.8,426.4,529.8z"/>
		<path d="M432.1,528.3h1.9v0.8c0.4-0.4,0.8-0.6,1.2-0.7c0.3-0.1,0.7-0.2,1.1-0.2c0.7,0,1.4,0.3,1.9,0.8c0.4,0.4,0.6,1.1,0.6,1.9
			v4.9h-1.8v-3.3c0-0.9,0-1.5-0.1-1.8s-0.2-0.5-0.4-0.7c-0.2-0.2-0.4-0.2-0.7-0.2c-0.4,0-0.7,0.1-1,0.4s-0.5,0.6-0.6,1
			c-0.1,0.2-0.1,0.7-0.1,1.5v3h-1.9V528.3z"/>
		<path d="M447.8,529.8l-1.6,0.9c-0.3-0.3-0.6-0.5-0.9-0.6s-0.6-0.2-1-0.2c-0.7,0-1.3,0.2-1.7,0.6c-0.4,0.4-0.6,0.9-0.6,1.6
			c0,0.6,0.2,1.1,0.6,1.5c0.4,0.4,1,0.6,1.6,0.6c0.8,0,1.5-0.3,2-0.9l1.5,1c-0.8,1-1.9,1.6-3.4,1.6c-1.3,0-2.3-0.4-3.1-1.2
			s-1.1-1.7-1.1-2.7c0-0.7,0.2-1.4,0.5-2s0.9-1.1,1.5-1.4s1.4-0.5,2.2-0.5c0.7,0,1.4,0.1,2,0.4C447,528.8,447.4,529.2,447.8,529.8z"
			/>
		<path d="M450.2,525.2c0.3,0,0.6,0.1,0.8,0.4s0.4,0.5,0.4,0.9c0,0.3-0.1,0.6-0.3,0.9c-0.2,0.2-0.5,0.4-0.8,0.4
			c-0.3,0-0.6-0.1-0.8-0.4c-0.2-0.2-0.4-0.5-0.4-0.9c0-0.3,0.1-0.6,0.3-0.8C449.6,525.3,449.9,525.2,450.2,525.2z M449.3,528.3h1.9
			v7.4h-1.9V528.3z"/>
		<path d="M452.9,528.3h1.9v0.8c0.4-0.4,0.8-0.6,1.2-0.7c0.3-0.1,0.7-0.2,1.1-0.2c0.7,0,1.4,0.3,1.9,0.8c0.4,0.4,0.6,1.1,0.6,1.9
			v4.9h-1.8v-3.3c0-0.9,0-1.5-0.1-1.8s-0.2-0.5-0.4-0.7c-0.2-0.2-0.4-0.2-0.7-0.2c-0.4,0-0.7,0.1-1,0.4s-0.5,0.6-0.6,1
			c-0.1,0.2-0.1,0.7-0.1,1.5v3h-1.9V528.3z"/>
		<path d="M466.7,528.3h1.9v6.4c0,1.3-0.3,2.2-0.8,2.8c-0.7,0.8-1.7,1.2-3.1,1.2c-0.7,0-1.3-0.1-1.8-0.3s-0.9-0.5-1.3-0.8
			c-0.3-0.4-0.6-0.8-0.8-1.3h2.1c0.2,0.2,0.4,0.4,0.7,0.5c0.3,0.1,0.6,0.2,1,0.2c0.5,0,0.9-0.1,1.2-0.2s0.5-0.4,0.6-0.6
			s0.2-0.7,0.2-1.3c-0.3,0.3-0.7,0.6-1,0.7c-0.4,0.1-0.8,0.2-1.2,0.2c-1,0-1.8-0.4-2.5-1.1s-1-1.6-1-2.7c0-1.2,0.4-2.1,1.1-2.8
			c0.7-0.6,1.4-1,2.4-1c0.4,0,0.8,0.1,1.2,0.2c0.4,0.2,0.8,0.4,1.1,0.8V528.3z M464.8,529.8c-0.6,0-1.1,0.2-1.5,0.6
			c-0.4,0.4-0.6,0.9-0.6,1.5c0,0.6,0.2,1.1,0.6,1.5s0.9,0.6,1.5,0.6c0.6,0,1.1-0.2,1.4-0.6s0.6-0.9,0.6-1.5c0-0.6-0.2-1.1-0.6-1.5
			S465.4,529.8,464.8,529.8z"/>
	</g>
</g>
<circle class="st0" cx="540.2" cy="70.8" r="61.8"/>
<g>
	<circle class="st0" cx="76.5" cy="181.1" r="76.5"/>
	<g>
		<g>
			<path class="st3" d="M111.1,174v-27.2c4.7-0.7,8.3-4.7,8.3-9.6c0-5.3-4.3-9.7-9.7-9.7s-9.7,4.3-9.7,9.7H33.6v55.4h41.6
				c0.7,11.6,10.3,20.8,22.1,20.8c12.2,0,22.2-9.9,22.2-22.2C119.4,184.3,116.2,178.1,111.1,174z M109.7,130.3
				c3.8,0,6.9,3.1,6.9,6.9c0,3.8-3.1,6.9-6.9,6.9c-3.8,0-6.9-3.1-6.9-6.9C102.8,133.4,105.9,130.3,109.7,130.3z M36.3,140h64.1
				c0.3,1.1,0.9,2.1,1.5,3l-8.5,8.5c-0.5-0.3-1.1-0.4-1.8-0.4s-1.2,0.2-1.8,0.4l-2.8-2.8c0.3-0.5,0.4-1.1,0.4-1.8
				c0-2.3-1.9-4.2-4.2-4.2c-2.3,0-4.2,1.9-4.2,4.2c0,0.6,0.2,1.2,0.4,1.8l-6.9,6.9c-0.5-0.3-1.1-0.4-1.8-0.4c-2.3,0-4.2,1.9-4.2,4.2
				s1.9,4.2,4.2,4.2c2.3,0,4.2-1.9,4.2-4.2c0-0.6-0.2-1.2-0.4-1.8l6.9-6.9c0.5,0.3,1.1,0.4,1.8,0.4s1.2-0.2,1.8-0.4l2.8,2.8
				c-0.3,0.5-0.4,1.1-0.4,1.8c0,2.3,1.9,4.2,4.2,4.2c2.3,0,4.2-1.9,4.2-4.2c0-0.6-0.2-1.2-0.4-1.8l8.5-8.5c1.3,0.9,2.8,1.6,4.4,1.8
				v25.3c-3.3-1.9-7-3-11.1-3c-6.6,0-12.6,2.9-16.6,7.6v-6.2h-8.3v16.6h3.2c-0.2,0.9-0.3,1.8-0.3,2.8H36.3V140z M91.7,153.9
				c0.8,0,1.4,0.6,1.4,1.4c0,0.8-0.6,1.4-1.4,1.4c-0.8,0-1.4-0.6-1.4-1.4C90.3,154.5,91,153.9,91.7,153.9z M82,147
				c0-0.8,0.6-1.4,1.4-1.4c0.8,0,1.4,0.6,1.4,1.4c0,0.8-0.6,1.4-1.4,1.4C82.7,148.3,82,147.7,82,147z M72.3,159.4
				c0,0.8-0.6,1.4-1.4,1.4s-1.4-0.6-1.4-1.4s0.6-1.4,1.4-1.4S72.3,158.7,72.3,159.4z M97.3,202.3c-6.1,0-11.1-5-11.1-11.1
				c0-6.1,5-11.1,11.1-11.1s11.1,5,11.1,11.1C108.3,197.4,103.4,202.3,97.3,202.3z M77.9,180.6c-0.7,1.2-1.2,2.5-1.6,3.8h-1.1v-11.1
				h2.8V180.6z M95.9,172v5.5c-7,0.7-12.5,6.6-12.5,13.8c0,2,0.4,3.9,1.2,5.7l-4.8,2.8c-1.2-2.6-2-5.4-2-8.5
				C77.9,181,85.8,172.7,95.9,172z M97.3,210.7c-6.7,0-12.6-3.4-16-8.5l4.8-2.8c2.5,3.5,6.6,5.8,11.2,5.8s8.7-2.3,11.2-5.8l4.8,2.8
				C109.8,207.3,103.9,210.7,97.3,210.7z M114.7,199.7l-4.8-2.8c0.8-1.7,1.2-3.7,1.2-5.7c0-7.2-5.5-13.1-12.5-13.8V172
				c10,0.7,18,9.1,18,19.3C116.7,194.3,115.9,197.2,114.7,199.7z"/>
			<path class="st3" d="M97.3,183c-4.6,0-8.3,3.7-8.3,8.3c0,4.6,3.7,8.3,8.3,8.3c4.6,0,8.3-3.7,8.3-8.3
				C105.6,186.7,101.9,183,97.3,183z M97.3,196.8c-3.1,0-5.5-2.5-5.5-5.5c0-3.1,2.5-5.5,5.5-5.5c3.1,0,5.5,2.5,5.5,5.5
				C102.8,194.3,100.3,196.8,97.3,196.8z"/>
			<rect x="39.1" y="142.8" class="st3" width="2.8" height="2.8"/>
			<rect x="44.7" y="142.8" class="st3" width="19.4" height="2.8"/>
			<rect x="39.1" y="148.3" class="st3" width="2.8" height="2.8"/>
			<rect x="44.7" y="148.3" class="st3" width="19.4" height="2.8"/>
			<rect x="39.1" y="153.9" class="st3" width="2.8" height="2.8"/>
			<rect x="44.7" y="153.9" class="st3" width="19.4" height="2.8"/>
			<rect x="39.1" y="159.4" class="st3" width="2.8" height="2.8"/>
			<rect x="44.7" y="159.4" class="st3" width="19.4" height="2.8"/>
			<path class="st3" d="M39.1,187.1h8.3v-13.8h-8.3V187.1z M41.9,176h2.8v8.3h-2.8V176z"/>
			<path class="st3" d="M50.2,187.1h8.3V176h-8.3V187.1z M53,178.8h2.8v5.5H53V178.8z"/>
			<path class="st3" d="M61.3,187.1h8.3V165h-8.3V187.1z M64,167.7h2.8v16.6H64V167.7z"/>
		</g>
		<g>
			<path d="M25.1,220.2h1.9v8.2h2.8v1.8h-4.7V220.2z"/>
			<path d="M31.8,219.8c0.3,0,0.6,0.1,0.8,0.4c0.2,0.2,0.4,0.5,0.4,0.9c0,0.3-0.1,0.6-0.3,0.9c-0.2,0.2-0.5,0.4-0.8,0.4
				c-0.3,0-0.6-0.1-0.8-0.4c-0.2-0.2-0.4-0.5-0.4-0.9c0-0.3,0.1-0.6,0.3-0.8S31.5,219.8,31.8,219.8z M30.9,222.9h1.9v7.4h-1.9V222.9
				z"/>
			<path d="M33.7,222.9h1.9l1.9,4.4l1.9-4.4h1.9l-3.2,7.4h-1.2L33.7,222.9z"/>
			<path d="M49.7,227.1h-6c0.1,0.5,0.3,0.9,0.7,1.3s0.9,0.5,1.4,0.5c0.7,0,1.3-0.2,1.8-0.7l1.6,0.7c-0.4,0.6-0.9,1-1.4,1.2
				s-1.2,0.4-1.9,0.4c-1.2,0-2.1-0.4-2.9-1.1c-0.7-0.7-1.1-1.7-1.1-2.8c0-1.1,0.4-2.1,1.1-2.8s1.6-1.1,2.8-1.1
				c1.2,0,2.1,0.4,2.9,1.1c0.7,0.7,1.1,1.7,1.1,3L49.7,227.1z M47.9,225.6c-0.1-0.4-0.4-0.8-0.7-1c-0.4-0.3-0.8-0.4-1.3-0.4
				c-0.5,0-1,0.1-1.4,0.4c-0.2,0.2-0.5,0.5-0.7,1H47.9z"/>
			<path d="M55.4,220.2h2.3c1.5,0,2.5,0.2,3.3,0.5c0.7,0.4,1.3,1,1.8,1.8s0.7,1.8,0.7,2.9c0,0.8-0.1,1.5-0.4,2.1s-0.6,1.2-1.1,1.6
				s-0.9,0.7-1.5,0.9s-1.4,0.2-2.7,0.2h-2.3V220.2z M57.3,222.1v6.3h0.9c0.9,0,1.5-0.1,1.9-0.3c0.4-0.2,0.7-0.5,1-1
				c0.3-0.5,0.4-1.1,0.4-1.8c0-1.1-0.3-1.9-0.9-2.5c-0.5-0.5-1.4-0.8-2.6-0.8H57.3z"/>
			<path d="M70.5,222.9h1.9v7.4h-1.9v-0.8c-0.4,0.3-0.7,0.6-1.1,0.7s-0.8,0.2-1.2,0.2c-1,0-1.8-0.4-2.5-1.1s-1.1-1.7-1.1-2.8
				c0-1.1,0.3-2.1,1-2.8c0.7-0.7,1.5-1.1,2.5-1.1c0.4,0,0.9,0.1,1.3,0.3c0.4,0.2,0.8,0.4,1.1,0.8V222.9z M68.5,224.4
				c-0.6,0-1.1,0.2-1.4,0.6c-0.4,0.4-0.6,0.9-0.6,1.6c0,0.6,0.2,1.2,0.6,1.6c0.4,0.4,0.9,0.6,1.4,0.6c0.6,0,1.1-0.2,1.5-0.6
				s0.6-0.9,0.6-1.6c0-0.6-0.2-1.2-0.6-1.6S69.1,224.4,68.5,224.4z"/>
			<path d="M78.8,223.9l-1.2,1.2c-0.5-0.5-0.9-0.7-1.3-0.7c-0.2,0-0.4,0-0.5,0.1c-0.1,0.1-0.2,0.2-0.2,0.3c0,0.1,0,0.2,0.1,0.3
				s0.3,0.2,0.6,0.3l0.7,0.3c0.7,0.4,1.2,0.7,1.5,1.1c0.3,0.4,0.4,0.8,0.4,1.3c0,0.7-0.2,1.2-0.7,1.7s-1.1,0.7-2,0.7
				c-1.1,0-2-0.4-2.6-1.3l1.1-1.3c0.2,0.3,0.5,0.5,0.8,0.6s0.6,0.2,0.8,0.2c0.2,0,0.4-0.1,0.6-0.2s0.2-0.3,0.2-0.4
				c0-0.3-0.3-0.6-0.8-0.8l-0.6-0.3c-1.2-0.6-1.8-1.4-1.8-2.3c0-0.6,0.2-1.1,0.7-1.5c0.5-0.4,1-0.6,1.7-0.6c0.5,0,0.9,0.1,1.4,0.3
				C78.1,223.2,78.5,223.5,78.8,223.9z"/>
			<path d="M80.4,220h1.9v3.6c0.4-0.3,0.7-0.6,1.1-0.7s0.7-0.2,1.1-0.2c0.7,0,1.4,0.3,1.9,0.8c0.4,0.4,0.6,1.1,0.6,1.9v4.9h-1.8V227
				c0-0.9,0-1.4-0.1-1.8s-0.2-0.5-0.4-0.7s-0.4-0.2-0.7-0.2c-0.4,0-0.7,0.1-1,0.4c-0.3,0.3-0.5,0.6-0.6,1c-0.1,0.2-0.1,0.7-0.1,1.5
				v3h-1.9V220z"/>
			<path d="M90.6,220v3.7c0.3-0.3,0.7-0.6,1.1-0.8c0.4-0.2,0.8-0.3,1.3-0.3c1,0,1.8,0.4,2.5,1.1c0.7,0.7,1,1.7,1,2.8
				c0,1.1-0.4,2-1.1,2.8c-0.7,0.7-1.5,1.1-2.5,1.1c-0.4,0-0.8-0.1-1.2-0.2s-0.7-0.4-1.1-0.7v0.8h-1.9V220H90.6z M92.6,224.4
				c-0.6,0-1.1,0.2-1.5,0.6c-0.4,0.4-0.6,0.9-0.6,1.6c0,0.7,0.2,1.2,0.6,1.6c0.4,0.4,0.9,0.6,1.5,0.6c0.6,0,1-0.2,1.4-0.6
				s0.6-0.9,0.6-1.6c0-0.6-0.2-1.2-0.6-1.6S93.2,224.4,92.6,224.4z"/>
			<path d="M101.5,222.7c0.7,0,1.4,0.2,2,0.5c0.6,0.4,1.1,0.8,1.4,1.4c0.3,0.6,0.5,1.3,0.5,1.9c0,0.7-0.2,1.4-0.5,2
				s-0.8,1.1-1.4,1.4s-1.3,0.5-2,0.5c-1.1,0-2-0.4-2.7-1.1c-0.8-0.8-1.1-1.7-1.1-2.8c0-1.2,0.4-2.1,1.3-2.9
				C99.7,223,100.5,222.7,101.5,222.7z M101.5,224.4c-0.6,0-1.1,0.2-1.4,0.6s-0.6,0.9-0.6,1.5c0,0.6,0.2,1.2,0.6,1.6
				c0.4,0.4,0.9,0.6,1.4,0.6c0.6,0,1.1-0.2,1.5-0.6c0.4-0.4,0.6-0.9,0.6-1.6s-0.2-1.2-0.6-1.6C102.6,224.6,102.1,224.4,101.5,224.4z
				"/>
			<path d="M112.5,222.9h1.9v7.4h-1.9v-0.8c-0.4,0.3-0.7,0.6-1.1,0.7s-0.8,0.2-1.2,0.2c-1,0-1.8-0.4-2.5-1.1s-1.1-1.7-1.1-2.8
				c0-1.1,0.3-2.1,1-2.8c0.7-0.7,1.5-1.1,2.5-1.1c0.4,0,0.9,0.1,1.3,0.3c0.4,0.2,0.8,0.4,1.1,0.8V222.9z M110.5,224.4
				c-0.6,0-1.1,0.2-1.4,0.6c-0.4,0.4-0.6,0.9-0.6,1.6c0,0.6,0.2,1.2,0.6,1.6c0.4,0.4,0.9,0.6,1.4,0.6c0.6,0,1.1-0.2,1.5-0.6
				s0.6-0.9,0.6-1.6c0-0.6-0.2-1.2-0.6-1.6S111.1,224.4,110.5,224.4z"/>
			<path d="M115.8,222.9h1.6v0.9c0.2-0.4,0.4-0.6,0.7-0.8s0.6-0.3,0.9-0.3c0.2,0,0.5,0.1,0.8,0.2l-0.6,1.6c-0.2-0.1-0.4-0.2-0.5-0.2
				c-0.3,0-0.5,0.2-0.7,0.5s-0.3,1.1-0.3,2.1l0,0.4v3h-1.9V222.9z"/>
			<path d="M126.2,220h1.9v10.3h-1.9v-0.8c-0.4,0.3-0.7,0.6-1.1,0.7s-0.8,0.2-1.2,0.2c-1,0-1.8-0.4-2.5-1.1s-1.1-1.7-1.1-2.8
				c0-1.1,0.3-2.1,1-2.8c0.7-0.7,1.5-1.1,2.5-1.1c0.4,0,0.9,0.1,1.3,0.3c0.4,0.2,0.8,0.4,1.1,0.8V220z M124.2,224.4
				c-0.6,0-1.1,0.2-1.4,0.6c-0.4,0.4-0.6,0.9-0.6,1.6c0,0.6,0.2,1.2,0.6,1.6c0.4,0.4,0.9,0.6,1.4,0.6c0.6,0,1.1-0.2,1.5-0.6
				s0.6-0.9,0.6-1.6c0-0.6-0.2-1.2-0.6-1.6S124.8,224.4,124.2,224.4z"/>
		</g>
	</g>
</g>
<g>
	<circle class="st0" cx="302.5" cy="61" r="61"/>
	<g>
		<g>
			<path class="st3" d="M310.5,23.1c-3.9,0-7,3.1-7,7s3.1,7,7,7s7-3.1,7-7S314.3,23.1,310.5,23.1z M315.4,29.1h-3.9v-3.9
				C313.4,25.6,315,27.2,315.4,29.1z M310.5,35.1c-2.8,0-5-2.2-5-5c0-2.4,1.7-4.4,4-4.9v5.9h5.9C314.9,33.4,312.9,35.1,310.5,35.1z"
				/>
			<rect x="319.5" y="23.1" class="st3" width="2" height="2"/>
			<rect x="323.5" y="23.1" class="st3" width="6" height="2"/>
			<rect x="319.5" y="27.1" class="st3" width="10" height="2"/>
			<rect x="319.5" y="31.1" class="st3" width="10" height="2"/>
			<rect x="319.5" y="35.1" class="st3" width="10" height="2"/>
			<path class="st3" d="M330.5,19.1h-28c-1.7,0-3,1.3-3,3v17h-5c-1.7,0-3,1.3-3,3v1h-1c-1.3,0-2.4,0.8-2.8,2h-1.2c-1.7,0-3,1.3-3,3
				v6c0,1.7,1.3,3,3,3h1.2c0.4,1.2,1.5,2,2.8,2h3v2h-2.2l-0.2,0.1c-0.4,0.2-0.8,0.4-1.2,0.6c-0.8-0.4-1.6-0.7-2.4-0.7
				c-1.6,0-3.1,0.8-4,2h-4v-8c0.2-0.1,0.4-0.3,0.5-0.4c0.9-0.9,1.5-2.2,1.5-3.5c0-1.3-0.5-2.6-1.5-3.5l-1.4,1.4
				c0.6,0.6,0.9,1.3,0.9,2.1c0,0.8-0.3,1.6-0.9,2.1c-1.1,1.1-3.1,1.1-4.2,0c-0.6-0.6-0.9-1.3-0.9-2.1c0-0.8,0.3-1.6,0.9-2.1
				l-1.4-1.4c-0.9,0.9-1.5,2.2-1.5,3.5c0,1.3,0.5,2.6,1.5,3.5c0.2,0.2,0.4,0.3,0.5,0.4v9c0,2.8,2.2,5,5,5h5c0.8,1.1,2.1,1.8,3.5,1.9
				l1.7,10.1h19.7l1.7-10.1c1.4-0.1,2.7-0.9,3.5-1.9h5c2.8,0,5-2.2,5-5v-9c0.2-0.1,0.4-0.3,0.5-0.4c0.9-0.9,1.5-2.2,1.5-3.5
				c0-1.3-0.5-2.6-1.5-3.5l-1.4,1.4c0.6,0.6,0.9,1.3,0.9,2.1c0,0.8-0.3,1.6-0.9,2.1c-1.1,1.1-3.1,1.1-4.2,0
				c-0.6-0.6-0.9-1.3-0.9-2.1c0-0.8,0.3-1.6,0.9-2.1l-1.4-1.4c-0.9,0.9-1.5,2.2-1.5,3.5c0,1.3,0.5,2.6,1.5,3.5
				c0.2,0.2,0.4,0.3,0.5,0.4v8h-4c-0.9-1.2-2.3-2-4-2c-0.9,0-1.7,0.2-2.4,0.7c-0.4-0.2-0.8-0.4-1.2-0.6l-0.2-0.1h-2.2v-2h3
				c1.3,0,2.4-0.8,2.8-2h1.2c1.7,0,3-1.3,3-3v-6c0-1.7-1.3-3-3-3h-1.2c-0.4-1.2-1.5-2-2.8-2h-1v-1c0-0.4-0.1-0.7-0.2-1h9.2v1.6
				c0,1.3,1.1,2.4,2.4,2.4c0.6,0,1.3-0.3,1.7-0.7l3.3-3.3h8.6c1.7,0,3-1.3,3-3v-16C333.5,20.5,332.1,19.1,330.5,19.1z M285.5,54.1
				v-6c0-0.6,0.4-1,1-1h1v8h-1C285.9,55.1,285.5,54.7,285.5,54.1z M278.5,67.1c-1.7,0-3-1.3-3-3V56c0.3,0.1,0.7,0.1,1,0.1
				s0.7,0,1-0.1v9.1h5.1c-0.1,0.3-0.1,0.7-0.1,1c0,0.3,0,0.7,0.1,1H278.5z M284.5,66.1c0-1.7,1.3-3,3-3c0.2,0,0.5,0,0.7,0.1
				c-1.5,1.7-1.9,3.8-1.6,5.6l0,0.2C285.4,68.6,284.5,67.5,284.5,66.1z M319.5,65.1V56c0.3,0.1,0.7,0.1,1,0.1s0.7,0,1-0.1v8.1
				c0,1.7-1.3,3-3,3h-4.1c0.1-0.3,0.1-0.7,0.1-1c0-0.3,0-0.7-0.1-1H319.5z M312.5,66.1c0,1.3-0.9,2.5-2.1,2.8l0-0.1
				c0.4-1.8-0.1-4-1.6-5.6c0.2-0.1,0.5-0.1,0.7-0.1C311.1,63.1,312.5,64.5,312.5,66.1z M308.4,68.5l-1.8,10.6h-16.3l-1.8-10.7
				c-0.4-1.9,0.5-4.2,3.1-5.3h2.4l0.3,0.3c1.1,1.1,2.6,1.7,4.1,1.7s3-0.6,4.1-1.7l0.3-0.3h2.4C307.9,64.3,308.7,66.6,308.4,68.5z
				 M301.5,61.7l-0.3,0.3c-0.7,0.7-1.7,1.1-2.7,1.1s-2-0.4-2.7-1.1l-0.3-0.3v-2.6h6V61.7z M311.5,48.1v6c0,0.6-0.4,1-1,1h-1v-8h1
				C311,47.1,311.5,47.6,311.5,48.1z M307.5,46.1v10c0,0.6-0.4,1-1,1h-16c-0.6,0-1-0.4-1-1v-10c0-0.6,0.4-1,1-1h16
				C307,45.1,307.5,45.6,307.5,46.1z M303.5,42.1v1h-10v-1c0-0.6,0.4-1,1-1h5h3C303,41.1,303.5,41.6,303.5,42.1z M331.5,38.1
				c0,0.6-0.4,1-1,1H321l-3.9,3.9c-0.2,0.2-0.7,0-0.7-0.3v-3.6h-14h-1v-17c0-0.6,0.4-1,1-1h28c0.6,0,1,0.4,1,1V38.1z"/>
			<path class="st3" d="M302.5,53.1c1.7,0,3-1.3,3-3s-1.3-3-3-3s-3,1.3-3,3S300.8,53.1,302.5,53.1z M302.5,49.1c0.6,0,1,0.4,1,1
				s-0.4,1-1,1s-1-0.4-1-1S301.9,49.1,302.5,49.1z"/>
			<path class="st3" d="M294.5,53.1c1.7,0,3-1.3,3-3s-1.3-3-3-3s-3,1.3-3,3S292.8,53.1,294.5,53.1z M294.5,49.1c0.6,0,1,0.4,1,1
				s-0.4,1-1,1s-1-0.4-1-1S293.9,49.1,294.5,49.1z"/>
			<path class="st3" d="M302.5,67.1h-8c-1.7,0-3,1.3-3,3v4c0,1.7,1.3,3,3,3h8c1.7,0,3-1.3,3-3v-4C305.5,68.5,304.1,67.1,302.5,67.1z
				 M303.5,74.1c0,0.6-0.4,1-1,1h-8c-0.6,0-1-0.4-1-1v-4c0-0.6,0.4-1,1-1h8c0.6,0,1,0.4,1,1V74.1z"/>
			<rect x="295.5" y="71.1" class="st3" width="2" height="2"/>
			<rect x="299.5" y="71.1" class="st3" width="2" height="2"/>
		</g>
		<g>
			<path d="M259.4,89.1h1.9l2.3,7l2.4-7h1.9l1.7,10.1h-1.9l-1.1-6.4l-2.1,6.4h-1.7l-2.1-6.4l-1.1,6.4h-1.9L259.4,89.1z"/>
			<path d="M271,89.1h1.9v8.2h2.8v1.8H271V89.1z"/>
			<path d="M281.1,89.1h2c1.1,0,1.9,0.1,2.4,0.3s0.9,0.5,1.1,1s0.4,1,0.4,1.6c0,0.7-0.2,1.3-0.6,1.8s-0.9,0.8-1.5,1
				c-0.4,0.1-1,0.2-2,0.2v4.3h-1.9V89.1z M283,93.1h0.6c0.5,0,0.8,0,1-0.1c0.2-0.1,0.3-0.2,0.4-0.3s0.2-0.3,0.2-0.6
				c0-0.4-0.2-0.7-0.5-0.9c-0.2-0.1-0.6-0.2-1.2-0.2H283V93.1z"/>
			<path d="M288.3,91.8h1.6v0.9c0.2-0.4,0.4-0.6,0.7-0.8s0.6-0.3,0.9-0.3c0.2,0,0.5,0.1,0.8,0.2l-0.6,1.6c-0.2-0.1-0.4-0.2-0.5-0.2
				c-0.3,0-0.5,0.2-0.7,0.5s-0.3,1.1-0.3,2.1l0,0.4v3h-1.9V91.8z"/>
			<path d="M300.6,96h-6c0.1,0.5,0.3,0.9,0.7,1.3s0.9,0.5,1.4,0.5c0.7,0,1.3-0.2,1.8-0.7l1.6,0.7c-0.4,0.6-0.9,1-1.4,1.2
				s-1.2,0.4-1.9,0.4c-1.2,0-2.1-0.4-2.9-1.1s-1.1-1.7-1.1-2.8c0-1.1,0.4-2.1,1.1-2.8s1.6-1.1,2.8-1.1c1.2,0,2.1,0.4,2.9,1.1
				s1.1,1.7,1.1,3L300.6,96z M298.8,94.5c-0.1-0.4-0.4-0.8-0.7-1c-0.4-0.3-0.8-0.4-1.3-0.4c-0.5,0-1,0.1-1.4,0.4
				c-0.2,0.2-0.5,0.5-0.7,1H298.8z"/>
			<path d="M307.6,88.9h1.9v10.3h-1.9v-0.8c-0.4,0.3-0.7,0.6-1.1,0.7c-0.4,0.2-0.8,0.2-1.2,0.2c-1,0-1.8-0.4-2.5-1.1
				c-0.7-0.7-1.1-1.7-1.1-2.8c0-1.1,0.3-2.1,1-2.8s1.5-1.1,2.5-1.1c0.4,0,0.9,0.1,1.3,0.3c0.4,0.2,0.8,0.4,1.1,0.8V88.9z
				 M305.7,93.3c-0.6,0-1.1,0.2-1.4,0.6s-0.6,0.9-0.6,1.6c0,0.6,0.2,1.2,0.6,1.6c0.4,0.4,0.9,0.6,1.4,0.6c0.6,0,1.1-0.2,1.5-0.6
				c0.4-0.4,0.6-0.9,0.6-1.6c0-0.6-0.2-1.2-0.6-1.6C306.7,93.5,306.3,93.3,305.7,93.3z"/>
			<path d="M312.1,88.7c0.3,0,0.6,0.1,0.8,0.4s0.4,0.5,0.4,0.9c0,0.3-0.1,0.6-0.3,0.9s-0.5,0.4-0.8,0.4c-0.3,0-0.6-0.1-0.8-0.4
				s-0.4-0.5-0.4-0.9c0-0.3,0.1-0.6,0.3-0.8C311.5,88.8,311.8,88.7,312.1,88.7z M311.2,91.8h1.9v7.4h-1.9V91.8z"/>
			<path d="M322,93.3l-1.6,0.9c-0.3-0.3-0.6-0.5-0.9-0.6s-0.6-0.2-1-0.2c-0.7,0-1.3,0.2-1.7,0.6c-0.4,0.4-0.6,0.9-0.6,1.6
				c0,0.6,0.2,1.1,0.6,1.5c0.4,0.4,1,0.6,1.6,0.6c0.8,0,1.5-0.3,2-0.9l1.5,1c-0.8,1-1.9,1.6-3.4,1.6c-1.3,0-2.3-0.4-3.1-1.2
				s-1.1-1.7-1.1-2.7c0-0.7,0.2-1.4,0.5-2s0.9-1.1,1.5-1.4s1.4-0.5,2.2-0.5c0.7,0,1.4,0.1,2,0.4S321.6,92.7,322,93.3z"/>
			<path d="M323.9,89h1.9v2.7h1.1v1.6h-1.1v5.8h-1.9v-5.8h-1v-1.6h1V89z"/>
			<path d="M328.6,88.7c0.3,0,0.6,0.1,0.8,0.4s0.4,0.5,0.4,0.9c0,0.3-0.1,0.6-0.3,0.9s-0.5,0.4-0.8,0.4c-0.3,0-0.6-0.1-0.8-0.4
				s-0.4-0.5-0.4-0.9c0-0.3,0.1-0.6,0.3-0.8C328,88.8,328.3,88.7,328.6,88.7z M327.7,91.8h1.9v7.4h-1.9V91.8z"/>
			<path d="M334.7,91.6c0.7,0,1.4,0.2,2,0.5s1.1,0.8,1.4,1.4s0.5,1.3,0.5,1.9c0,0.7-0.2,1.4-0.5,2s-0.8,1.1-1.4,1.4s-1.3,0.5-2,0.5
				c-1.1,0-2-0.4-2.7-1.1s-1.1-1.7-1.1-2.8c0-1.2,0.4-2.1,1.3-2.9C332.9,91.9,333.8,91.6,334.7,91.6z M334.8,93.3
				c-0.6,0-1.1,0.2-1.4,0.6s-0.6,0.9-0.6,1.5c0,0.6,0.2,1.2,0.6,1.6c0.4,0.4,0.9,0.6,1.4,0.6s1.1-0.2,1.5-0.6s0.6-0.9,0.6-1.6
				s-0.2-1.2-0.6-1.6S335.4,93.3,334.8,93.3z"/>
			<path d="M340.2,91.8h1.9v0.8c0.4-0.4,0.8-0.6,1.2-0.7c0.3-0.1,0.7-0.2,1.1-0.2c0.7,0,1.4,0.3,1.9,0.8c0.4,0.4,0.6,1.1,0.6,1.9
				v4.9H345v-3.3c0-0.9,0-1.5-0.1-1.8s-0.2-0.5-0.4-0.7c-0.2-0.2-0.4-0.2-0.7-0.2c-0.4,0-0.7,0.1-1,0.4c-0.3,0.3-0.5,0.6-0.6,1
				c-0.1,0.2-0.1,0.7-0.1,1.5v3h-1.9V91.8z"/>
		</g>
	</g>
</g>
<g>
	<circle class="st0" cx="166.5" cy="402" r="75"/>
	<g>
		<g>
			<path class="st3" d="M148.7,386.7c-4.4,0-8,3.6-8,8s3.6,8,8,8c4.4,0,8-3.6,8-8S153.1,386.7,148.7,386.7z M148.7,400.7
				c-3.3,0-6-2.7-6-6s2.7-6,6-6c3.3,0,6,2.7,6,6S152,400.7,148.7,400.7z"/>
			<path class="st3" d="M148.7,390.7c-2.2,0-4,1.8-4,4s1.8,4,4,4c2.2,0,4-1.8,4-4S150.9,390.7,148.7,390.7z M148.7,396.7
				c-1.1,0-2-0.9-2-2s0.9-2,2-2c1.1,0,2,0.9,2,2S149.8,396.7,148.7,396.7z"/>
			<path class="st3" d="M184.8,391.7h12.4l-0.6-1.4c-0.9-2.1-2.7-3.9-4.9-5.1v-32.5c0-1.7-1.3-3-3-3h-5v-1c0-1.7-1.3-3-3-3h-2
				c-1.7,0-3,1.3-3,3v1h-18v-1c0-1.7-1.3-3-3-3h-2c-1.7,0-3,1.3-3,3v1h-5c-1.7,0-3,1.3-3,3v30.6l-4.8,4.8l0.8,1.7
				c-0.1,0.2-0.1,0.3-0.2,0.5l-1.8,0.6v7.4l1.8,0.6c0.1,0.2,0.1,0.3,0.2,0.5l-0.8,1.7l5.2,5.2l1.7-0.8c0.2,0.1,0.3,0.1,0.5,0.2
				l0.6,1.8h7.4l0.6-1.8c0.2-0.1,0.3-0.1,0.5-0.2l1.7,0.8l5.2-5.2l-0.3-0.6h16.3c2,3.1,5.5,5,9.2,5c4.7,0,9.2-2.8,10.9-6.6l0.6-1.4
				h-9.9L184.8,391.7z M187.7,383.8v-20.2c0-1.1-0.9-2-2-2h-38c-1.1,0-2,0.9-2,2v18H145l-0.6,1.8c-0.2,0.1-0.3,0.1-0.5,0.2l-0.2-0.1
				v-23.9h46v24.7C189,384.1,188.4,383.9,187.7,383.8z M155.7,383.3v-3.6h6v9h-1.5l0.3-0.6L155.7,383.3z M163.7,371.7h6v6h-6V371.7z
				 M161.7,377.7h-6v-6h6V377.7z M171.7,371.7h6v6h-6V371.7z M179.7,371.7h6v6h-6V371.7z M185.7,369.7h-6v-6h6V369.7z M177.7,369.7
				h-6v-6h6V369.7z M169.7,369.7h-6v-6h6V369.7z M161.7,369.7h-6v-6h6V369.7z M153.7,369.7h-6v-6h6V369.7z M147.7,371.7h6v6h-6
				V371.7z M147.7,379.7h6v3.9l-0.2,0.1c-0.2-0.1-0.3-0.1-0.5-0.2l-0.6-1.8h-4.7V379.7z M163.7,379.7h6v9h-6V379.7z M171.7,379.7h6
				v7.5c-0.4,0.5-0.9,1-1.2,1.5h-4.8V379.7z M179.7,379.7h6v4c-2.2,0-4.2,0.7-6,1.8V379.7z M177.7,348.7c0-0.6,0.4-1,1-1h2
				c0.6,0,1,0.4,1,1v4c0,0.6-0.4,1-1,1h-2c-0.6,0-1-0.4-1-1V348.7z M151.7,348.7c0-0.6,0.4-1,1-1h2c0.6,0,1,0.4,1,1v4
				c0,0.6-0.4,1-1,1h-2c-0.6,0-1-0.4-1-1V348.7z M144.7,351.7h5v1c0,1.7,1.3,3,3,3h2c1.7,0,3-1.3,3-3v-1h18v1c0,1.7,1.3,3,3,3h2
				c1.7,0,3-1.3,3-3v-1h5c0.6,0,1,0.4,1,1v5h-46v-5C143.7,352.1,144.1,351.7,144.7,351.7z M158.1,397.9c-0.1,0.4-0.3,0.8-0.5,1.1
				l-0.2,0.4l0.6,1.3l-3.2,3.2l-1.3-0.6l-0.4,0.2c-0.4,0.2-0.8,0.3-1.1,0.5l-0.5,0.2l-0.5,1.4h-4.6l-0.5-1.4l-0.5-0.2
				c-0.4-0.1-0.8-0.3-1.1-0.5l-0.4-0.2l-1.3,0.6l-3.2-3.2l0.6-1.3l-0.2-0.4c-0.2-0.4-0.3-0.8-0.5-1.1l-0.2-0.5l-1.4-0.5v-4.6
				l1.4-0.5l0.2-0.5c0.1-0.4,0.3-0.8,0.5-1.1l0.2-0.4l-0.6-1.3l3.2-3.2l1.3,0.6l0.4-0.2c0.4-0.2,0.8-0.3,1.1-0.5l0.5-0.2l0.5-1.4
				h4.6l0.5,1.4l0.5,0.2c0.4,0.1,0.8,0.3,1.1,0.5l0.4,0.2l1.3-0.6l3.2,3.2l-0.6,1.3l0.2,0.4c0.2,0.4,0.3,0.8,0.5,1.1l0.2,0.5
				l1.4,0.5v4.6l-1.4,0.5L158.1,397.9z M185.7,403.7c-3.2,0-6.2-1.7-7.8-4.5l-0.3-0.5h-16.8l0.8-0.3V391l-0.8-0.3h0.8h2h6h2h5.9
				l0.3-0.5c1.6-2.8,4.6-4.5,7.8-4.5c3.2,0,6.5,1.6,8.3,4h-11.3v2.2l3.3,7.8h7.9C192.2,402,188.9,403.7,185.7,403.7z"/>
		</g>
		<g>
			<path d="M132.9,415.8h2c1.1,0,1.9,0.1,2.4,0.3c0.5,0.2,0.9,0.5,1.1,1c0.3,0.5,0.4,1,0.4,1.6c0,0.7-0.2,1.3-0.6,1.8
				s-0.9,0.8-1.5,1c-0.4,0.1-1,0.2-2,0.2v4.3h-1.9V415.8z M134.8,419.7h0.6c0.5,0,0.8,0,1-0.1s0.3-0.2,0.4-0.3
				c0.1-0.2,0.2-0.3,0.2-0.6c0-0.4-0.2-0.7-0.5-0.9c-0.2-0.1-0.6-0.2-1.2-0.2h-0.5V419.7z"/>
			<path d="M140.1,418.4h1.6v0.9c0.2-0.4,0.4-0.6,0.7-0.8s0.6-0.3,0.9-0.3c0.2,0,0.5,0.1,0.8,0.2l-0.6,1.6c-0.2-0.1-0.4-0.2-0.5-0.2
				c-0.3,0-0.5,0.2-0.7,0.5s-0.3,1.1-0.3,2.1l0,0.4v3h-1.9V418.4z"/>
			<path d="M148.5,418.2c0.7,0,1.4,0.2,2,0.5c0.6,0.4,1.1,0.8,1.4,1.4s0.5,1.3,0.5,1.9c0,0.7-0.2,1.4-0.5,2
				c-0.3,0.6-0.8,1.1-1.4,1.4c-0.6,0.3-1.3,0.5-2,0.5c-1.1,0-2-0.4-2.7-1.1s-1.1-1.7-1.1-2.8c0-1.2,0.4-2.1,1.3-2.9
				C146.7,418.6,147.5,418.2,148.5,418.2z M148.5,420c-0.6,0-1.1,0.2-1.4,0.6s-0.6,0.9-0.6,1.5c0,0.6,0.2,1.2,0.6,1.6
				c0.4,0.4,0.9,0.6,1.4,0.6s1.1-0.2,1.5-0.6c0.4-0.4,0.6-0.9,0.6-1.6c0-0.6-0.2-1.2-0.6-1.6C149.6,420.2,149.1,420,148.5,420z"/>
			<path d="M153.7,415.6h1.9v10.3h-1.9V415.6z"/>
			<path d="M160.8,418.2c0.7,0,1.4,0.2,2,0.5c0.6,0.4,1.1,0.8,1.4,1.4s0.5,1.3,0.5,1.9c0,0.7-0.2,1.4-0.5,2
				c-0.3,0.6-0.8,1.1-1.4,1.4c-0.6,0.3-1.3,0.5-2,0.5c-1.1,0-2-0.4-2.7-1.1s-1.1-1.7-1.1-2.8c0-1.2,0.4-2.1,1.3-2.9
				C159,418.6,159.8,418.2,160.8,418.2z M160.8,420c-0.6,0-1.1,0.2-1.4,0.6s-0.6,0.9-0.6,1.5c0,0.6,0.2,1.2,0.6,1.6
				c0.4,0.4,0.9,0.6,1.4,0.6s1.1-0.2,1.5-0.6c0.4-0.4,0.6-0.9,0.6-1.6c0-0.6-0.2-1.2-0.6-1.6C161.9,420.2,161.4,420,160.8,420z"/>
			<path d="M166.3,418.4h1.9v0.8c0.4-0.4,0.8-0.6,1.2-0.7c0.3-0.1,0.7-0.2,1.1-0.2c0.7,0,1.4,0.3,1.9,0.8c0.4,0.4,0.6,1.1,0.6,1.9
				v4.9H171v-3.3c0-0.9,0-1.5-0.1-1.8c-0.1-0.3-0.2-0.5-0.4-0.7c-0.2-0.2-0.4-0.2-0.7-0.2c-0.4,0-0.7,0.1-1,0.4
				c-0.3,0.3-0.5,0.6-0.6,1c-0.1,0.2-0.1,0.7-0.1,1.5v3h-1.9V418.4z"/>
			<path d="M180.2,418.4h1.9v6.4c0,1.3-0.3,2.2-0.8,2.8c-0.7,0.8-1.7,1.2-3.1,1.2c-0.7,0-1.3-0.1-1.8-0.3c-0.5-0.2-0.9-0.5-1.3-0.8
				c-0.3-0.4-0.6-0.8-0.8-1.3h2.1c0.2,0.2,0.4,0.4,0.7,0.5c0.3,0.1,0.6,0.2,1,0.2c0.5,0,0.9-0.1,1.2-0.2c0.3-0.2,0.5-0.4,0.6-0.6
				s0.2-0.7,0.2-1.3c-0.3,0.3-0.7,0.6-1,0.7s-0.8,0.2-1.2,0.2c-1,0-1.8-0.4-2.5-1.1c-0.7-0.7-1-1.6-1-2.7c0-1.2,0.4-2.1,1.1-2.8
				c0.7-0.6,1.4-1,2.4-1c0.4,0,0.8,0.1,1.2,0.2s0.8,0.4,1.1,0.8V418.4z M178.2,420c-0.6,0-1.1,0.2-1.5,0.6c-0.4,0.4-0.6,0.9-0.6,1.5
				c0,0.6,0.2,1.1,0.6,1.5s0.9,0.6,1.5,0.6c0.6,0,1.1-0.2,1.4-0.6c0.4-0.4,0.6-0.9,0.6-1.5c0-0.6-0.2-1.1-0.6-1.5
				C179.3,420.2,178.8,420,178.2,420z"/>
			<path d="M191.4,422.7h-6c0.1,0.5,0.3,0.9,0.7,1.3c0.4,0.3,0.9,0.5,1.4,0.5c0.7,0,1.3-0.2,1.8-0.7l1.6,0.7c-0.4,0.6-0.9,1-1.4,1.2
				s-1.2,0.4-1.9,0.4c-1.2,0-2.1-0.4-2.9-1.1c-0.7-0.7-1.1-1.7-1.1-2.8c0-1.1,0.4-2.1,1.1-2.8c0.7-0.8,1.6-1.1,2.8-1.1
				c1.2,0,2.1,0.4,2.9,1.1c0.7,0.7,1.1,1.7,1.1,3L191.4,422.7z M189.5,421.2c-0.1-0.4-0.4-0.8-0.7-1c-0.4-0.3-0.8-0.4-1.3-0.4
				c-0.5,0-1,0.1-1.4,0.4c-0.2,0.2-0.5,0.5-0.7,1H189.5z"/>
			<path d="M198.4,415.6h1.9v10.3h-1.9v-0.8c-0.4,0.3-0.7,0.6-1.1,0.7c-0.4,0.2-0.8,0.2-1.2,0.2c-1,0-1.8-0.4-2.5-1.1
				c-0.7-0.7-1.1-1.7-1.1-2.8c0-1.1,0.3-2.1,1-2.8c0.7-0.7,1.5-1.1,2.5-1.1c0.4,0,0.9,0.1,1.3,0.3c0.4,0.2,0.8,0.4,1.1,0.8V415.6z
				 M196.4,420c-0.6,0-1.1,0.2-1.4,0.6c-0.4,0.4-0.6,0.9-0.6,1.6c0,0.6,0.2,1.2,0.6,1.6c0.4,0.4,0.9,0.6,1.4,0.6
				c0.6,0,1.1-0.2,1.5-0.6c0.4-0.4,0.6-0.9,0.6-1.6c0-0.6-0.2-1.2-0.6-1.6C197.5,420.2,197,420,196.4,420z"/>
			<path d="M123.2,432.6h1.9l2.3,7l2.4-7h1.9l1.7,10.1h-1.9l-1.1-6.4l-2.1,6.4h-1.7l-2.1-6.4l-1.1,6.4h-1.9L123.2,432.6z"/>
			<path d="M140.1,435.2h1.9v7.4h-1.9v-0.8c-0.4,0.3-0.7,0.6-1.1,0.7c-0.4,0.2-0.8,0.2-1.2,0.2c-1,0-1.8-0.4-2.5-1.1
				c-0.7-0.7-1.1-1.7-1.1-2.8c0-1.1,0.3-2.1,1-2.8c0.7-0.7,1.5-1.1,2.5-1.1c0.4,0,0.9,0.1,1.3,0.3c0.4,0.2,0.8,0.4,1.1,0.8V435.2z
				 M138.2,436.8c-0.6,0-1.1,0.2-1.4,0.6c-0.4,0.4-0.6,0.9-0.6,1.6c0,0.6,0.2,1.2,0.6,1.6c0.4,0.4,0.9,0.6,1.4,0.6
				c0.6,0,1.1-0.2,1.5-0.6c0.4-0.4,0.6-0.9,0.6-1.6c0-0.6-0.2-1.2-0.6-1.6C139.2,437,138.7,436.8,138.2,436.8z"/>
			<path d="M144.6,432.2c0.3,0,0.6,0.1,0.8,0.4c0.2,0.2,0.4,0.5,0.4,0.9c0,0.3-0.1,0.6-0.3,0.9c-0.2,0.2-0.5,0.4-0.8,0.4
				c-0.3,0-0.6-0.1-0.8-0.4s-0.4-0.5-0.4-0.9c0-0.3,0.1-0.6,0.3-0.8C144,432.3,144.3,432.2,144.6,432.2z M143.7,435.2h1.9v7.4h-1.9
				V435.2z"/>
			<path d="M147.2,435.2h1.9v0.8c0.4-0.4,0.8-0.6,1.2-0.7c0.3-0.1,0.7-0.2,1.1-0.2c0.7,0,1.4,0.3,1.9,0.8c0.4,0.4,0.6,1.1,0.6,1.9
				v4.9H152v-3.3c0-0.9,0-1.5-0.1-1.8c-0.1-0.3-0.2-0.5-0.4-0.7c-0.2-0.2-0.4-0.2-0.7-0.2c-0.4,0-0.7,0.1-1,0.4
				c-0.3,0.3-0.5,0.6-0.6,1c-0.1,0.2-0.1,0.7-0.1,1.5v3h-1.9V435.2z"/>
			<path d="M155.9,432.5h1.9v2.7h1.1v1.6h-1.1v5.8h-1.9v-5.8h-1v-1.6h1V432.5z"/>
			<path d="M167.3,439.5h-6c0.1,0.5,0.3,0.9,0.7,1.3c0.4,0.3,0.9,0.5,1.4,0.5c0.7,0,1.3-0.2,1.8-0.7l1.6,0.7c-0.4,0.6-0.9,1-1.4,1.2
				s-1.2,0.4-1.9,0.4c-1.2,0-2.1-0.4-2.9-1.1c-0.7-0.7-1.1-1.7-1.1-2.8c0-1.1,0.4-2.1,1.1-2.8c0.7-0.8,1.6-1.1,2.8-1.1
				c1.2,0,2.1,0.4,2.9,1.1c0.7,0.7,1.1,1.7,1.1,3L167.3,439.5z M165.4,438c-0.1-0.4-0.4-0.8-0.7-1c-0.4-0.3-0.8-0.4-1.3-0.4
				c-0.5,0-1,0.1-1.4,0.4c-0.2,0.2-0.5,0.5-0.7,1H165.4z"/>
			<path d="M168.8,435.2h1.9v0.8c0.4-0.4,0.8-0.6,1.2-0.7c0.3-0.1,0.7-0.2,1.1-0.2c0.7,0,1.4,0.3,1.9,0.8c0.4,0.4,0.6,1.1,0.6,1.9
				v4.9h-1.8v-3.3c0-0.9,0-1.5-0.1-1.8c-0.1-0.3-0.2-0.5-0.4-0.7c-0.2-0.2-0.4-0.2-0.7-0.2c-0.4,0-0.7,0.1-1,0.4
				c-0.3,0.3-0.5,0.6-0.6,1c-0.1,0.2-0.1,0.7-0.1,1.5v3h-1.9V435.2z"/>
			<path d="M182.7,435.2h1.9v7.4h-1.9v-0.8c-0.4,0.3-0.7,0.6-1.1,0.7c-0.4,0.2-0.8,0.2-1.2,0.2c-1,0-1.8-0.4-2.5-1.1
				c-0.7-0.7-1.1-1.7-1.1-2.8c0-1.1,0.3-2.1,1-2.8c0.7-0.7,1.5-1.1,2.5-1.1c0.4,0,0.9,0.1,1.3,0.3c0.4,0.2,0.8,0.4,1.1,0.8V435.2z
				 M180.7,436.8c-0.6,0-1.1,0.2-1.4,0.6c-0.4,0.4-0.6,0.9-0.6,1.6c0,0.6,0.2,1.2,0.6,1.6c0.4,0.4,0.9,0.6,1.4,0.6
				c0.6,0,1.1-0.2,1.5-0.6c0.4-0.4,0.6-0.9,0.6-1.6c0-0.6-0.2-1.2-0.6-1.6C181.8,437,181.3,436.8,180.7,436.8z"/>
			<path d="M186.4,435.2h1.9v0.8c0.4-0.4,0.8-0.6,1.2-0.7c0.3-0.1,0.7-0.2,1.1-0.2c0.7,0,1.4,0.3,1.9,0.8c0.4,0.4,0.6,1.1,0.6,1.9
				v4.9h-1.8v-3.3c0-0.9,0-1.5-0.1-1.8c-0.1-0.3-0.2-0.5-0.4-0.7c-0.2-0.2-0.4-0.2-0.7-0.2c-0.4,0-0.7,0.1-1,0.4
				c-0.3,0.3-0.5,0.6-0.6,1c-0.1,0.2-0.1,0.7-0.1,1.5v3h-1.9V435.2z"/>
			<path d="M202.1,436.7l-1.6,0.9c-0.3-0.3-0.6-0.5-0.9-0.6c-0.3-0.1-0.6-0.2-1-0.2c-0.7,0-1.3,0.2-1.7,0.6
				c-0.4,0.4-0.6,0.9-0.6,1.6c0,0.6,0.2,1.1,0.6,1.5c0.4,0.4,1,0.6,1.6,0.6c0.8,0,1.5-0.3,2-0.9l1.5,1c-0.8,1-1.9,1.6-3.4,1.6
				c-1.3,0-2.3-0.4-3.1-1.2c-0.7-0.8-1.1-1.7-1.1-2.7c0-0.7,0.2-1.4,0.5-2c0.4-0.6,0.9-1.1,1.5-1.4c0.6-0.3,1.4-0.5,2.2-0.5
				c0.7,0,1.4,0.1,2,0.4S201.7,436.2,202.1,436.7z"/>
			<path d="M211.2,439.5h-6c0.1,0.5,0.3,0.9,0.7,1.3c0.4,0.3,0.9,0.5,1.4,0.5c0.7,0,1.3-0.2,1.8-0.7l1.6,0.7c-0.4,0.6-0.9,1-1.4,1.2
				s-1.2,0.4-1.9,0.4c-1.2,0-2.1-0.4-2.9-1.1c-0.7-0.7-1.1-1.7-1.1-2.8c0-1.1,0.4-2.1,1.1-2.8c0.7-0.8,1.6-1.1,2.8-1.1
				c1.2,0,2.1,0.4,2.9,1.1c0.7,0.7,1.1,1.7,1.1,3L211.2,439.5z M209.4,438c-0.1-0.4-0.4-0.8-0.7-1c-0.4-0.3-0.8-0.4-1.3-0.4
				c-0.5,0-1,0.1-1.4,0.4c-0.2,0.2-0.5,0.5-0.7,1H209.4z"/>
			<path d="M139.2,449.4h1.9v10.1h-1.9V449.4z"/>
			<path d="M143,452h1.9v0.8c0.4-0.4,0.8-0.6,1.2-0.7c0.3-0.1,0.7-0.2,1.1-0.2c0.7,0,1.4,0.3,1.9,0.8c0.4,0.4,0.6,1.1,0.6,1.9v4.9
				h-1.8v-3.3c0-0.9,0-1.5-0.1-1.8s-0.2-0.5-0.4-0.7c-0.2-0.2-0.4-0.2-0.7-0.2c-0.4,0-0.7,0.1-1,0.4s-0.5,0.6-0.6,1
				c-0.1,0.2-0.1,0.7-0.1,1.5v3H143V452z"/>
			<path d="M151.7,449.3h1.9v2.7h1.1v1.6h-1.1v5.8h-1.9v-5.8h-1V452h1V449.3z"/>
			<path d="M163.1,456.3h-6c0.1,0.5,0.3,0.9,0.7,1.3c0.4,0.3,0.9,0.5,1.4,0.5c0.7,0,1.3-0.2,1.8-0.7l1.6,0.7c-0.4,0.6-0.9,1-1.4,1.2
				c-0.5,0.3-1.2,0.4-1.9,0.4c-1.2,0-2.1-0.4-2.9-1.1c-0.7-0.7-1.1-1.7-1.1-2.8c0-1.1,0.4-2.1,1.1-2.8c0.7-0.8,1.6-1.1,2.8-1.1
				c1.2,0,2.1,0.4,2.9,1.1c0.7,0.7,1.1,1.7,1.1,3L163.1,456.3z M161.2,454.8c-0.1-0.4-0.4-0.8-0.7-1c-0.4-0.3-0.8-0.4-1.3-0.4
				c-0.5,0-1,0.1-1.4,0.4c-0.2,0.2-0.5,0.5-0.7,1H161.2z"/>
			<path d="M164.2,452h1.6v0.9c0.2-0.4,0.4-0.6,0.7-0.8s0.6-0.3,0.9-0.3c0.2,0,0.5,0.1,0.8,0.2l-0.6,1.6c-0.2-0.1-0.4-0.2-0.5-0.2
				c-0.3,0-0.5,0.2-0.7,0.5s-0.3,1.1-0.3,2.1l0,0.4v3h-1.9V452z"/>
			<path d="M168.3,452h1.9l1.9,4.4l1.9-4.4h1.9l-3.2,7.4h-1.2L168.3,452z"/>
			<path d="M182.4,452h1.9v7.4h-1.9v-0.8c-0.4,0.3-0.7,0.6-1.1,0.7c-0.4,0.2-0.8,0.2-1.2,0.2c-1,0-1.8-0.4-2.5-1.1
				c-0.7-0.7-1.1-1.7-1.1-2.8c0-1.1,0.3-2.1,1-2.8s1.5-1.1,2.5-1.1c0.4,0,0.9,0.1,1.3,0.3c0.4,0.2,0.8,0.4,1.1,0.8V452z
				 M180.4,453.6c-0.6,0-1.1,0.2-1.4,0.6c-0.4,0.4-0.6,0.9-0.6,1.6c0,0.6,0.2,1.2,0.6,1.6c0.4,0.4,0.9,0.6,1.4,0.6
				c0.6,0,1.1-0.2,1.5-0.6c0.4-0.4,0.6-0.9,0.6-1.6c0-0.6-0.2-1.2-0.6-1.6C181.5,453.8,181,453.6,180.4,453.6z"/>
			<path d="M186,449.2h1.9v10.3H186V449.2z"/>
			<path d="M194.1,453.1l-1.2,1.2c-0.5-0.5-0.9-0.7-1.3-0.7c-0.2,0-0.4,0-0.5,0.1c-0.1,0.1-0.2,0.2-0.2,0.3c0,0.1,0,0.2,0.1,0.3
				c0.1,0.1,0.3,0.2,0.6,0.3l0.7,0.3c0.7,0.4,1.2,0.7,1.5,1.1s0.4,0.8,0.4,1.3c0,0.7-0.2,1.2-0.7,1.7s-1.1,0.7-2,0.7
				c-1.1,0-2-0.4-2.6-1.3l1.1-1.3c0.2,0.3,0.5,0.5,0.8,0.6c0.3,0.2,0.6,0.2,0.8,0.2c0.2,0,0.4-0.1,0.6-0.2s0.2-0.3,0.2-0.4
				c0-0.3-0.3-0.6-0.8-0.8l-0.6-0.3c-1.2-0.6-1.8-1.4-1.8-2.3c0-0.6,0.2-1.1,0.7-1.5c0.5-0.4,1-0.6,1.7-0.6c0.5,0,0.9,0.1,1.4,0.3
				C193.4,452.4,193.8,452.7,194.1,453.1z"/>
		</g>
	</g>
</g>
<g>
	<circle class="st0" cx="746" cy="448.5" r="68.5"/>
	<g>
		<g transform="translate(0,-952.36218)">
			<path class="st3" d="M754.3,1345c-6.1,0-10.9,5.5-10.9,10.9c0,6,4.7,12.5,9,19.2h-14.1c0,0-0.1,0-0.1,0c-0.3,0-0.6,0.2-0.8,0.4
				l-10.2,10.9c-0.5,0.5-0.4,1.3,0.1,1.8c0.1,0.1,0.3,0.2,0.5,0.3l10.6,2.9v4.2c0,0.7,0.6,1.3,1.3,1.3h10.2v3.2
				c0,0.7,0.6,1.3,1.3,1.3s1.3-0.6,1.3-1.3c0,0,0,0,0,0v-4.5c0-0.7-0.6-1.3-1.3-1.3h-10.2v-3.8c0-0.6-0.4-1.1-0.9-1.2l-9.5-2.6
				l8.4-8.9h17.4c0.7,0,1.3-0.6,1.3-1.3s-0.6-1.3-1.3-1.3c0,0,0,0,0,0c4.3-6.7,9-13.2,9-19.2C765.2,1350.5,760.4,1345,754.3,1345
				L754.3,1345z M754.3,1347.6c4.5,0,8.3,4.5,8.3,8.3c0,4.4-4.2,10.8-8.3,17.4c-4.2-6.6-8.3-13-8.3-17.4
				C746,1352.1,749.8,1347.6,754.3,1347.6z M754.3,1350.8c-2.5,0-4.5,2-4.5,4.5s2,4.5,4.5,4.5s4.5-2,4.5-4.5
				S756.7,1350.8,754.3,1350.8z M754.3,1353.3c1.1,0,1.9,0.8,1.9,1.9c0,1.1-0.8,1.9-1.9,1.9c-1.1,0-1.9-0.8-1.9-1.9
				C752.4,1354.2,753.2,1353.3,754.3,1353.3z"/>
		</g>
		<g>
			<path d="M702.4,462.2h2c1.1,0,1.9,0.1,2.4,0.3c0.5,0.2,0.9,0.5,1.1,1c0.3,0.5,0.4,1,0.4,1.6c0,0.7-0.2,1.3-0.5,1.8
				c-0.4,0.5-0.9,0.8-1.5,1c-0.4,0.1-1,0.2-2,0.2v4.3h-1.9V462.2z M704.3,466.1h0.6c0.5,0,0.8,0,1-0.1c0.2-0.1,0.3-0.2,0.4-0.3
				c0.1-0.2,0.2-0.3,0.2-0.6c0-0.4-0.2-0.7-0.5-0.9c-0.2-0.1-0.6-0.2-1.2-0.2h-0.5V466.1z"/>
			<path d="M717.5,469.1h-6c0.1,0.5,0.3,0.9,0.7,1.3c0.4,0.3,0.9,0.5,1.4,0.5c0.7,0,1.3-0.2,1.8-0.7l1.6,0.7c-0.4,0.6-0.9,1-1.4,1.2
				c-0.5,0.3-1.2,0.4-1.9,0.4c-1.2,0-2.1-0.4-2.9-1.1c-0.7-0.7-1.1-1.7-1.1-2.8c0-1.1,0.4-2.1,1.1-2.8c0.7-0.8,1.6-1.1,2.8-1.1
				c1.2,0,2.1,0.4,2.9,1.1c0.7,0.7,1.1,1.7,1.1,3L717.5,469.1z M715.7,467.6c-0.1-0.4-0.4-0.8-0.7-1c-0.4-0.3-0.8-0.4-1.3-0.4
				c-0.5,0-1,0.1-1.4,0.4c-0.2,0.2-0.5,0.5-0.7,1H715.7z"/>
			<path d="M718.6,464.8h1.6v0.9c0.2-0.4,0.4-0.6,0.7-0.8s0.6-0.3,0.9-0.3c0.2,0,0.5,0.1,0.8,0.2l-0.6,1.6c-0.2-0.1-0.4-0.2-0.5-0.2
				c-0.3,0-0.5,0.2-0.7,0.5c-0.2,0.4-0.3,1.1-0.3,2.1l0,0.4v3h-1.9V464.8z"/>
			<path d="M728.1,465.9l-1.2,1.2c-0.5-0.5-0.9-0.7-1.3-0.7c-0.2,0-0.4,0-0.5,0.1c-0.1,0.1-0.2,0.2-0.2,0.3c0,0.1,0,0.2,0.1,0.3
				c0.1,0.1,0.3,0.2,0.6,0.3l0.7,0.3c0.7,0.4,1.2,0.7,1.5,1.1s0.4,0.8,0.4,1.3c0,0.7-0.2,1.2-0.7,1.7c-0.5,0.4-1.1,0.7-2,0.7
				c-1.1,0-2-0.4-2.6-1.3l1.1-1.3c0.2,0.3,0.5,0.5,0.8,0.6c0.3,0.2,0.6,0.2,0.8,0.2c0.2,0,0.4-0.1,0.6-0.2s0.2-0.3,0.2-0.4
				c0-0.3-0.3-0.6-0.8-0.8l-0.6-0.3c-1.2-0.6-1.8-1.4-1.8-2.3c0-0.6,0.2-1.1,0.7-1.5c0.5-0.4,1-0.6,1.7-0.6c0.5,0,0.9,0.1,1.4,0.3
				C727.4,465.2,727.8,465.5,728.1,465.9z"/>
			<path d="M733.2,464.6c0.7,0,1.4,0.2,2,0.5c0.6,0.4,1.1,0.8,1.4,1.4s0.5,1.3,0.5,1.9c0,0.7-0.2,1.4-0.5,2
				c-0.3,0.6-0.8,1.1-1.4,1.4c-0.6,0.3-1.3,0.5-2,0.5c-1.1,0-2-0.4-2.7-1.1c-0.8-0.8-1.1-1.7-1.1-2.8c0-1.2,0.4-2.1,1.3-2.9
				C731.3,465,732.2,464.6,733.2,464.6z M733.2,466.4c-0.6,0-1.1,0.2-1.4,0.6c-0.4,0.4-0.6,0.9-0.6,1.5c0,0.6,0.2,1.2,0.6,1.6
				c0.4,0.4,0.9,0.6,1.4,0.6c0.6,0,1.1-0.2,1.5-0.6s0.6-0.9,0.6-1.6s-0.2-1.2-0.6-1.6C734.3,466.6,733.8,466.4,733.2,466.4z"/>
			<path d="M738.6,464.8h1.9v0.8c0.4-0.4,0.8-0.6,1.2-0.7c0.3-0.1,0.7-0.2,1.1-0.2c0.7,0,1.4,0.3,1.9,0.8c0.4,0.4,0.6,1.1,0.6,1.9
				v4.9h-1.8V469c0-0.9,0-1.5-0.1-1.8c-0.1-0.3-0.2-0.5-0.4-0.7c-0.2-0.2-0.4-0.2-0.7-0.2c-0.4,0-0.7,0.1-1,0.4s-0.5,0.6-0.6,1
				c-0.1,0.2-0.1,0.7-0.1,1.5v3h-1.9V464.8z"/>
			<path d="M752.5,464.8h1.9v7.4h-1.9v-0.8c-0.4,0.3-0.7,0.6-1.1,0.7c-0.4,0.2-0.8,0.2-1.2,0.2c-1,0-1.8-0.4-2.5-1.1
				c-0.7-0.7-1.1-1.7-1.1-2.8c0-1.1,0.3-2.1,1-2.8c0.7-0.7,1.5-1.1,2.5-1.1c0.4,0,0.9,0.1,1.3,0.3s0.8,0.4,1.1,0.8V464.8z
				 M750.6,466.4c-0.6,0-1.1,0.2-1.4,0.6c-0.4,0.4-0.6,0.9-0.6,1.6c0,0.6,0.2,1.2,0.6,1.6c0.4,0.4,0.9,0.6,1.4,0.6
				c0.6,0,1.1-0.2,1.5-0.6c0.4-0.4,0.6-0.9,0.6-1.6c0-0.6-0.2-1.2-0.6-1.6S751.2,466.4,750.6,466.4z"/>
			<path d="M756.1,462h1.9v10.3h-1.9V462z"/>
			<path d="M760.4,461.8c0.3,0,0.6,0.1,0.8,0.4c0.2,0.2,0.4,0.5,0.4,0.9c0,0.3-0.1,0.6-0.3,0.9c-0.2,0.2-0.5,0.4-0.8,0.4
				c-0.3,0-0.6-0.1-0.8-0.4c-0.2-0.2-0.4-0.5-0.4-0.9c0-0.3,0.1-0.6,0.3-0.8S760,461.8,760.4,461.8z M759.4,464.8h1.9v7.4h-1.9
				V464.8z"/>
			<path d="M762.7,464.8h5.7l-3.3,5.9h3.2v1.6h-6l3.4-5.9h-2.8V464.8z"/>
			<path d="M776.9,469.1h-6c0.1,0.5,0.3,0.9,0.7,1.3c0.4,0.3,0.9,0.5,1.4,0.5c0.7,0,1.3-0.2,1.8-0.7l1.6,0.7c-0.4,0.6-0.9,1-1.4,1.2
				c-0.5,0.3-1.2,0.4-1.9,0.4c-1.2,0-2.1-0.4-2.9-1.1c-0.7-0.7-1.1-1.7-1.1-2.8c0-1.1,0.4-2.1,1.1-2.8c0.7-0.8,1.6-1.1,2.8-1.1
				c1.2,0,2.1,0.4,2.9,1.1c0.7,0.7,1.1,1.7,1.1,3L776.9,469.1z M775,467.6c-0.1-0.4-0.4-0.8-0.7-1c-0.4-0.3-0.8-0.4-1.3-0.4
				c-0.5,0-1,0.1-1.4,0.4c-0.2,0.2-0.5,0.5-0.7,1H775z"/>
			<path d="M783.9,462h1.9v10.3h-1.9v-0.8c-0.4,0.3-0.7,0.6-1.1,0.7c-0.4,0.2-0.8,0.2-1.2,0.2c-1,0-1.8-0.4-2.5-1.1
				c-0.7-0.7-1.1-1.7-1.1-2.8c0-1.1,0.3-2.1,1-2.8c0.7-0.7,1.5-1.1,2.5-1.1c0.4,0,0.9,0.1,1.3,0.3s0.8,0.4,1.1,0.8V462z
				 M781.9,466.4c-0.6,0-1.1,0.2-1.4,0.6c-0.4,0.4-0.6,0.9-0.6,1.6c0,0.6,0.2,1.2,0.6,1.6c0.4,0.4,0.9,0.6,1.4,0.6
				c0.6,0,1.1-0.2,1.5-0.6c0.4-0.4,0.6-0.9,0.6-1.6c0-0.6-0.2-1.2-0.6-1.6S782.5,466.4,781.9,466.4z"/>
			<path d="M696.8,479h2c1.1,0,1.9,0.1,2.4,0.3c0.5,0.2,0.9,0.5,1.1,1c0.3,0.5,0.4,1,0.4,1.6c0,0.7-0.2,1.2-0.5,1.7
				c-0.3,0.4-0.8,0.8-1.4,1l2.4,4.5h-2.1l-2.3-4.3h-0.2v4.3h-1.9V479z M698.7,482.9h0.6c0.6,0,1-0.1,1.3-0.2s0.3-0.4,0.3-0.8
				c0-0.2-0.1-0.4-0.2-0.6c-0.1-0.2-0.3-0.3-0.5-0.3s-0.5-0.1-1-0.1h-0.5V482.9z"/>
			<path d="M708.1,481.4c0.7,0,1.4,0.2,2,0.5c0.6,0.4,1.1,0.8,1.4,1.4s0.5,1.3,0.5,1.9c0,0.7-0.2,1.4-0.5,2
				c-0.3,0.6-0.8,1.1-1.4,1.4c-0.6,0.3-1.3,0.5-2,0.5c-1.1,0-2-0.4-2.7-1.1c-0.8-0.8-1.1-1.7-1.1-2.8c0-1.2,0.4-2.1,1.3-2.9
				C706.3,481.8,707.1,481.4,708.1,481.4z M708.1,483.2c-0.6,0-1.1,0.2-1.4,0.6c-0.4,0.4-0.6,0.9-0.6,1.5c0,0.6,0.2,1.2,0.6,1.6
				c0.4,0.4,0.9,0.6,1.4,0.6c0.6,0,1.1-0.2,1.5-0.6s0.6-0.9,0.6-1.6s-0.2-1.2-0.6-1.6C709.2,483.4,708.7,483.2,708.1,483.2z"/>
			<path d="M713.6,481.6h1.9v3.6c0,0.7,0,1.2,0.1,1.5c0.1,0.3,0.3,0.5,0.5,0.6c0.2,0.2,0.5,0.2,0.8,0.2c0.3,0,0.6-0.1,0.8-0.2
				c0.2-0.1,0.4-0.4,0.5-0.7c0.1-0.2,0.1-0.7,0.1-1.4v-3.6h1.9v3.2c0,1.3-0.1,2.2-0.3,2.7c-0.3,0.6-0.6,1-1.1,1.3
				c-0.5,0.3-1.1,0.5-1.9,0.5c-0.8,0-1.5-0.2-2-0.5c-0.5-0.4-0.9-0.9-1.1-1.5c-0.1-0.5-0.2-1.3-0.2-2.5V481.6z"/>
			<path d="M722.2,478.9h1.9v2.7h1.1v1.6h-1.1v5.8h-1.9v-5.8h-1v-1.6h1V478.9z"/>
			<path d="M733.6,485.9h-6c0.1,0.5,0.3,0.9,0.7,1.3c0.4,0.3,0.9,0.5,1.4,0.5c0.7,0,1.3-0.2,1.8-0.7l1.6,0.7c-0.4,0.6-0.9,1-1.4,1.2
				c-0.5,0.3-1.2,0.4-1.9,0.4c-1.2,0-2.1-0.4-2.9-1.1c-0.7-0.7-1.1-1.7-1.1-2.8c0-1.1,0.4-2.1,1.1-2.8c0.7-0.8,1.6-1.1,2.8-1.1
				c1.2,0,2.1,0.4,2.9,1.1c0.7,0.7,1.1,1.7,1.1,3L733.6,485.9z M731.8,484.4c-0.1-0.4-0.4-0.8-0.7-1c-0.4-0.3-0.8-0.4-1.3-0.4
				c-0.5,0-1,0.1-1.4,0.4c-0.2,0.2-0.5,0.5-0.7,1H731.8z"/>
			<path d="M739.3,479h2c1.1,0,1.9,0.1,2.4,0.3c0.5,0.2,0.9,0.5,1.1,1c0.3,0.5,0.4,1,0.4,1.6c0,0.7-0.2,1.3-0.5,1.8
				c-0.4,0.5-0.9,0.8-1.5,1c-0.4,0.1-1,0.2-2,0.2v4.3h-1.9V479z M741.2,482.9h0.6c0.5,0,0.8,0,1-0.1c0.2-0.1,0.3-0.2,0.4-0.3
				c0.1-0.2,0.2-0.3,0.2-0.6c0-0.4-0.2-0.7-0.5-0.9c-0.2-0.1-0.6-0.2-1.2-0.2h-0.5V482.9z"/>
			<path d="M746.7,478.8h1.9v10.3h-1.9V478.8z"/>
			<path d="M755.7,481.6h1.9v7.4h-1.9v-0.8c-0.4,0.3-0.7,0.6-1.1,0.7c-0.4,0.2-0.8,0.2-1.2,0.2c-1,0-1.8-0.4-2.5-1.1
				c-0.7-0.7-1.1-1.7-1.1-2.8c0-1.1,0.3-2.1,1-2.8c0.7-0.7,1.5-1.1,2.5-1.1c0.4,0,0.9,0.1,1.3,0.3s0.8,0.4,1.1,0.8V481.6z
				 M753.8,483.2c-0.6,0-1.1,0.2-1.4,0.6c-0.4,0.4-0.6,0.9-0.6,1.6c0,0.6,0.2,1.2,0.6,1.6c0.4,0.4,0.9,0.6,1.4,0.6
				c0.6,0,1.1-0.2,1.5-0.6c0.4-0.4,0.6-0.9,0.6-1.6c0-0.6-0.2-1.2-0.6-1.6S754.4,483.2,753.8,483.2z"/>
			<path d="M759.5,481.6h1.9v0.8c0.4-0.4,0.8-0.6,1.2-0.7c0.3-0.1,0.7-0.2,1.1-0.2c0.7,0,1.4,0.3,1.9,0.8c0.4,0.4,0.6,1.1,0.6,1.9
				v4.9h-1.8v-3.3c0-0.9,0-1.5-0.1-1.8c-0.1-0.3-0.2-0.5-0.4-0.7c-0.2-0.2-0.4-0.2-0.7-0.2c-0.4,0-0.7,0.1-1,0.4s-0.5,0.6-0.6,1
				c-0.1,0.2-0.1,0.7-0.1,1.5v3h-1.9V481.6z"/>
			<path d="M767.9,481.6h1.9v0.8c0.4-0.4,0.8-0.6,1.2-0.7c0.3-0.1,0.7-0.2,1.1-0.2c0.7,0,1.4,0.3,1.9,0.8c0.4,0.4,0.6,1.1,0.6,1.9
				v4.9h-1.8v-3.3c0-0.9,0-1.5-0.1-1.8c-0.1-0.3-0.2-0.5-0.4-0.7c-0.2-0.2-0.4-0.2-0.7-0.2c-0.4,0-0.7,0.1-1,0.4s-0.5,0.6-0.6,1
				c-0.1,0.2-0.1,0.7-0.1,1.5v3h-1.9V481.6z"/>
			<path d="M777,478.6c0.3,0,0.6,0.1,0.8,0.4c0.2,0.2,0.4,0.5,0.4,0.9c0,0.3-0.1,0.6-0.3,0.9c-0.2,0.2-0.5,0.4-0.8,0.4
				c-0.3,0-0.6-0.1-0.8-0.4c-0.2-0.2-0.4-0.5-0.4-0.9c0-0.3,0.1-0.6,0.3-0.8S776.7,478.6,777,478.6z M776.1,481.6h1.9v7.4h-1.9
				V481.6z"/>
			<path d="M779.7,481.6h1.9v0.8c0.4-0.4,0.8-0.6,1.2-0.7c0.3-0.1,0.7-0.2,1.1-0.2c0.7,0,1.4,0.3,1.9,0.8c0.4,0.4,0.6,1.1,0.6,1.9
				v4.9h-1.8v-3.3c0-0.9,0-1.5-0.1-1.8c-0.1-0.3-0.2-0.5-0.4-0.7c-0.2-0.2-0.4-0.2-0.7-0.2c-0.4,0-0.7,0.1-1,0.4s-0.5,0.6-0.6,1
				c-0.1,0.2-0.1,0.7-0.1,1.5v3h-1.9V481.6z"/>
			<path d="M793.6,481.6h1.9v6.4c0,1.3-0.3,2.2-0.8,2.8c-0.7,0.8-1.7,1.2-3.1,1.2c-0.7,0-1.3-0.1-1.8-0.3s-0.9-0.5-1.3-0.8
				c-0.3-0.4-0.6-0.8-0.8-1.3h2.1c0.2,0.2,0.4,0.4,0.7,0.5c0.3,0.1,0.6,0.2,1,0.2c0.5,0,0.9-0.1,1.2-0.2s0.5-0.4,0.6-0.6
				c0.1-0.2,0.2-0.7,0.2-1.3c-0.3,0.3-0.7,0.6-1,0.7c-0.4,0.1-0.8,0.2-1.2,0.2c-1,0-1.8-0.4-2.5-1.1s-1-1.6-1-2.7
				c0-1.2,0.4-2.1,1.1-2.8c0.7-0.6,1.4-1,2.4-1c0.4,0,0.8,0.1,1.2,0.2c0.4,0.2,0.8,0.4,1.1,0.8V481.6z M791.6,483.2
				c-0.6,0-1.1,0.2-1.5,0.6c-0.4,0.4-0.6,0.9-0.6,1.5c0,0.6,0.2,1.1,0.6,1.5s0.9,0.6,1.5,0.6c0.6,0,1.1-0.2,1.4-0.6
				c0.4-0.4,0.6-0.9,0.6-1.5c0-0.6-0.2-1.1-0.6-1.5S792.2,483.2,791.6,483.2z"/>
		</g>
	</g>
</g>
<g>
	<circle class="st0" cx="814.5" cy="115" r="106"/>
	<g>
		<g>
			<circle class="st0" cx="849.1" cy="54" r="17.8"/>
			<path class="st3" d="M871.3,59.8l4.4-3.4l-3.8-4.1l3.1-4.7L870,45l1.4-5.4l-5.5-0.9l-0.4-5.6l-5.5,0.9l-2.2-5.1l-4.9,2.7
				l-3.8-4.1l-3.8,4.1l-4.9-2.7l-2.2,5.1l-5.5-0.9l-0.4,5.6l-5.5,0.9l1.4,5.4l-4.9,2.6l3.1,4.7l-3.8,4.1l4.4,3.4l-2.3,5.1l5.3,1.8
				l-0.5,5.6l5.6,0l1.3,5.4l5.3-1.8l3,4.7l4.4-3.4l4.4,3.4l3-4.7l5.3,1.8l1.3-5.4l5.6,0l-0.5-5.6l5.3-1.8L871.3,59.8z M838.3,43.3
				c0.8-0.8,1.8-1.2,3-1.2s2.2,0.4,3,1.2c0.8,0.8,1.2,1.8,1.2,3s-0.4,2.2-1.2,3c-0.8,0.8-1.8,1.2-3,1.2s-2.2-0.4-3-1.2l0,0
				c-0.8-0.8-1.2-1.8-1.2-3C837.1,45.1,837.5,44.1,838.3,43.3z M859.4,64.3c-0.8,0.8-1.8,1.2-3,1.2s-2.2-0.4-3-1.2l0,0
				c-0.8-0.8-1.2-1.8-1.2-3c0-1.1,0.4-2.2,1.2-3c0.8-0.8,1.8-1.2,3-1.2c1.1,0,2.2,0.4,3,1.2c0.8,0.8,1.2,1.8,1.2,3
				C860.6,62.5,860.2,63.5,859.4,64.3z M840.4,65.6l-3.3-3.3L857.3,42l3.3,3.3L840.4,65.6z"/>
		</g>
		<g>
			<g>
				<path class="st3" d="M783.3,97.5c1.4,3.2,1.8,4.2,2.9,4.2c1.2,0,1.6-1,2.9-4.2c0.9-2.1,2.1-5,3.1-5.9c2.3-2.4,3.1-4.2,3.1-6.9
					c0-5-4.1-9.2-9.2-9.2s-9.2,4.1-9.2,9.2c0,2.7,0.9,4.5,3.1,6.9C781.1,92.5,782.4,95.4,783.3,97.5z M786.2,78.1
					c3.6,0,6.6,3,6.6,6.6c0,2-0.6,3.2-2.4,5.1c-1.3,1.3-2.5,4.2-3.6,6.7c-0.2,0.4-0.4,0.9-0.6,1.4c-0.2-0.4-0.4-0.9-0.6-1.4
					c-1.1-2.5-2.3-5.4-3.6-6.7c-1.8-1.9-2.4-3.1-2.4-5.1C779.6,81.1,782.6,78.1,786.2,78.1z"/>
				<circle class="st3" cx="786.2" cy="84.3" r="2.8"/>
				<path class="st3" d="M826.1,85.5c0,2.5,1,4.1,2.6,5.7c0.7,0.7,1.7,3.1,2.4,4.7c1.1,2.6,1.5,3.5,2.6,3.5c1.1,0,1.5-0.9,2.6-3.5
					c0.7-1.6,1.7-4,2.4-4.7c1.6-1.6,2.6-3.2,2.6-5.7c0-4.2-3.4-7.6-7.6-7.6S826.1,81.4,826.1,85.5z M833.7,80.5c2.8,0,5,2.3,5,5
					c0,1.5-0.5,2.5-1.9,3.9c-1,1.1-2,3.4-2.9,5.5c-0.1,0.2-0.2,0.4-0.2,0.5c-0.1-0.2-0.2-0.4-0.2-0.5c-0.9-2.1-1.9-4.4-2.9-5.5
					c-1.4-1.5-1.9-2.4-1.9-3.9C828.7,82.8,831,80.5,833.7,80.5z"/>
				<circle class="st3" cx="833.7" cy="85.2" r="2.3"/>
				<path class="st3" d="M851,58c-0.4-0.2-0.8-0.3-1.2-0.1L829.2,68l-20.6-10.1c-0.4-0.2-0.8-0.2-1.1,0L786.7,68l-20.6-10.1
					c-0.4-0.2-0.9-0.2-1.2,0.1c-0.4,0.2-0.6,0.6-0.6,1.1v63.3c0,0.5,0.3,0.9,0.7,1.2l21.2,10.4c0.4,0.2,0.8,0.2,1.1,0l20.6-10.1
					l20.6,10.1c0.2,0.1,0.4,0.1,0.6,0.1c0.2,0,0.4,0,0.6-0.1l21.2-10.4c0.4-0.2,0.7-0.7,0.7-1.2V59.1C851.6,58.6,851.4,58.2,851,58z
					 M849.1,121.5l-19.9,9.8l-20.6-10.1c-0.2-0.1-0.4-0.1-0.6-0.1c-0.2,0-0.4,0-0.6,0.1l-20.6,10.1l-19.9-9.8V61.1l19.4,9.5
					c0.4,0.2,0.8,0.2,1.1,0L808,60.5l20.6,10.1c0.4,0.2,0.8,0.2,1.1,0l19.4-9.5C849.1,61.1,849.1,121.5,849.1,121.5z"/>
				<path class="st3" d="M833.2,102.4l-7.6,3.6l-10.8-0.4c-0.2,0-0.5,0-0.7,0.2l-11.2,6.1l-16.3-6.8c-0.3-0.1-0.7-0.1-1.1,0
					l-13.7,7.1l1.2,2.3l13.1-6.8l16.3,6.8c0.2,0.1,0.3,0.1,0.5,0.1c0.2,0,0.4-0.1,0.6-0.2l11.4-6.3l10.7,0.4c0.2,0,0.4,0,0.6-0.1
					l7.4-3.6l9.1,3.1l0.8-2.4l-9.6-3.3C833.8,102.2,833.5,102.2,833.2,102.4z"/>
			</g>
			<g>
				<path d="M750,151.7c1.4,0,2.6,0.5,3.7,1.5c1,1,1.5,2.3,1.5,3.8c0,1.5-0.5,2.7-1.5,3.7c-1,1-2.2,1.5-3.7,1.5
					c-1.5,0-2.8-0.5-3.8-1.6s-1.5-2.3-1.5-3.7c0-1,0.2-1.8,0.7-2.7c0.5-0.8,1.1-1.4,1.9-1.9C748.2,151.9,749.1,151.7,750,151.7z
					 M750,153.6c-0.9,0-1.7,0.3-2.3,1s-1,1.5-1,2.5c0,1.1,0.4,2,1.2,2.6c0.6,0.5,1.3,0.8,2.1,0.8c0.9,0,1.7-0.3,2.3-1s1-1.5,1-2.4
					c0-1-0.3-1.8-1-2.4S750.9,153.6,750,153.6z"/>
				<path d="M764.1,156.1l-1.6,0.9c-0.3-0.3-0.6-0.5-0.9-0.6s-0.6-0.2-1-0.2c-0.7,0-1.3,0.2-1.7,0.6c-0.4,0.4-0.6,0.9-0.6,1.6
					c0,0.6,0.2,1.1,0.6,1.5s1,0.6,1.6,0.6c0.8,0,1.5-0.3,2-0.9l1.5,1c-0.8,1-1.9,1.6-3.4,1.6c-1.3,0-2.3-0.4-3.1-1.2
					c-0.7-0.8-1.1-1.7-1.1-2.7c0-0.7,0.2-1.4,0.5-2s0.9-1.1,1.5-1.4c0.6-0.3,1.4-0.5,2.2-0.5c0.7,0,1.4,0.1,2,0.4
					S763.7,155.5,764.1,156.1z"/>
				<path d="M773,156.1l-1.6,0.9c-0.3-0.3-0.6-0.5-0.9-0.6s-0.6-0.2-1-0.2c-0.7,0-1.3,0.2-1.7,0.6c-0.4,0.4-0.6,0.9-0.6,1.6
					c0,0.6,0.2,1.1,0.6,1.5s1,0.6,1.6,0.6c0.8,0,1.5-0.3,2-0.9l1.5,1c-0.8,1-1.9,1.6-3.4,1.6c-1.3,0-2.3-0.4-3.1-1.2
					c-0.7-0.8-1.1-1.7-1.1-2.7c0-0.7,0.2-1.4,0.5-2s0.9-1.1,1.5-1.4c0.6-0.3,1.4-0.5,2.2-0.5c0.7,0,1.4,0.1,2,0.4
					S772.7,155.5,773,156.1z"/>
				<path d="M774.7,154.6h1.9v3.6c0,0.7,0,1.2,0.1,1.5c0.1,0.3,0.3,0.5,0.5,0.6c0.2,0.2,0.5,0.2,0.8,0.2c0.3,0,0.6-0.1,0.8-0.2
					s0.4-0.4,0.5-0.7c0.1-0.2,0.1-0.7,0.1-1.4v-3.6h1.9v3.2c0,1.3-0.1,2.2-0.3,2.7c-0.3,0.6-0.6,1-1.1,1.3s-1.1,0.5-1.9,0.5
					c-0.8,0-1.5-0.2-2-0.5c-0.5-0.4-0.9-0.9-1.1-1.5c-0.1-0.5-0.2-1.3-0.2-2.5V154.6z"/>
				<path d="M785,154.6v0.8c0.3-0.3,0.7-0.6,1.1-0.8s0.8-0.3,1.3-0.3c1,0,1.8,0.4,2.5,1.1s1,1.7,1,2.8c0,1.1-0.4,2-1.1,2.8
					s-1.5,1.1-2.5,1.1c-0.4,0-0.8-0.1-1.2-0.2s-0.7-0.4-1.1-0.7v3.5h-1.9v-10.2H785z M786.9,156.1c-0.6,0-1.1,0.2-1.5,0.6
					s-0.6,0.9-0.6,1.6c0,0.7,0.2,1.2,0.6,1.6s0.9,0.6,1.5,0.6c0.6,0,1-0.2,1.4-0.6c0.4-0.4,0.6-0.9,0.6-1.6c0-0.6-0.2-1.2-0.6-1.6
					S787.5,156.1,786.9,156.1z"/>
				<path d="M797.9,154.6h1.9v7.4h-1.9v-0.8c-0.4,0.3-0.7,0.6-1.1,0.7s-0.8,0.2-1.2,0.2c-1,0-1.8-0.4-2.5-1.1s-1.1-1.7-1.1-2.8
					c0-1.1,0.3-2.1,1-2.8c0.7-0.7,1.5-1.1,2.5-1.1c0.4,0,0.9,0.1,1.3,0.3s0.8,0.4,1.1,0.8V154.6z M795.9,156.1
					c-0.6,0-1.1,0.2-1.4,0.6s-0.6,0.9-0.6,1.6c0,0.6,0.2,1.2,0.6,1.6c0.4,0.4,0.9,0.6,1.4,0.6c0.6,0,1.1-0.2,1.5-0.6
					s0.6-0.9,0.6-1.6c0-0.6-0.2-1.2-0.6-1.6S796.5,156.1,795.9,156.1z"/>
				<path d="M801.6,154.6h1.9v0.8c0.4-0.4,0.8-0.6,1.2-0.7c0.3-0.1,0.7-0.2,1.1-0.2c0.7,0,1.4,0.3,1.9,0.8c0.4,0.4,0.6,1.1,0.6,1.9
					v4.9h-1.8v-3.3c0-0.9,0-1.5-0.1-1.8c-0.1-0.3-0.2-0.5-0.4-0.7c-0.2-0.2-0.4-0.2-0.7-0.2c-0.4,0-0.7,0.1-1,0.4
					c-0.3,0.3-0.5,0.6-0.6,1c-0.1,0.2-0.1,0.7-0.1,1.5v3h-1.9V154.6z"/>
				<path d="M817.3,156.1l-1.6,0.9c-0.3-0.3-0.6-0.5-0.9-0.6s-0.6-0.2-1-0.2c-0.7,0-1.3,0.2-1.7,0.6c-0.4,0.4-0.6,0.9-0.6,1.6
					c0,0.6,0.2,1.1,0.6,1.5s1,0.6,1.6,0.6c0.8,0,1.5-0.3,2-0.9l1.5,1c-0.8,1-1.9,1.6-3.4,1.6c-1.3,0-2.3-0.4-3.1-1.2
					c-0.7-0.8-1.1-1.7-1.1-2.7c0-0.7,0.2-1.4,0.5-2s0.9-1.1,1.5-1.4c0.6-0.3,1.4-0.5,2.2-0.5c0.7,0,1.4,0.1,2,0.4
					S816.9,155.5,817.3,156.1z"/>
				<path d="M818.2,154.6h1.9l1.9,4.7l2.1-4.7h1.9l-4.7,10.2h-1.9l1.5-3.3L818.2,154.6z"/>
				<path d="M831.2,162V152h1.6c0.9,0,1.6,0.1,2,0.2c0.6,0.2,1.1,0.5,1.4,0.9c0.4,0.4,0.5,0.9,0.5,1.5c0,0.4-0.1,0.7-0.2,1
					c-0.2,0.3-0.4,0.6-0.8,0.9c0.6,0.3,1.1,0.6,1.3,1.1s0.4,0.9,0.4,1.5c0,0.6-0.1,1.1-0.4,1.5s-0.7,0.8-1.1,1s-1.1,0.3-1.9,0.3
					H831.2z M833.1,153.8v2.1h0.4c0.5,0,0.8-0.1,1-0.3s0.3-0.5,0.3-0.8c0-0.3-0.1-0.6-0.3-0.7s-0.5-0.3-1-0.3H833.1z M833.1,157.6
					v2.6h0.5c0.8,0,1.3-0.1,1.6-0.3s0.4-0.5,0.4-0.9c0-0.4-0.2-0.8-0.5-1c-0.3-0.3-0.9-0.4-1.6-0.4H833.1z"/>
				<path d="M844.6,154.6h1.9v7.4h-1.9v-0.8c-0.4,0.3-0.7,0.6-1.1,0.7s-0.8,0.2-1.2,0.2c-1,0-1.8-0.4-2.5-1.1s-1.1-1.7-1.1-2.8
					c0-1.1,0.3-2.1,1-2.8c0.7-0.7,1.5-1.1,2.5-1.1c0.4,0,0.9,0.1,1.3,0.3s0.8,0.4,1.1,0.8V154.6z M842.7,156.1
					c-0.6,0-1.1,0.2-1.4,0.6s-0.6,0.9-0.6,1.6c0,0.6,0.2,1.2,0.6,1.6c0.4,0.4,0.9,0.6,1.4,0.6c0.6,0,1.1-0.2,1.5-0.6
					s0.6-0.9,0.6-1.6c0-0.6-0.2-1.2-0.6-1.6S843.3,156.1,842.7,156.1z"/>
				<path d="M852.9,155.6l-1.2,1.2c-0.5-0.5-0.9-0.7-1.3-0.7c-0.2,0-0.4,0-0.5,0.1s-0.2,0.2-0.2,0.3c0,0.1,0,0.2,0.1,0.3
					c0.1,0.1,0.3,0.2,0.6,0.3l0.7,0.3c0.7,0.4,1.2,0.7,1.5,1.1s0.4,0.8,0.4,1.3c0,0.7-0.2,1.2-0.7,1.7c-0.5,0.4-1.1,0.7-2,0.7
					c-1.1,0-2-0.4-2.6-1.3l1.1-1.3c0.2,0.3,0.5,0.5,0.8,0.6c0.3,0.2,0.6,0.2,0.8,0.2c0.2,0,0.4-0.1,0.6-0.2s0.2-0.3,0.2-0.4
					c0-0.3-0.3-0.6-0.8-0.8l-0.6-0.3c-1.2-0.6-1.8-1.4-1.8-2.3c0-0.6,0.2-1.1,0.7-1.5c0.5-0.4,1-0.6,1.7-0.6c0.5,0,0.9,0.1,1.4,0.3
					C852.3,154.9,852.6,155.2,852.9,155.6z"/>
				<path d="M862,158.8h-6c0.1,0.5,0.3,0.9,0.7,1.3c0.4,0.3,0.9,0.5,1.4,0.5c0.7,0,1.3-0.2,1.8-0.7l1.6,0.7c-0.4,0.6-0.9,1-1.4,1.2
					s-1.2,0.4-1.9,0.4c-1.2,0-2.1-0.4-2.9-1.1s-1.1-1.7-1.1-2.8c0-1.1,0.4-2.1,1.1-2.8c0.7-0.7,1.6-1.1,2.8-1.1
					c1.2,0,2.1,0.4,2.9,1.1s1.1,1.7,1.1,3L862,158.8z M860.1,157.4c-0.1-0.4-0.4-0.8-0.7-1c-0.4-0.3-0.8-0.4-1.3-0.4
					c-0.5,0-1,0.1-1.4,0.4c-0.2,0.2-0.5,0.5-0.7,1H860.1z"/>
				<path d="M869,151.7h1.9V162H869v-0.8c-0.4,0.3-0.7,0.6-1.1,0.7s-0.8,0.2-1.2,0.2c-1,0-1.8-0.4-2.5-1.1s-1.1-1.7-1.1-2.8
					c0-1.1,0.3-2.1,1-2.8c0.7-0.7,1.5-1.1,2.5-1.1c0.4,0,0.9,0.1,1.3,0.3s0.8,0.4,1.1,0.8V151.7z M867,156.1c-0.6,0-1.1,0.2-1.4,0.6
					s-0.6,0.9-0.6,1.6c0,0.6,0.2,1.2,0.6,1.6c0.4,0.4,0.9,0.6,1.4,0.6c0.6,0,1.1-0.2,1.5-0.6s0.6-0.9,0.6-1.6c0-0.6-0.2-1.2-0.6-1.6
					S867.6,156.1,867,156.1z"/>
				<path d="M757.7,168.8h2c1.1,0,1.9,0.1,2.4,0.3c0.5,0.2,0.9,0.5,1.1,1c0.3,0.5,0.4,1,0.4,1.6c0,0.7-0.2,1.2-0.5,1.7
					c-0.3,0.4-0.8,0.8-1.4,1l2.4,4.5h-2.1l-2.3-4.3h-0.2v4.3h-1.9V168.8z M759.6,172.7h0.6c0.6,0,1-0.1,1.3-0.2
					c0.2-0.2,0.3-0.4,0.3-0.8c0-0.2-0.1-0.4-0.2-0.6c-0.1-0.2-0.3-0.3-0.5-0.3s-0.5-0.1-1-0.1h-0.5V172.7z"/>
				<path d="M773,175.6h-6c0.1,0.5,0.3,0.9,0.7,1.3c0.4,0.3,0.9,0.5,1.4,0.5c0.7,0,1.3-0.2,1.8-0.7l1.6,0.7c-0.4,0.6-0.9,1-1.4,1.2
					s-1.2,0.4-1.9,0.4c-1.2,0-2.1-0.4-2.9-1.1s-1.1-1.7-1.1-2.8c0-1.1,0.4-2.1,1.1-2.8c0.7-0.7,1.6-1.1,2.8-1.1
					c1.2,0,2.1,0.4,2.9,1.1s1.1,1.7,1.1,3L773,175.6z M771.1,174.2c-0.1-0.4-0.4-0.8-0.7-1c-0.4-0.3-0.8-0.4-1.3-0.4
					c-0.5,0-1,0.1-1.4,0.4c-0.2,0.2-0.5,0.5-0.7,1H771.1z"/>
				<path d="M773.6,171.4h1.8l1.5,4.2l1.6-4.2h1.1l1.6,4.2l1.5-4.2h1.8l-2.7,7.4h-1.2l-1.6-4.2l-1.6,4.2h-1.2L773.6,171.4z"/>
				<path d="M791.1,171.4h1.9v7.4h-1.9V178c-0.4,0.3-0.7,0.6-1.1,0.7s-0.8,0.2-1.2,0.2c-1,0-1.8-0.4-2.5-1.1s-1.1-1.7-1.1-2.8
					c0-1.1,0.3-2.1,1-2.8c0.7-0.7,1.5-1.1,2.5-1.1c0.4,0,0.9,0.1,1.3,0.3s0.8,0.4,1.1,0.8V171.4z M789.2,172.9
					c-0.6,0-1.1,0.2-1.4,0.6s-0.6,0.9-0.6,1.6c0,0.6,0.2,1.2,0.6,1.6c0.4,0.4,0.9,0.6,1.4,0.6c0.6,0,1.1-0.2,1.5-0.6
					s0.6-0.9,0.6-1.6c0-0.6-0.2-1.2-0.6-1.6S789.8,172.9,789.2,172.9z"/>
				<path d="M794.5,171.4h1.6v0.9c0.2-0.4,0.4-0.6,0.7-0.8s0.6-0.3,0.9-0.3c0.2,0,0.5,0.1,0.8,0.2l-0.6,1.6
					c-0.2-0.1-0.4-0.2-0.5-0.2c-0.3,0-0.5,0.2-0.7,0.5c-0.2,0.4-0.3,1.1-0.3,2.1l0,0.4v3h-1.9V171.4z"/>
				<path d="M804.9,168.5h1.9v10.3h-1.9V178c-0.4,0.3-0.7,0.6-1.1,0.7s-0.8,0.2-1.2,0.2c-1,0-1.8-0.4-2.5-1.1s-1.1-1.7-1.1-2.8
					c0-1.1,0.3-2.1,1-2.8c0.7-0.7,1.5-1.1,2.5-1.1c0.4,0,0.9,0.1,1.3,0.3s0.8,0.4,1.1,0.8V168.5z M802.9,172.9
					c-0.6,0-1.1,0.2-1.4,0.6s-0.6,0.9-0.6,1.6c0,0.6,0.2,1.2,0.6,1.6c0.4,0.4,0.9,0.6,1.4,0.6c0.6,0,1.1-0.2,1.5-0.6
					s0.6-0.9,0.6-1.6c0-0.6-0.2-1.2-0.6-1.6S803.5,172.9,802.9,172.9z"/>
				<path d="M818,170.1l-1.4,1.3c-0.5-0.7-1-1-1.5-1c-0.3,0-0.5,0.1-0.6,0.2c-0.2,0.1-0.2,0.3-0.2,0.5s0.1,0.3,0.2,0.5
					c0.2,0.2,0.6,0.6,1.4,1.3c0.7,0.6,1.2,1,1.3,1.2c0.4,0.4,0.7,0.8,0.8,1.1s0.2,0.7,0.2,1.2c0,0.8-0.3,1.5-0.9,2s-1.3,0.8-2.2,0.8
					c-0.7,0-1.3-0.2-1.9-0.5s-1-0.9-1.4-1.7l1.6-1c0.5,0.9,1,1.3,1.7,1.3c0.3,0,0.6-0.1,0.8-0.3s0.3-0.4,0.3-0.7
					c0-0.2-0.1-0.5-0.3-0.7c-0.2-0.2-0.5-0.6-1.1-1c-1.1-0.9-1.8-1.6-2.1-2.1s-0.5-1-0.5-1.5c0-0.7,0.3-1.3,0.8-1.8
					c0.5-0.5,1.2-0.7,2-0.7c0.5,0,1,0.1,1.4,0.3C817,169.1,817.5,169.5,818,170.1z"/>
				<path d="M819,171.4h1.9l1.9,4.7l2.1-4.7h1.9l-4.7,10.2h-1.9l1.5-3.3L819,171.4z"/>
				<path d="M832.5,172.4l-1.2,1.2c-0.5-0.5-0.9-0.7-1.3-0.7c-0.2,0-0.4,0-0.5,0.1s-0.2,0.2-0.2,0.3c0,0.1,0,0.2,0.1,0.3
					c0.1,0.1,0.3,0.2,0.6,0.3l0.7,0.3c0.7,0.4,1.2,0.7,1.5,1.1s0.4,0.8,0.4,1.3c0,0.7-0.2,1.2-0.7,1.7c-0.5,0.4-1.1,0.7-2,0.7
					c-1.1,0-2-0.4-2.6-1.3l1.1-1.3c0.2,0.3,0.5,0.5,0.8,0.6c0.3,0.2,0.6,0.2,0.8,0.2c0.2,0,0.4-0.1,0.6-0.2s0.2-0.3,0.2-0.4
					c0-0.3-0.3-0.6-0.8-0.8l-0.6-0.3c-1.2-0.6-1.8-1.4-1.8-2.3c0-0.6,0.2-1.1,0.7-1.5c0.5-0.4,1-0.6,1.7-0.6c0.5,0,0.9,0.1,1.4,0.3
					C831.8,171.7,832.2,172,832.5,172.4z"/>
				<path d="M834.3,168.6h1.9v2.7h1.1v1.6h-1.1v5.8h-1.9V173h-1v-1.6h1V168.6z"/>
				<path d="M845.7,175.6h-6c0.1,0.5,0.3,0.9,0.7,1.3c0.4,0.3,0.9,0.5,1.4,0.5c0.7,0,1.3-0.2,1.8-0.7l1.6,0.7
					c-0.4,0.6-0.9,1-1.4,1.2s-1.2,0.4-1.9,0.4c-1.2,0-2.1-0.4-2.9-1.1s-1.1-1.7-1.1-2.8c0-1.1,0.4-2.1,1.1-2.8
					c0.7-0.7,1.6-1.1,2.8-1.1c1.2,0,2.1,0.4,2.9,1.1s1.1,1.7,1.1,3L845.7,175.6z M843.9,174.2c-0.1-0.4-0.4-0.8-0.7-1
					c-0.4-0.3-0.8-0.4-1.3-0.4c-0.5,0-1,0.1-1.4,0.4c-0.2,0.2-0.5,0.5-0.7,1H843.9z"/>
				<path d="M847.2,171.4h1.9v0.9c0.3-0.4,0.7-0.6,1.1-0.8s0.8-0.3,1.3-0.3c0.5,0,0.9,0.1,1.3,0.3s0.7,0.6,0.9,1
					c0.3-0.4,0.7-0.8,1.1-1c0.4-0.2,0.9-0.3,1.4-0.3c0.5,0,1,0.1,1.4,0.4s0.7,0.6,0.9,1s0.3,1,0.3,1.9v4.4h-1.9V175
					c0-0.8-0.1-1.4-0.3-1.7s-0.5-0.4-0.9-0.4c-0.3,0-0.6,0.1-0.9,0.3c-0.3,0.2-0.4,0.4-0.6,0.8s-0.2,0.8-0.2,1.5v3.4H852v-3.6
					c0-0.7,0-1.1-0.1-1.4c-0.1-0.3-0.2-0.5-0.4-0.7c-0.2-0.1-0.4-0.2-0.7-0.2c-0.3,0-0.6,0.1-0.8,0.3c-0.3,0.2-0.4,0.4-0.6,0.8
					s-0.2,0.9-0.2,1.6v3.3h-1.9V171.4z"/>
				<path d="M759.3,185.6h5v1.9h-3.1v1.8h3.1v1.8h-3.1v4.5h-1.9V185.6z"/>
				<path d="M769.3,188c0.7,0,1.4,0.2,2,0.5c0.6,0.4,1.1,0.8,1.4,1.4s0.5,1.3,0.5,1.9c0,0.7-0.2,1.4-0.5,2c-0.3,0.6-0.8,1.1-1.4,1.4
					s-1.3,0.5-2,0.5c-1.1,0-2-0.4-2.7-1.1c-0.8-0.8-1.1-1.7-1.1-2.8c0-1.2,0.4-2.1,1.3-2.9C767.4,188.3,768.3,188,769.3,188z
					 M769.3,189.7c-0.6,0-1.1,0.2-1.4,0.6s-0.6,0.9-0.6,1.5c0,0.6,0.2,1.2,0.6,1.6c0.4,0.4,0.9,0.6,1.4,0.6c0.6,0,1.1-0.2,1.5-0.6
					s0.6-0.9,0.6-1.6s-0.2-1.2-0.6-1.6C770.4,189.9,769.9,189.7,769.3,189.7z"/>
				<path d="M774.3,188.2h1.6v0.9c0.2-0.4,0.4-0.6,0.7-0.8s0.6-0.3,0.9-0.3c0.2,0,0.5,0.1,0.8,0.2l-0.6,1.6
					c-0.2-0.1-0.4-0.2-0.5-0.2c-0.3,0-0.5,0.2-0.7,0.5c-0.2,0.4-0.3,1.1-0.3,2.1l0,0.4v3h-1.9V188.2z"/>
				<path d="M783.3,185.6h2c1.1,0,1.9,0.1,2.4,0.3c0.5,0.2,0.9,0.5,1.1,1c0.3,0.5,0.4,1,0.4,1.6c0,0.7-0.2,1.3-0.5,1.8
					c-0.4,0.5-0.9,0.8-1.5,1c-0.4,0.1-1,0.2-2,0.2v4.3h-1.9V185.6z M785.2,189.5h0.6c0.5,0,0.8,0,1-0.1c0.2-0.1,0.3-0.2,0.4-0.3
					c0.1-0.2,0.2-0.3,0.2-0.6c0-0.4-0.2-0.7-0.5-0.9c-0.2-0.1-0.6-0.2-1.2-0.2h-0.5V189.5z"/>
				<path d="M796.5,188.2h1.9v7.4h-1.9v-0.8c-0.4,0.3-0.7,0.6-1.1,0.7s-0.8,0.2-1.2,0.2c-1,0-1.8-0.4-2.5-1.1s-1.1-1.7-1.1-2.8
					c0-1.1,0.3-2.1,1-2.8c0.7-0.7,1.5-1.1,2.5-1.1c0.4,0,0.9,0.1,1.3,0.3s0.8,0.4,1.1,0.8V188.2z M794.5,189.7
					c-0.6,0-1.1,0.2-1.4,0.6s-0.6,0.9-0.6,1.6c0,0.6,0.2,1.2,0.6,1.6c0.4,0.4,0.9,0.6,1.4,0.6c0.6,0,1.1-0.2,1.5-0.6
					s0.6-0.9,0.6-1.6c0-0.6-0.2-1.2-0.6-1.6S795.1,189.7,794.5,189.7z"/>
				<path d="M804.8,189.2l-1.2,1.2c-0.5-0.5-0.9-0.7-1.3-0.7c-0.2,0-0.4,0-0.5,0.1s-0.2,0.2-0.2,0.3c0,0.1,0,0.2,0.1,0.3
					c0.1,0.1,0.3,0.2,0.6,0.3l0.7,0.3c0.7,0.4,1.2,0.7,1.5,1.1s0.4,0.8,0.4,1.3c0,0.7-0.2,1.2-0.7,1.7c-0.5,0.4-1.1,0.7-2,0.7
					c-1.1,0-2-0.4-2.6-1.3l1.1-1.3c0.2,0.3,0.5,0.5,0.8,0.6c0.3,0.2,0.6,0.2,0.8,0.2c0.2,0,0.4-0.1,0.6-0.2s0.2-0.3,0.2-0.4
					c0-0.3-0.3-0.6-0.8-0.8l-0.6-0.3c-1.2-0.6-1.8-1.4-1.8-2.3c0-0.6,0.2-1.1,0.7-1.5c0.5-0.4,1-0.6,1.7-0.6c0.5,0,0.9,0.1,1.4,0.3
					C804.1,188.5,804.5,188.8,804.8,189.2z"/>
				<path d="M810.9,189.2l-1.2,1.2c-0.5-0.5-0.9-0.7-1.3-0.7c-0.2,0-0.4,0-0.5,0.1s-0.2,0.2-0.2,0.3c0,0.1,0,0.2,0.1,0.3
					c0.1,0.1,0.3,0.2,0.6,0.3l0.7,0.3c0.7,0.4,1.2,0.7,1.5,1.1s0.4,0.8,0.4,1.3c0,0.7-0.2,1.2-0.7,1.7c-0.5,0.4-1.1,0.7-2,0.7
					c-1.1,0-2-0.4-2.6-1.3l1.1-1.3c0.2,0.3,0.5,0.5,0.8,0.6c0.3,0.2,0.6,0.2,0.8,0.2c0.2,0,0.4-0.1,0.6-0.2s0.2-0.3,0.2-0.4
					c0-0.3-0.3-0.6-0.8-0.8l-0.6-0.3c-1.2-0.6-1.8-1.4-1.8-2.3c0-0.6,0.2-1.1,0.7-1.5c0.5-0.4,1-0.6,1.7-0.6c0.5,0,0.9,0.1,1.4,0.3
					C810.3,188.5,810.6,188.8,810.9,189.2z"/>
				<path d="M820,192.4h-6c0.1,0.5,0.3,0.9,0.7,1.3c0.4,0.3,0.9,0.5,1.4,0.5c0.7,0,1.3-0.2,1.8-0.7l1.6,0.7c-0.4,0.6-0.9,1-1.4,1.2
					s-1.2,0.4-1.9,0.4c-1.2,0-2.1-0.4-2.9-1.1s-1.1-1.7-1.1-2.8c0-1.1,0.4-2.1,1.1-2.8c0.7-0.7,1.6-1.1,2.8-1.1
					c1.2,0,2.1,0.4,2.9,1.1s1.1,1.7,1.1,3L820,192.4z M818.1,191c-0.1-0.4-0.4-0.8-0.7-1c-0.4-0.3-0.8-0.4-1.3-0.4
					c-0.5,0-1,0.1-1.4,0.4c-0.2,0.2-0.5,0.5-0.7,1H818.1z"/>
				<path d="M821.5,188.2h1.9v0.8c0.4-0.4,0.8-0.6,1.2-0.7c0.3-0.1,0.7-0.2,1.1-0.2c0.7,0,1.4,0.3,1.9,0.8c0.4,0.4,0.6,1.1,0.6,1.9
					v4.9h-1.8v-3.3c0-0.9,0-1.5-0.1-1.8c-0.1-0.3-0.2-0.5-0.4-0.7c-0.2-0.2-0.4-0.2-0.7-0.2c-0.4,0-0.7,0.1-1,0.4
					c-0.3,0.3-0.5,0.6-0.6,1c-0.1,0.2-0.1,0.7-0.1,1.5v3h-1.9V188.2z"/>
				<path d="M835.4,188.2h1.9v6.4c0,1.3-0.3,2.2-0.8,2.8c-0.7,0.8-1.7,1.2-3.1,1.2c-0.7,0-1.3-0.1-1.8-0.3s-0.9-0.5-1.3-0.8
					s-0.6-0.8-0.8-1.3h2.1c0.2,0.2,0.4,0.4,0.7,0.5s0.6,0.2,1,0.2c0.5,0,0.9-0.1,1.2-0.2s0.5-0.4,0.6-0.6c0.1-0.2,0.2-0.7,0.2-1.3
					c-0.3,0.3-0.7,0.6-1,0.7s-0.8,0.2-1.2,0.2c-1,0-1.8-0.4-2.5-1.1s-1-1.6-1-2.7c0-1.2,0.4-2.1,1.1-2.8c0.7-0.6,1.4-1,2.4-1
					c0.4,0,0.8,0.1,1.2,0.2c0.4,0.2,0.8,0.4,1.1,0.8V188.2z M833.5,189.7c-0.6,0-1.1,0.2-1.5,0.6s-0.6,0.9-0.6,1.5
					c0,0.6,0.2,1.1,0.6,1.5s0.9,0.6,1.5,0.6c0.6,0,1.1-0.2,1.4-0.6c0.4-0.4,0.6-0.9,0.6-1.5c0-0.6-0.2-1.1-0.6-1.5
					S834.1,189.7,833.5,189.7z"/>
				<path d="M846.6,192.4h-6c0.1,0.5,0.3,0.9,0.7,1.3c0.4,0.3,0.9,0.5,1.4,0.5c0.7,0,1.3-0.2,1.8-0.7l1.6,0.7
					c-0.4,0.6-0.9,1-1.4,1.2s-1.2,0.4-1.9,0.4c-1.2,0-2.1-0.4-2.9-1.1s-1.1-1.7-1.1-2.8c0-1.1,0.4-2.1,1.1-2.8
					c0.7-0.7,1.6-1.1,2.8-1.1c1.2,0,2.1,0.4,2.9,1.1s1.1,1.7,1.1,3L846.6,192.4z M844.7,191c-0.1-0.4-0.4-0.8-0.7-1
					c-0.4-0.3-0.8-0.4-1.3-0.4c-0.5,0-1,0.1-1.4,0.4c-0.2,0.2-0.5,0.5-0.7,1H844.7z"/>
				<path d="M847.7,188.2h1.6v0.9c0.2-0.4,0.4-0.6,0.7-0.8s0.6-0.3,0.9-0.3c0.2,0,0.5,0.1,0.8,0.2l-0.6,1.6
					c-0.2-0.1-0.4-0.2-0.5-0.2c-0.3,0-0.5,0.2-0.7,0.5c-0.2,0.4-0.3,1.1-0.3,2.1l0,0.4v3h-1.9V188.2z"/>
				<path d="M857.1,189.2l-1.2,1.2c-0.5-0.5-0.9-0.7-1.3-0.7c-0.2,0-0.4,0-0.5,0.1s-0.2,0.2-0.2,0.3c0,0.1,0,0.2,0.1,0.3
					c0.1,0.1,0.3,0.2,0.6,0.3l0.7,0.3c0.7,0.4,1.2,0.7,1.5,1.1s0.4,0.8,0.4,1.3c0,0.7-0.2,1.2-0.7,1.7c-0.5,0.4-1.1,0.7-2,0.7
					c-1.1,0-2-0.4-2.6-1.3l1.1-1.3c0.2,0.3,0.5,0.5,0.8,0.6c0.3,0.2,0.6,0.2,0.8,0.2c0.2,0,0.4-0.1,0.6-0.2s0.2-0.3,0.2-0.4
					c0-0.3-0.3-0.6-0.8-0.8l-0.6-0.3c-1.2-0.6-1.8-1.4-1.8-2.3c0-0.6,0.2-1.1,0.7-1.5c0.5-0.4,1-0.6,1.7-0.6c0.5,0,0.9,0.1,1.4,0.3
					C856.5,188.5,856.8,188.8,857.1,189.2z"/>
			</g>
		</g>
	</g>
</g>
<g>
	<path d="M506.5,94.8l-1.4,1.3c-0.5-0.7-1-1-1.5-1c-0.3,0-0.5,0.1-0.6,0.2c-0.2,0.1-0.2,0.3-0.2,0.5s0.1,0.3,0.2,0.5
		c0.2,0.2,0.6,0.6,1.4,1.3c0.7,0.6,1.2,1,1.3,1.2c0.4,0.4,0.7,0.8,0.8,1.1s0.2,0.7,0.2,1.2c0,0.8-0.3,1.5-0.9,2s-1.3,0.8-2.2,0.8
		c-0.7,0-1.3-0.2-1.9-0.5s-1-0.9-1.4-1.7l1.6-1c0.5,0.9,1,1.3,1.7,1.3c0.3,0,0.6-0.1,0.8-0.3s0.3-0.4,0.3-0.7c0-0.2-0.1-0.5-0.3-0.7
		s-0.5-0.6-1.1-1c-1.1-0.9-1.8-1.6-2.1-2.1c-0.3-0.5-0.5-1-0.5-1.5c0-0.7,0.3-1.3,0.8-1.8s1.2-0.7,2-0.7c0.5,0,1,0.1,1.4,0.3
		C505.4,93.8,505.9,94.2,506.5,94.8z"/>
	<path d="M508.3,96.1h1.9v0.9c0.3-0.4,0.7-0.6,1.1-0.8s0.8-0.3,1.3-0.3c0.5,0,0.9,0.1,1.3,0.3s0.7,0.6,0.9,1c0.3-0.4,0.7-0.8,1.1-1
		c0.4-0.2,0.9-0.3,1.4-0.3c0.5,0,1,0.1,1.4,0.4s0.7,0.6,0.9,1s0.3,1,0.3,1.9v4.4h-1.9v-3.8c0-0.8-0.1-1.4-0.3-1.7
		c-0.2-0.3-0.5-0.4-0.9-0.4c-0.3,0-0.6,0.1-0.9,0.3s-0.4,0.4-0.6,0.8s-0.2,0.8-0.2,1.5v3.4H513v-3.6c0-0.7,0-1.1-0.1-1.4
		c-0.1-0.3-0.2-0.5-0.4-0.7s-0.4-0.2-0.7-0.2c-0.3,0-0.6,0.1-0.8,0.3s-0.4,0.4-0.6,0.8c-0.1,0.3-0.2,0.9-0.2,1.6v3.3h-1.9V96.1z"/>
	<path d="M526.9,96.1h1.9v7.4h-1.9v-0.8c-0.4,0.3-0.7,0.6-1.1,0.7c-0.4,0.2-0.8,0.2-1.2,0.2c-1,0-1.8-0.4-2.5-1.1
		c-0.7-0.7-1.1-1.7-1.1-2.8c0-1.1,0.3-2.1,1-2.8c0.7-0.7,1.5-1.1,2.5-1.1c0.4,0,0.9,0.1,1.3,0.3s0.8,0.4,1.1,0.8V96.1z M525,97.6
		c-0.6,0-1.1,0.2-1.4,0.6c-0.4,0.4-0.6,0.9-0.6,1.6c0,0.6,0.2,1.2,0.6,1.6s0.9,0.6,1.4,0.6c0.6,0,1.1-0.2,1.5-0.6
		c0.4-0.4,0.6-0.9,0.6-1.6c0-0.6-0.2-1.2-0.6-1.6C526,97.8,525.5,97.6,525,97.6z"/>
	<path d="M530.2,96.1h1.6V97c0.2-0.4,0.4-0.6,0.7-0.8s0.6-0.3,0.9-0.3c0.2,0,0.5,0.1,0.8,0.2l-0.6,1.6c-0.2-0.1-0.4-0.2-0.5-0.2
		c-0.3,0-0.5,0.2-0.7,0.5c-0.2,0.4-0.3,1.1-0.3,2.1l0,0.4v3h-1.9V96.1z"/>
	<path d="M535.4,93.3h1.9v2.7h1.1v1.6h-1.1v5.8h-1.9v-5.8h-1v-1.6h1V93.3z"/>
	<path d="M541.2,96.1v0.8c0.3-0.3,0.7-0.6,1.1-0.8s0.8-0.3,1.3-0.3c1,0,1.8,0.4,2.5,1.1s1,1.7,1,2.8c0,1.1-0.4,2-1.1,2.8
		s-1.5,1.1-2.5,1.1c-0.4,0-0.8-0.1-1.2-0.2s-0.7-0.4-1.1-0.7v3.5h-1.9V96.1H541.2z M543.2,97.6c-0.6,0-1.1,0.2-1.5,0.6
		s-0.6,0.9-0.6,1.6c0,0.7,0.2,1.2,0.6,1.6s0.9,0.6,1.5,0.6c0.6,0,1-0.2,1.4-0.6c0.4-0.4,0.6-0.9,0.6-1.6c0-0.6-0.2-1.2-0.6-1.6
		S543.7,97.6,543.2,97.6z"/>
	<path d="M548.6,93.2h1.9v3.6c0.4-0.3,0.7-0.6,1.1-0.7s0.7-0.2,1.1-0.2c0.7,0,1.4,0.3,1.9,0.8c0.4,0.4,0.6,1.1,0.6,1.9v4.9h-1.8
		v-3.3c0-0.9,0-1.4-0.1-1.8s-0.2-0.5-0.4-0.7c-0.2-0.2-0.4-0.2-0.7-0.2c-0.4,0-0.7,0.1-1,0.4c-0.3,0.3-0.5,0.6-0.6,1
		c-0.1,0.2-0.1,0.7-0.1,1.5v3h-1.9V93.2z"/>
	<path d="M560.5,95.9c0.7,0,1.4,0.2,2,0.5c0.6,0.4,1.1,0.8,1.4,1.4s0.5,1.3,0.5,1.9c0,0.7-0.2,1.4-0.5,2c-0.3,0.6-0.8,1.1-1.4,1.4
		s-1.3,0.5-2,0.5c-1.1,0-2-0.4-2.7-1.1c-0.8-0.8-1.1-1.7-1.1-2.8c0-1.2,0.4-2.1,1.3-2.9C558.6,96.2,559.5,95.9,560.5,95.9z
		 M560.5,97.6c-0.6,0-1.1,0.2-1.4,0.6s-0.6,0.9-0.6,1.5c0,0.6,0.2,1.2,0.6,1.6c0.4,0.4,0.9,0.6,1.4,0.6c0.6,0,1.1-0.2,1.5-0.6
		s0.6-0.9,0.6-1.6s-0.2-1.2-0.6-1.6C561.6,97.8,561.1,97.6,560.5,97.6z"/>
	<path d="M565.9,96.1h1.9v0.8c0.4-0.4,0.8-0.6,1.2-0.7c0.3-0.1,0.7-0.2,1.1-0.2c0.7,0,1.4,0.3,1.9,0.8c0.4,0.4,0.6,1.1,0.6,1.9v4.9
		h-1.8v-3.3c0-0.9,0-1.5-0.1-1.8c-0.1-0.3-0.2-0.5-0.4-0.7c-0.2-0.2-0.4-0.2-0.7-0.2c-0.4,0-0.7,0.1-1,0.4c-0.3,0.3-0.5,0.6-0.6,1
		c-0.1,0.2-0.1,0.7-0.1,1.5v3h-1.9V96.1z"/>
	<path d="M581.8,100.3h-6c0.1,0.5,0.3,0.9,0.7,1.3c0.4,0.3,0.9,0.5,1.4,0.5c0.7,0,1.3-0.2,1.8-0.7l1.6,0.7c-0.4,0.6-0.9,1-1.4,1.2
		s-1.2,0.4-1.9,0.4c-1.2,0-2.1-0.4-2.9-1.1s-1.1-1.7-1.1-2.8c0-1.1,0.4-2.1,1.1-2.8c0.7-0.7,1.6-1.1,2.8-1.1c1.2,0,2.1,0.4,2.9,1.1
		s1.1,1.7,1.1,3L581.8,100.3z M579.9,98.9c-0.1-0.4-0.4-0.8-0.7-1c-0.4-0.3-0.8-0.4-1.3-0.4c-0.5,0-1,0.1-1.4,0.4
		c-0.2,0.2-0.5,0.5-0.7,1H579.9z"/>
	<path d="M522.9,112.9h1.9v7.4h-1.9v-0.8c-0.4,0.3-0.7,0.6-1.1,0.7s-0.8,0.2-1.2,0.2c-1,0-1.8-0.4-2.5-1.1s-1.1-1.7-1.1-2.8
		c0-1.1,0.3-2.1,1-2.8c0.7-0.7,1.5-1.1,2.5-1.1c0.4,0,0.9,0.1,1.3,0.3c0.4,0.2,0.8,0.4,1.1,0.8V112.9z M520.9,114.4
		c-0.6,0-1.1,0.2-1.4,0.6c-0.4,0.4-0.6,0.9-0.6,1.6c0,0.6,0.2,1.2,0.6,1.6c0.4,0.4,0.9,0.6,1.4,0.6c0.6,0,1.1-0.2,1.5-0.6
		s0.6-0.9,0.6-1.6c0-0.6-0.2-1.2-0.6-1.6S521.5,114.4,520.9,114.4z"/>
	<path d="M526.6,112.9h1.9v0.8c0.4-0.4,0.8-0.6,1.2-0.7c0.3-0.1,0.7-0.2,1.1-0.2c0.7,0,1.4,0.3,1.9,0.8c0.4,0.4,0.6,1.1,0.6,1.9v4.9
		h-1.8v-3.3c0-0.9,0-1.5-0.1-1.8c-0.1-0.3-0.2-0.5-0.4-0.7c-0.2-0.2-0.4-0.2-0.7-0.2c-0.4,0-0.7,0.1-1,0.4c-0.3,0.3-0.5,0.6-0.6,1
		c-0.1,0.2-0.1,0.7-0.1,1.5v3h-1.9V112.9z"/>
	<path d="M540.5,110h1.9v10.3h-1.9v-0.8c-0.4,0.3-0.7,0.6-1.1,0.7s-0.8,0.2-1.2,0.2c-1,0-1.8-0.4-2.5-1.1s-1.1-1.7-1.1-2.8
		c0-1.1,0.3-2.1,1-2.8c0.7-0.7,1.5-1.1,2.5-1.1c0.4,0,0.9,0.1,1.3,0.3s0.8,0.4,1.1,0.8V110z M538.5,114.4c-0.6,0-1.1,0.2-1.4,0.6
		s-0.6,0.9-0.6,1.6c0,0.6,0.2,1.2,0.6,1.6c0.4,0.4,0.9,0.6,1.4,0.6c0.6,0,1.1-0.2,1.5-0.6s0.6-0.9,0.6-1.6c0-0.6-0.2-1.2-0.6-1.6
		S539.1,114.4,538.5,114.4z"/>
	<path d="M548.2,110.3h1.9v10.1h-1.9V110.3z"/>
	<path d="M555.6,112.7c0.7,0,1.4,0.2,2,0.5c0.6,0.4,1.1,0.8,1.4,1.4s0.5,1.3,0.5,1.9c0,0.7-0.2,1.4-0.5,2c-0.3,0.6-0.8,1.1-1.4,1.4
		s-1.3,0.5-2,0.5c-1.1,0-2-0.4-2.7-1.1c-0.8-0.8-1.1-1.7-1.1-2.8c0-1.2,0.4-2.1,1.3-2.9C553.7,113,554.6,112.7,555.6,112.7z
		 M555.6,114.4c-0.6,0-1.1,0.2-1.4,0.6s-0.6,0.9-0.6,1.5c0,0.6,0.2,1.2,0.6,1.6c0.4,0.4,0.9,0.6,1.4,0.6c0.6,0,1.1-0.2,1.5-0.6
		s0.6-0.9,0.6-1.6s-0.2-1.2-0.6-1.6C556.7,114.6,556.2,114.4,555.6,114.4z"/>
	<path d="M560.3,110.3h5.6v1.9H564v8.2H562v-8.2h-1.8V110.3z"/>
</g>
<g>
	<g>
		<path class="st3" d="M506.3,68.2c1.3,0,2.4-1.1,2.4-2.4s-1.1-2.4-2.4-2.4c-1.3,0-2.4,1.1-2.4,2.4S505,68.2,506.3,68.2z
			 M506.3,64.6c0.7,0,1.2,0.5,1.2,1.2S507,67,506.3,67s-1.2-0.5-1.2-1.2S505.6,64.6,506.3,64.6z"/>
		<path class="st3" d="M496.1,36.5v31.1c0,1.3,1.1,2.4,2.4,2.4h15.5c1.3,0,2.4-1.1,2.4-2.4V36.5c0-1.3-1.1-2.4-2.4-2.4h-15.5
			C497.2,34.1,496.1,35.2,496.1,36.5z M515.3,67.6c0,0.7-0.5,1.2-1.2,1.2h-15.5c-0.7,0-1.2-0.5-1.2-1.2v-4.8h17.9V67.6z M515.3,61.6
			h-17.9V38.9h17.9V61.6z M497.3,36.5c0-0.7,0.5-1.2,1.2-1.2h15.5c0.7,0,1.2,0.5,1.2,1.2v1.2h-17.9V36.5z"/>
		<path class="st3" d="M506.3,35.9h-3c-0.3,0-0.6,0.3-0.6,0.6s0.3,0.6,0.6,0.6h3c0.3,0,0.6-0.3,0.6-0.6S506.6,35.9,506.3,35.9z"/>
		<path class="st3" d="M509.3,35.9h-1.2c-0.3,0-0.6,0.3-0.6,0.6s0.3,0.6,0.6,0.6h1.2c0.3,0,0.6-0.3,0.6-0.6S509.6,35.9,509.3,35.9z"
			/>
		<path class="st3" d="M506.3,55.6c-1,0-1.8,0.8-1.8,1.8s0.8,1.8,1.8,1.8s1.8-0.8,1.8-1.8S507.3,55.6,506.3,55.6z M506.3,58
			c-0.3,0-0.6-0.3-0.6-0.6s0.3-0.6,0.6-0.6s0.6,0.3,0.6,0.6S506.6,58,506.3,58z"/>
		<path class="st3" d="M506.3,52.1c-1.6,0-3.1,0.8-4.1,2c-0.2,0.3-0.1,0.6,0.1,0.8c0.3,0.2,0.6,0.1,0.8-0.1c1.3-1.7,3.7-2.1,5.4-0.8
			c0.3,0.2,0.6,0.5,0.8,0.8c0.2,0.3,0.6,0.3,0.8,0.1c0.3-0.2,0.3-0.6,0.1-0.8c0,0,0,0,0,0C509.4,52.8,507.9,52.1,506.3,52.1z"/>
		<path class="st3" d="M506.3,48.5c-2.4,0-4.7,0.9-6.4,2.6c-0.2,0.2-0.2,0.6,0,0.8c0.2,0.2,0.6,0.2,0.8,0l0,0c3.1-3,8-3,11.1,0
			c0.2,0.2,0.6,0.2,0.8,0c0.2-0.2,0.2-0.6,0-0.8l0,0C511,49.4,508.7,48.5,506.3,48.5z"/>
		<path class="st3" d="M499.6,48.9c1.8-1.8,4.2-2.8,6.7-2.8c2.5,0,4.9,1,6.7,2.8c0.2,0.2,0.6,0.2,0.8,0s0.2-0.6,0-0.8
			c-2-2-4.7-3.1-7.6-3.2c-2.8,0-5.6,1.2-7.6,3.2c-0.2,0.2-0.2,0.6,0,0.8S499.3,49.1,499.6,48.9L499.6,48.9z"/>
		<rect x="498.5" y="40.1" class="st3" width="1.2" height="1.2"/>
		<rect x="500.9" y="40.1" class="st3" width="1.2" height="1.2"/>
		<rect x="503.3" y="40.1" class="st3" width="1.2" height="1.2"/>
	</g>
	<g>
		<path class="st3" d="M562.9,36.7h-20.2c-1.9,0-3.4,1.5-3.4,3.4v16.6c0,1.9,1.5,3.4,3.4,3.4h20.2c1.9,0,3.4-1.5,3.4-3.4V40.1
			C566.4,38.2,564.8,36.7,562.9,36.7z M542.7,38.5h20.2c0.9,0,1.6,0.7,1.6,1.6v0.2h-23.5v-0.2C541.1,39.2,541.8,38.5,542.7,38.5z
			 M562.9,58.4h-20.2c-0.9,0-1.6-0.7-1.6-1.6V42.1h23.5v14.6C564.6,57.7,563.8,58.4,562.9,58.4z"/>
		<path class="st3" d="M561.9,62c-1.5,0-2.7,1.2-2.7,2.7s1.2,2.7,2.7,2.7s2.7-1.2,2.7-2.7S563.4,62,561.9,62z M561.9,65.6
			c-0.5,0-0.9-0.4-0.9-0.9s0.4-0.9,0.9-0.9s0.9,0.4,0.9,0.9S562.4,65.6,561.9,65.6z"/>
		<path class="st3" d="M543.8,62c-1.5,0-2.7,1.2-2.7,2.7s1.2,2.7,2.7,2.7s2.7-1.2,2.7-2.7S545.3,62,543.8,62z M543.8,65.6
			c-0.5,0-0.9-0.4-0.9-0.9s0.4-0.9,0.9-0.9s0.9,0.4,0.9,0.9S544.3,65.6,543.8,65.6z"/>
		<path class="st3" d="M570.9,31.3c-0.5,0-0.9,0.4-0.9,0.9c0,0.5,0.4,0.9,0.9,0.9c3.5,0,6.3,2.8,6.3,6.3c0,0.5,0.4,0.9,0.9,0.9
			s0.9-0.4,0.9-0.9C579,34.9,575.4,31.3,570.9,31.3z"/>
		<path class="st3" d="M570.9,27.7c-0.5,0-0.9,0.4-0.9,0.9s0.4,0.9,0.9,0.9c5.5,0,9.9,4.5,9.9,9.9c0,0.5,0.4,0.9,0.9,0.9
			s0.9-0.4,0.9-0.9C582.6,32.9,577.4,27.7,570.9,27.7z"/>
		<path class="st3" d="M570.9,24c-0.5,0-0.9,0.4-0.9,0.9s0.4,0.9,0.9,0.9c7.5,0,13.5,6.1,13.6,13.6c0,0.5,0.4,0.9,0.9,0.9
			s0.9-0.4,0.9-0.9C586.3,30.9,579.4,24,570.9,24z"/>
		<path class="st3" d="M572.7,36.7c-0.5,0-0.9,0.4-0.9,0.9v0.9H570v-0.2c0-2.9-2.4-5.3-5.3-5.3h-23.8c-2.9,0-5.3,2.4-5.3,5.3v30.9
			h-0.9c-0.5,0-0.9,0.4-0.9,0.9v3.6c0,0.5,0.4,0.9,0.9,0.9h2.7v1.8c0,2,1.6,3.6,3.6,3.6s3.6-1.6,3.6-3.6v-1.8H561v1.8
			c0,2,1.6,3.6,3.6,3.6s3.6-1.6,3.6-3.6v-1.8h2.7c0.5,0,0.9-0.4,0.9-0.9v-3.6c0-0.5-0.4-0.9-0.9-0.9H570V40.3h2.7
			c0.5,0,0.9-0.4,0.9-0.9v-1.8C573.6,37.1,573.2,36.7,572.7,36.7z M542.9,76.5c0,1-0.8,1.8-1.8,1.8s-1.8-0.8-1.8-1.8v-1.8h3.6V76.5z
			 M566.4,76.5c0,1-0.8,1.8-1.8,1.8s-1.8-0.8-1.8-1.8v-1.8h3.6V76.5z M570,72.8h-34.3V71H570V72.8z M537.5,69.2V38.3
			c0-1.9,1.5-3.5,3.5-3.5h23.8c1.9,0,3.5,1.5,3.5,3.5v30.9H537.5z"/>
	</g>
</g>
<g>
</g>
<g>
</g>
<g>
</g>
<g>
</g>
<g>
</g>
<g>
</g>
</svg>
